<?xml version="1.0" encoding="utf-8"?>
<!-- Generator: Adobe Illustrator 16.0.0, SVG Export Plug-In . SVG Version: 6.00 Build 0)  -->
<!DOCTYPE svg PUBLIC "-//W3C//DTD SVG 1.1//EN" "http://www.w3.org/Graphics/SVG/1.1/DTD/svg11.dtd">
<svg version="1.1" id="Layer_1" xmlns="http://www.w3.org/2000/svg" xmlns:xlink="http://www.w3.org/1999/xlink" x="0px" y="0px"
	 width="433px" height="420px" viewBox="0 0 433 420" enable-background="new 0 0 433 420" xml:space="preserve">
<rect display="none" fill="#39A3D8" width="500" height="500"/>
<g>
	<defs>
		<rect id="SVGID_1_" x="-29.695" y="-28.505" width="500" height="500"/>
	</defs>
	<clipPath id="SVGID_2_">
		<use xlink:href="#SVGID_1_"  overflow="visible"/>
	</clipPath>
	
		<circle clip-path="url(#SVGID_2_)" fill="none" stroke="#46B5E0" stroke-width="25" stroke-miterlimit="10" cx="220.305" cy="221.495" r="123.385"/>
	<path clip-path="url(#SVGID_2_)" fill="none" stroke="#46B5E0" stroke-width="5" stroke-miterlimit="10" d="M83.297,335.762
		c-25.842-30.949-41.393-70.793-41.393-114.267c0-85.195,59.719-156.442,139.578-174.164"/>
	<path clip-path="url(#SVGID_2_)" fill="none" stroke="#46B5E0" stroke-width="5" stroke-miterlimit="10" d="M320.05,369.428
		c-28.473,19.236-62.797,30.467-99.744,30.467c-40.872,0-78.531-13.742-108.612-36.859"/>
	<path clip-path="url(#SVGID_2_)" fill="none" stroke="#46B5E0" stroke-width="5" stroke-miterlimit="10" d="M326.548,78.166
		c43.785,32.509,72.158,84.606,72.158,143.329c0,24.918-5.109,48.642-14.336,70.185"/>
	<path clip-path="url(#SVGID_2_)" fill="#252626" d="M347.431,301.016H93.179c-5.453,0-9.874-4.42-9.874-9.873V132.194
		c0-5.453,4.421-9.874,9.874-9.874h254.251c5.453,0,9.875,4.421,9.875,9.874v158.948
		C357.306,296.596,352.884,301.016,347.431,301.016"/>
	<rect x="96.92" y="133.306" clip-path="url(#SVGID_2_)" fill="#FF5562" width="246.77" height="148.913"/>
	<path clip-path="url(#SVGID_2_)" fill="#FEFFFF" d="M364.653,316.668H75.957c-8.644,0-15.652-7.008-15.652-15.652h320
		C380.306,309.66,373.298,316.668,364.653,316.668"/>
	<path clip-path="url(#SVGID_2_)" fill="#FFFFFF" d="M223.072,128.177c0,1.528-1.239,2.767-2.767,2.767
		c-1.527,0-2.766-1.239-2.766-2.767s1.239-2.767,2.766-2.767C221.833,125.41,223.072,126.649,223.072,128.177"/>
	<path clip-path="url(#SVGID_2_)" fill="#74DFE2" d="M222.131,128.177c0,1.008-0.817,1.826-1.827,1.826
		c-1.008,0-1.825-0.818-1.825-1.826c0-1.008,0.817-1.826,1.825-1.826C221.314,126.351,222.131,127.169,222.131,128.177"/>
	<path clip-path="url(#SVGID_2_)" fill="#FFFFFF" d="M215.387,128.177c0,0.732-0.593,1.326-1.326,1.326
		c-0.732,0-1.325-0.594-1.325-1.326s0.593-1.326,1.325-1.326C214.794,126.851,215.387,127.445,215.387,128.177"/>
	<rect x="203.999" y="307.117" clip-path="url(#SVGID_2_)" fill="#CDD1D1" width="32.612" height="3.451"/>
	<rect x="239.111" y="307.117" clip-path="url(#SVGID_2_)" fill="#CDD1D1" width="6" height="3.451"/>
	<rect x="195.499" y="307.117" clip-path="url(#SVGID_2_)" fill="#CDD1D1" width="6" height="3.451"/>
</g>
<g>
	<defs>
		<rect id="SVGID_3_" x="96.92" y="133.307" width="246.77" height="148.912"/>
	</defs>
	<clipPath id="SVGID_4_">
		<use xlink:href="#SVGID_3_"  overflow="visible"/>
	</clipPath>
	<path clip-path="url(#SVGID_4_)" fill="#FFFFFF" d="M297.806,218.495c0,42.802-34.699,77.5-77.5,77.5
		c-42.802,0-77.5-34.697-77.5-77.5c0-42.802,34.698-77.5,77.5-77.5C263.106,140.995,297.806,175.693,297.806,218.495"/>
</g>
<g>
	<defs>
		<rect id="SVGID_5_" x="-29.695" y="-28.505" width="500" height="500"/>
	</defs>
	<clipPath id="SVGID_6_">
		<use xlink:href="#SVGID_5_"  overflow="visible"/>
	</clipPath>
	<path clip-path="url(#SVGID_6_)" fill="#4285BC" d="M266.194,221.689c-28.597-10.825-45.889-9.183-45.889-9.183
		s-17.292-1.643-45.89,9.183c-6.468,2.448-11.275,8.021-12.731,14.782c-1.939,9.004-4.327,23.99-5.366,46.123h127.976
		c-1.041-22.133-3.43-37.119-5.367-46.123C277.472,229.71,272.665,224.137,266.194,221.689"/>
	<path clip-path="url(#SVGID_6_)" fill="#1E1E1E" d="M247.236,182.727l-1.495-0.625c0.053-0.127,5.168-12.776-3.333-23.596
		c-8.114-10.328-21.961-10.224-22.088-10.224c-0.178-0.009-14.001-0.106-22.118,10.224c-8.52,10.843-3.385,23.469-3.333,23.595
		l-1.495,0.626c-0.056-0.135-5.547-13.639,3.554-25.222c8.623-10.975,22.791-10.849,23.392-10.843
		c0.574-0.008,14.738-0.132,23.361,10.843C252.784,169.087,247.292,182.591,247.236,182.727"/>
	<path clip-path="url(#SVGID_6_)" fill="#D8A286" d="M201.686,205.724c0,0,0.778,7.664,1.096,14.732
		c0.135,3.007,1.311,5.877,3.335,8.105c3.217,3.542,8.497,8.152,14.188,8.152c5.69,0,10.972-4.611,14.188-8.152
		c2.023-2.228,3.199-5.098,3.335-8.105c0.317-7.068,1.096-14.732,1.096-14.732H201.686z"/>
	<path clip-path="url(#SVGID_6_)" fill="#FCCFB8" d="M239.116,158.49c-3.646-3.106-10.207-6.482-18.811-6.482
		c-8.603,0-15.165,3.376-18.81,6.482c-3.646,3.106-9.916,14.855-3.062,38.757c5.588,19.491,17.087,22.369,21.143,22.768v0.054
		c0,0,0.262,0.017,0.729-0.002c0.466,0.019,0.729,0.002,0.729,0.002l-0.001-0.054c4.056-0.399,15.556-3.277,21.144-22.768
		C249.031,173.345,242.76,161.596,239.116,158.49"/>
	<path clip-path="url(#SVGID_6_)" fill="#7F462F" d="M231.57,160.043c0,0-4.254,4.456-13.673,4.963c0,0,0.608-1.722,1.317-2.482
		c0,0-7.394,2.279-13.775,2.482c0,0-0.202-1.823,0-2.482c0,0-9.042,7.481-9.129,25.542c0,0-3.632-7.868-3.531-16.578
		c0,0-0.304,0.202-1.418-0.405c0,0,3.342-17.117,19.345-22.08c16.001-4.963,29.314,3.511,34.536,12.617
		c2.954,5.151,3.445,16.35-0.941,26.446c0,0-2.197-16.374-4.627-20.224l-0.406,1.721
		C239.267,169.563,233.929,165.364,231.57,160.043"/>
	<path clip-path="url(#SVGID_6_)" fill="#333333" d="M195.354,199.345L195.354,199.345c-1.779,0.201-3.384-1.078-3.585-2.856
		l-1.722-15.227c-0.201-1.779,1.078-3.384,2.857-3.585c1.778-0.201,3.383,1.078,3.584,2.857l1.722,15.226
		C198.411,197.539,197.132,199.144,195.354,199.345"/>
	<path clip-path="url(#SVGID_6_)" fill="#CECECE" d="M191.769,196.488l-1.722-15.227c-0.039-0.346-0.007-0.68,0.058-1.004
		c-2.364,1.78-3.755,5.263-3.323,9.084c0.432,3.822,2.566,6.906,5.268,8.113C191.914,197.153,191.808,196.834,191.769,196.488"/>
	<path clip-path="url(#SVGID_6_)" fill="#333333" d="M245.256,199.345L245.256,199.345c1.779,0.201,3.385-1.078,3.585-2.856
		l1.722-15.227c0.201-1.779-1.078-3.384-2.857-3.585c-1.777-0.201-3.383,1.078-3.584,2.857l-1.722,15.226
		C242.2,197.539,243.478,199.144,245.256,199.345"/>
	<path clip-path="url(#SVGID_6_)" fill="#CECECE" d="M248.841,196.488l1.722-15.227c0.039-0.346,0.008-0.68-0.059-1.004
		c2.365,1.78,3.756,5.263,3.324,9.084c-0.434,3.822-2.566,6.906-5.269,8.113C248.697,197.153,248.802,196.834,248.841,196.488"/>
	<polygon clip-path="url(#SVGID_6_)" fill="#2D5B70" points="179.805,282.594 182.138,268.828 184.138,282.594 	"/>
	<polygon clip-path="url(#SVGID_6_)" fill="#2D5B70" points="260.806,282.594 258.472,268.828 256.472,282.594 	"/>
	<rect x="315.032" y="105.188" clip-path="url(#SVGID_6_)" fill="#FFFFFF" width="72.994" height="54.243"/>
	<rect x="321.333" y="113.409" clip-path="url(#SVGID_6_)" fill="#5ABFE9" width="16.729" height="22.377"/>
	<rect x="363.046" y="137.523" clip-path="url(#SVGID_6_)" fill="#BEC3C7" width="18.684" height="13.687"/>
	<rect x="340.669" y="113.409" clip-path="url(#SVGID_6_)" fill="#FF5562" width="19.986" height="22.377"/>
	<rect x="363.046" y="114.125" clip-path="url(#SVGID_6_)" fill="#D1D1D1" width="18.684" height="1.904"/>
	<rect x="363.046" y="117.933" clip-path="url(#SVGID_6_)" fill="#D1D1D1" width="18.684" height="1.904"/>
	<rect x="363.046" y="121.741" clip-path="url(#SVGID_6_)" fill="#D1D1D1" width="18.684" height="1.904"/>
	<rect x="363.046" y="125.55" clip-path="url(#SVGID_6_)" fill="#D1D1D1" width="18.684" height="1.904"/>
	<rect x="363.046" y="129.357" clip-path="url(#SVGID_6_)" fill="#D1D1D1" width="18.684" height="1.904"/>
	<rect x="363.046" y="133.166" clip-path="url(#SVGID_6_)" fill="#D1D1D1" width="18.684" height="1.904"/>
	<rect x="341.97" y="137.703" clip-path="url(#SVGID_6_)" fill="#D1D1D1" width="18.684" height="1.904"/>
	<rect x="341.97" y="141.511" clip-path="url(#SVGID_6_)" fill="#D1D1D1" width="18.684" height="1.904"/>
	<rect x="341.97" y="145.32" clip-path="url(#SVGID_6_)" fill="#D1D1D1" width="18.684" height="1.904"/>
	<rect x="341.97" y="149.127" clip-path="url(#SVGID_6_)" fill="#D1D1D1" width="18.684" height="1.904"/>
	<rect x="321.333" y="137.703" clip-path="url(#SVGID_6_)" fill="#D1D1D1" width="18.684" height="1.904"/>
	<rect x="321.333" y="141.511" clip-path="url(#SVGID_6_)" fill="#D1D1D1" width="18.684" height="1.904"/>
	<rect x="321.333" y="145.32" clip-path="url(#SVGID_6_)" fill="#D1D1D1" width="18.684" height="1.904"/>
	<rect x="321.333" y="149.127" clip-path="url(#SVGID_6_)" fill="#D1D1D1" width="18.684" height="1.904"/>
	<path clip-path="url(#SVGID_6_)" fill-rule="evenodd" clip-rule="evenodd" fill="#FFFFFF" d="M16.382,184.1
		c0,1.049-0.85,1.899-1.899,1.899c-1.05,0-1.9-0.85-1.9-1.899c0-1.049,0.85-1.899,1.9-1.899
		C15.533,182.201,16.382,183.051,16.382,184.1"/>
	<path clip-path="url(#SVGID_6_)" fill-rule="evenodd" clip-rule="evenodd" fill="#FFFFFF" d="M279.204,83.262
		c0,1.049-0.85,1.899-1.898,1.899s-1.9-0.85-1.9-1.899c0-1.049,0.852-1.899,1.9-1.899S279.204,82.213,279.204,83.262"/>
	<path clip-path="url(#SVGID_6_)" fill-rule="evenodd" clip-rule="evenodd" fill="#FFFFFF" d="M43.804,27.245
		c0,1.049-0.85,1.899-1.899,1.899c-1.05,0-1.9-0.85-1.9-1.899s0.85-1.899,1.9-1.899C42.954,25.346,43.804,26.196,43.804,27.245"/>
	<path clip-path="url(#SVGID_6_)" fill-rule="evenodd" clip-rule="evenodd" fill="#FFFFFF" d="M407.872,199.365
		c0,1.049-0.852,1.899-1.9,1.899s-1.898-0.85-1.898-1.899c0-1.049,0.85-1.899,1.898-1.899S407.872,198.316,407.872,199.365"/>
	<path clip-path="url(#SVGID_6_)" fill-rule="evenodd" clip-rule="evenodd" fill="#FFFFFF" d="M72.438,394.77
		c0,1.049-0.85,1.9-1.899,1.9c-1.05,0-1.9-0.852-1.9-1.9s0.85-1.898,1.9-1.898C71.587,392.871,72.438,393.721,72.438,394.77"/>
	<path clip-path="url(#SVGID_6_)" fill-rule="evenodd" clip-rule="evenodd" fill="#FFFFFF" d="M377.819,350.596
		c0,1.049-0.852,1.898-1.9,1.898s-1.9-0.85-1.9-1.898s0.852-1.9,1.9-1.9S377.819,349.547,377.819,350.596"/>
	
		<line clip-path="url(#SVGID_6_)" fill="none" stroke="#FFFFFF" stroke-width="3" stroke-linecap="round" stroke-miterlimit="10" x1="65.805" y1="56.203" x2="65.805" y2="66.453"/>
	
		<line clip-path="url(#SVGID_6_)" fill="none" stroke="#FFFFFF" stroke-width="3" stroke-linecap="round" stroke-miterlimit="10" x1="70.93" y1="61.328" x2="60.68" y2="61.328"/>
	
		<line clip-path="url(#SVGID_6_)" fill="none" stroke="#FFFFFF" stroke-width="3" stroke-linecap="round" stroke-miterlimit="10" x1="370.794" y1="399.895" x2="370.794" y2="410.145"/>
	
		<line clip-path="url(#SVGID_6_)" fill="none" stroke="#FFFFFF" stroke-width="3" stroke-linecap="round" stroke-miterlimit="10" x1="375.919" y1="405.02" x2="365.669" y2="405.02"/>
	
		<line clip-path="url(#SVGID_6_)" fill="none" stroke="#FFFFFF" stroke-width="3" stroke-linecap="round" stroke-miterlimit="10" x1="209.687" y1="82.999" x2="209.687" y2="93.249"/>
	
		<line clip-path="url(#SVGID_6_)" fill="none" stroke="#FFFFFF" stroke-width="3" stroke-linecap="round" stroke-miterlimit="10" x1="214.812" y1="88.124" x2="204.562" y2="88.124"/>
	
		<line clip-path="url(#SVGID_6_)" fill="none" stroke="#FFFFFF" stroke-width="3" stroke-linecap="round" stroke-miterlimit="10" x1="407.872" y1="263.703" x2="407.872" y2="273.953"/>
	
		<line clip-path="url(#SVGID_6_)" fill="none" stroke="#FFFFFF" stroke-width="3" stroke-linecap="round" stroke-miterlimit="10" x1="412.997" y1="268.828" x2="402.747" y2="268.828"/>
	
		<line clip-path="url(#SVGID_6_)" fill="none" stroke="#FFFFFF" stroke-width="3" stroke-linecap="round" stroke-miterlimit="10" x1="36.78" y1="316.668" x2="36.78" y2="326.918"/>
	
		<line clip-path="url(#SVGID_6_)" fill="none" stroke="#FFFFFF" stroke-width="3" stroke-linecap="round" stroke-miterlimit="10" x1="41.905" y1="321.793" x2="31.655" y2="321.793"/>
	
		<line clip-path="url(#SVGID_6_)" fill="none" stroke="#FFFFFF" stroke-width="3" stroke-linecap="round" stroke-miterlimit="10" x1="388.026" y1="27.245" x2="388.026" y2="37.495"/>
	
		<line clip-path="url(#SVGID_6_)" fill="none" stroke="#FFFFFF" stroke-width="3" stroke-linecap="round" stroke-miterlimit="10" x1="393.151" y1="32.37" x2="382.901" y2="32.37"/>
</g>
<text transform="matrix(1 0 0 1 171.0596 406.9834)" display="none"><tspan x="0" y="0" display="inline" fill="#FFFFFF" font-family="'Bebas'" font-size="41.3427">w</tspan><tspan x="31.255" y="0" display="inline" fill="#FFFFFF" font-family="'Bebas'" font-size="41.3427">e</tspan><tspan x="51.967" y="0" display="inline" fill="#FFFFFF" font-family="'Bebas'" font-size="41.3427">b</tspan><tspan x="76.483" y="0" display="inline" fill="#FFFFFF" font-family="'Bebas'" font-size="41.3427" letter-spacing="1">i</tspan><tspan x="87.272" y="0" display="inline" fill="#FFFFFF" font-family="'Bebas'" font-size="41.3427">n</tspan><tspan x="111.003" y="0" display="inline" fill="#FFFFFF" font-family="'Bebas'" font-size="41.3427">a</tspan><tspan x="131.757" y="0" display="inline" fill="#FFFFFF" font-family="'Bebas'" font-size="41.3427">r</tspan></text>
<text transform="matrix(1 0 0 1 126.1938 428.6611)" display="none"><tspan x="0" y="0" display="inline" fill="#FFFFFF" font-family="'EncodeSans-Regular'" font-size="13.2288">L</tspan><tspan x="5.979" y="0" display="inline" fill="#FFFFFF" font-family="'EncodeSans-Regular'" font-size="13.2288">o</tspan><tspan x="13.242" y="0" display="inline" fill="#FFFFFF" font-family="'EncodeSans-Regular'" font-size="13.2288">r</tspan><tspan x="17.25" y="0" display="inline" fill="#FFFFFF" font-family="'EncodeSans-Regular'" font-size="13.2288">em ipsum dolo</tspan><tspan x="99.81" y="0" display="inline" fill="#FFFFFF" font-family="'EncodeSans-Regular'" font-size="13.2288">r</tspan><tspan x="103.845" y="0" display="inline" fill="#FFFFFF" font-family="'EncodeSans-Regular'" font-size="13.2288"> si</tspan><tspan x="114.983" y="0" display="inline" fill="#FFFFFF" font-family="'EncodeSans-Regular'" font-size="13.2288">t</tspan><tspan x="119.282" y="0" display="inline" fill="#FFFFFF" font-family="'EncodeSans-Regular'" font-size="13.2288"> am</tspan><tspan x="139.496" y="0" display="inline" fill="#FFFFFF" font-family="'EncodeSans-Regular'" font-size="13.2288">e</tspan><tspan x="146.083" y="0" display="inline" fill="#FFFFFF" font-family="'EncodeSans-Regular'" font-size="13.2288">t, </tspan><tspan x="156.004" y="0" display="inline" fill="#FFFFFF" font-family="'EncodeSans-Regular'" font-size="13.2288">c</tspan><tspan x="161.772" y="0" display="inline" fill="#FFFFFF" font-family="'EncodeSans-Regular'" font-size="13.2288">onsect</tspan><tspan x="198.548" y="0" display="inline" fill="#FFFFFF" font-family="'EncodeSans-Regular'" font-size="13.2288">e</tspan><tspan x="205.136" y="0" display="inline" fill="#FFFFFF" font-family="'EncodeSans-Regular'" font-size="13.2288">tu</tspan><tspan x="216.803" y="0" display="inline" fill="#FFFFFF" font-family="'EncodeSans-Regular'" font-size="13.2288">r</tspan><tspan x="220.838" y="0" display="inline" fill="#FFFFFF" font-family="'EncodeSans-Regular'" font-size="13.2288"> </tspan></text>
<text transform="matrix(1 0 0 1 147.0425 444.5361)" display="none"><tspan x="0" y="0" display="inline" fill="#FFFFFF" font-family="'EncodeSans-Regular'" font-size="13.2288">adipiscing elit. </tspan><tspan x="82.123" y="0" display="inline" fill="#FFFFFF" font-family="'EncodeSans-Regular'" font-size="13.2288">L</tspan><tspan x="88.102" y="0" display="inline" fill="#FFFFFF" font-family="'EncodeSans-Regular'" font-size="13.2288">o</tspan><tspan x="95.364" y="0" display="inline" fill="#FFFFFF" font-family="'EncodeSans-Regular'" font-size="13.2288">r</tspan><tspan x="99.373" y="0" display="inline" fill="#FFFFFF" font-family="'EncodeSans-Regular'" font-size="13.2288">em ipsum dolo</tspan><tspan x="181.932" y="0" display="inline" fill="#FFFFFF" font-family="'EncodeSans-Regular'" font-size="13.2288">r</tspan><tspan x="185.557" y="0" display="inline" fill="#FFFFFF" font-family="'EncodeSans-Regular'" font-size="13.2288">.</tspan></text>
<g>
	<defs>
		<rect id="SVGID_7_" x="-29.695" y="-28.505" width="500" height="500"/>
	</defs>
	<clipPath id="SVGID_8_">
		<use xlink:href="#SVGID_7_"  overflow="visible"/>
	</clipPath>
	<path clip-path="url(#SVGID_8_)" fill="#FFFFFF" d="M54.521,117.306l-0.706-2.296l-1.632,0.504
		c-0.464-1.084-1.086-2.061-1.829-2.916l1.161-1.25l-1.758-1.632l-1.163,1.25c-0.925-0.688-1.952-1.231-3.041-1.607l0.381-1.665
		l-2.34-0.535l-0.382,1.663c-1.124-0.133-2.282-0.097-3.438,0.128l-0.503-1.632l-2.294,0.708l0.503,1.631
		c-1.083,0.465-2.06,1.087-2.914,1.83l-1.251-1.162l-1.634,1.76l1.252,1.162c-0.688,0.925-1.231,1.952-1.608,3.041l-1.665-0.38
		l-0.535,2.34l1.664,0.38c-0.133,1.124-0.098,2.281,0.128,3.438l-1.631,0.503l0.706,2.294l1.632-0.503
		c0.464,1.083,1.087,2.06,1.83,2.914l-1.162,1.252l1.759,1.634l1.163-1.253c0.925,0.688,1.951,1.231,3.042,1.609l-0.381,1.665
		l2.339,0.536l0.38-1.665c1.125,0.132,2.283,0.098,3.44-0.129l0.502,1.633l2.294-0.707l-0.503-1.632
		c1.084-0.464,2.06-1.087,2.915-1.831l1.25,1.163l1.634-1.76l-1.252-1.162c0.689-0.925,1.231-1.95,1.609-3.042l1.665,0.382
		l0.535-2.34l-1.665-0.381c0.134-1.124,0.098-2.282-0.127-3.439L54.521,117.306z M44.122,127.132
		c-3.973,1.224-8.188-1.005-9.412-4.978c-1.224-3.973,1.004-8.188,4.978-9.411c3.974-1.225,8.187,1.004,9.411,4.977
		C50.324,121.694,48.095,125.907,44.122,127.132"/>
	<path clip-path="url(#SVGID_8_)" fill="#FFFFFF" d="M41.904,126.108c-3.402,0-6.17-2.768-6.17-6.17s2.768-6.17,6.17-6.17
		s6.17,2.768,6.17,6.17S45.306,126.108,41.904,126.108 M41.904,115.513c-2.44,0-4.425,1.985-4.425,4.425s1.985,4.425,4.425,4.425
		s4.425-1.985,4.425-4.425S44.344,115.513,41.904,115.513"/>
	<path clip-path="url(#SVGID_8_)" fill="#FFFFFF" d="M258.638,46.651c-9.632,0-17.468-7.837-17.468-17.469
		c0-9.633,7.836-17.471,17.468-17.471c9.633,0,17.471,7.838,17.471,17.471C276.108,38.813,268.271,46.651,258.638,46.651
		 M258.638,15.413c-7.59,0-13.769,6.176-13.769,13.769c0,7.592,6.179,13.768,13.769,13.768c7.594,0,13.77-6.176,13.77-13.768
		C272.407,21.589,266.231,15.413,258.638,15.413"/>
	<path clip-path="url(#SVGID_8_)" fill="#FFFFFF" d="M265.952,28.932h-6.441V22.49c0-0.705-0.725-1.275-1.619-1.275
		c-0.893,0-1.617,0.57-1.617,1.275v8.404c0,0.326,0.158,0.618,0.412,0.842c0.229,0.266,0.527,0.431,0.861,0.431h8.404
		c0.703,0,1.273-0.723,1.273-1.617C267.226,29.658,266.655,28.932,265.952,28.932"/>
	<path clip-path="url(#SVGID_8_)" fill="#FFFFFF" d="M348.397,85.855h5.738c0.367,0,0.664-0.297,0.664-0.665
		c0-0.367-0.297-0.667-0.664-0.667h-5.738c-0.369,0-0.666,0.3-0.666,0.667C347.731,85.558,348.028,85.855,348.397,85.855"/>
	<path clip-path="url(#SVGID_8_)" fill="#FFFFFF" d="M348.397,87.693h5.738c0.367,0,0.664-0.299,0.664-0.666
		c0-0.368-0.297-0.666-0.664-0.666h-5.738c-0.369,0-0.666,0.298-0.666,0.666C347.731,87.394,348.028,87.693,348.397,87.693"/>
	<path clip-path="url(#SVGID_8_)" fill="#FFFFFF" d="M351.28,90.45c1.961,0,3.549-0.945,3.549-2.113h-7.098
		C347.731,89.505,349.319,90.45,351.28,90.45"/>
	<path clip-path="url(#SVGID_8_)" fill="#FFFFFF" d="M351.312,61.522c-3.305-0.091-8.723,1.745-10.283,7.254
		s1.377,9.318,4.314,11.384c2.189,1.54,2.387,3.581,2.387,3.581h3.582h3.582c0,0,0.197-2.041,2.385-3.581
		c2.939-2.066,5.877-5.875,4.316-11.384S354.616,61.431,351.312,61.522"/>
	<path clip-path="url(#SVGID_8_)" fill="#FFFFFF" d="M351.856,59.168v-6.004c0-0.808-1.252-0.808-1.252,0v6.004
		C350.604,59.975,351.856,59.975,351.856,59.168"/>
	<path clip-path="url(#SVGID_8_)" fill="#FFFFFF" d="M358.706,61.125c1.061-1.696,2.125-3.393,3.188-5.089
		c0.428-0.684-0.633-1.348-1.061-0.664c-1.064,1.696-2.125,3.393-3.188,5.088C357.216,61.145,358.278,61.81,358.706,61.125"/>
	<path clip-path="url(#SVGID_8_)" fill="#FFFFFF" d="M343.917,61.125c0.428,0.684,1.49,0.019,1.061-0.665
		c-1.063-1.695-2.125-3.392-3.188-5.088c-0.428-0.684-1.488-0.02-1.061,0.664C341.792,57.732,342.854,59.429,343.917,61.125"/>
	<path clip-path="url(#SVGID_8_)" fill="#FFFFFF" d="M56.461,347.064H30.638c-0.96,0-1.744,0.785-1.744,1.746v17.623
		c0,0.959,0.784,1.744,1.744,1.744h8.643v1.576H35.79c-0.542,0-0.982,0.688-0.982,1.537c0,0.852,0.44,1.535,0.982,1.535h15.522
		c0.543,0,0.984-0.684,0.984-1.535c0-0.85-0.441-1.537-0.984-1.537h-3.492v-1.576h8.642c0.961,0,1.746-0.785,1.746-1.744v-17.623
		C58.208,347.85,57.422,347.064,56.461,347.064 M53.756,363.758c0,0.668-0.547,1.215-1.215,1.215H34.56
		c-0.669,0-1.215-0.547-1.215-1.215v-12.273c0-0.668,0.546-1.215,1.215-1.215h17.982c0.668,0,1.215,0.547,1.215,1.215V363.758z"/>
	<path clip-path="url(#SVGID_8_)" fill="#3D2932" d="M54.709,279.377H15.815c-2.969,0-5.375-2.406-5.375-5.375v-54.324
		c0-2.968,2.406-5.375,5.375-5.375h38.894c2.969,0,5.375,2.407,5.375,5.375v54.324C60.084,276.971,57.678,279.377,54.709,279.377"/>
	<path clip-path="url(#SVGID_8_)" fill="#FFFFFF" d="M55.565,270.926v-48.171c-2.071,0-3.751-1.68-3.751-3.751H18.71
		c0,2.072-1.68,3.751-3.751,3.751v48.171c2.071,0,3.751,1.68,3.751,3.752h33.104C51.814,272.605,53.495,270.926,55.565,270.926"/>
	<polygon clip-path="url(#SVGID_8_)" fill="#2B2B2B" points="49.188,270.688 46.237,269.121 43.284,270.688 43.284,263.699 
		49.188,263.699 	"/>
	<polygon clip-path="url(#SVGID_8_)" fill="#2B2B2B" points="43.339,265.682 40.442,260.662 43.339,255.645 49.133,255.645 
		52.03,260.662 49.133,265.682 	"/>
	<polygon clip-path="url(#SVGID_8_)" fill="#2B2B2B" points="41.218,257.766 46.236,254.869 51.254,257.766 51.254,263.561 
		46.236,266.457 41.218,263.561 	"/>
	<polygon clip-path="url(#SVGID_8_)" fill="#F7C341" points="46.236,256.828 47.111,259.045 49.39,258.348 48.204,260.414 
		50.169,261.76 47.813,262.121 47.986,264.498 46.236,262.881 44.486,264.498 44.659,262.121 42.303,261.76 44.27,260.414 
		43.083,258.348 45.361,259.045 	"/>
	<rect x="22.609" y="230.255" clip-path="url(#SVGID_8_)" fill="#D1D1D1" width="25.306" height="1.795"/>
	<rect x="22.609" y="240.619" clip-path="url(#SVGID_8_)" fill="#D1D1D1" width="25.306" height="1.795"/>
	<rect x="22.609" y="245.8" clip-path="url(#SVGID_8_)" fill="#D1D1D1" width="25.306" height="1.795"/>
	<rect x="22.609" y="256.164" clip-path="url(#SVGID_8_)" fill="#D1D1D1" width="17.168" height="1.795"/>
	<rect x="22.609" y="261.346" clip-path="url(#SVGID_8_)" fill="#D1D1D1" width="17.168" height="1.795"/>
	<rect x="22.609" y="266.527" clip-path="url(#SVGID_8_)" fill="#D1D1D1" width="17.168" height="1.795"/>
	<rect x="20.355" y="222.513" clip-path="url(#SVGID_8_)" fill="#F7C341" width="29.814" height="3.962"/>
	<rect x="54.19" y="146.029" clip-path="url(#SVGID_8_)" fill="#FFFFFF" width="59.762" height="39"/>
	<rect x="60.115" y="152.779" clip-path="url(#SVGID_8_)" fill="#F7C341" width="47.911" height="3.458"/>
	<rect x="60.115" y="160.126" clip-path="url(#SVGID_8_)" fill="#F7C341" width="47.911" height="3.458"/>
	<rect x="60.115" y="167.474" clip-path="url(#SVGID_8_)" fill="#F7C341" width="47.911" height="3.458"/>
	<rect x="60.115" y="174.821" clip-path="url(#SVGID_8_)" fill="#F7C341" width="47.911" height="3.458"/>
	<polygon clip-path="url(#SVGID_8_)" fill="#FFFFFF" points="92.452,185.029 108.027,193.029 105.501,182.529 	"/>
	<rect x="330.263" y="237.489" clip-path="url(#SVGID_8_)" fill="#FFFFFF" width="40.279" height="36.265"/>
	<rect x="330.263" y="229.192" clip-path="url(#SVGID_8_)" fill="#6ED371" width="40.279" height="8.298"/>
	<rect x="335.448" y="241.373" clip-path="url(#SVGID_8_)" fill="#BEC3C7" width="8.121" height="8.121"/>
	<rect x="346.341" y="241.373" clip-path="url(#SVGID_8_)" fill="#BEC3C7" width="8.121" height="8.121"/>
	<rect x="357.233" y="241.373" clip-path="url(#SVGID_8_)" fill="#BEC3C7" width="8.121" height="8.121"/>
	<rect x="335.448" y="251.561" clip-path="url(#SVGID_8_)" fill="#BEC3C7" width="8.121" height="8.121"/>
	<rect x="346.341" y="251.561" clip-path="url(#SVGID_8_)" fill="#BEC3C7" width="8.121" height="8.121"/>
	<rect x="357.233" y="251.561" clip-path="url(#SVGID_8_)" fill="#BEC3C7" width="8.121" height="8.121"/>
	<rect x="335.448" y="261.75" clip-path="url(#SVGID_8_)" fill="#BEC3C7" width="8.121" height="8.121"/>
	<rect x="346.341" y="261.75" clip-path="url(#SVGID_8_)" fill="#BEC3C7" width="8.121" height="8.121"/>
	<rect x="357.233" y="261.75" clip-path="url(#SVGID_8_)" fill="#BEC3C7" width="8.121" height="8.121"/>
	<path clip-path="url(#SVGID_8_)" fill="#FFFFFF" d="M136.373,51.183c0,0-10.126,3.414-12.465,6.973
		c-2.339,3.559,7.228,3.333,10.611,4.841L136.373,51.183z"/>
	<path clip-path="url(#SVGID_8_)" fill="#FFFFFF" d="M161.079,61.253c0,0,4.854,9.52,4.039,13.7
		c-0.815,4.18-7.499-2.67-10.971-3.956L161.079,61.253z"/>
	<path clip-path="url(#SVGID_8_)" fill="#E0715E" d="M161.345,25.258c-2.153-0.878-12.277,6.065-12.277,6.065l7.47,5.728
		l9.346,1.126C165.884,38.177,163.498,26.135,161.345,25.258"/>
	<path clip-path="url(#SVGID_8_)" fill="#B1D8E9" d="M135.542,48.527c-2.536,6.222-3.509,12.444-3.061,17.648
		c0.072,0.837,0.562,1.55,1.301,1.851l17.376,7.082c0.738,0.301,1.587,0.134,2.224-0.414c3.958-3.408,7.611-8.538,10.147-14.76
		c3.246-7.963,3.934-15.928,2.355-21.757l-16.816-6.854C143.864,34.388,138.788,40.563,135.542,48.527"/>
	<path clip-path="url(#SVGID_8_)" fill="#252626" d="M158.053,54.947c-1.701,4.172-6.462,6.176-10.634,4.476
		c-4.172-1.701-6.176-6.462-4.476-10.635c1.701-4.172,6.462-6.176,10.634-4.475C157.75,46.014,159.754,50.775,158.053,54.947"/>
	<path clip-path="url(#SVGID_8_)" fill="#FFFFFF" d="M155.438,53.881c-1.112,2.728-4.225,4.038-6.953,2.926
		c-2.729-1.112-4.039-4.225-2.927-6.953c1.112-2.728,4.225-4.038,6.954-2.926C155.24,48.041,156.55,51.153,155.438,53.881"/>
	<path clip-path="url(#SVGID_8_)" fill="#FFE652" d="M144.515,83.85c-1.821,4.468-9.345,5.625-9.345,5.625s-4.571-6.087-2.75-10.555
		c1.821-4.468,6.005-6.986,9.345-5.625C145.105,74.657,146.336,79.382,144.515,83.85"/>
	<path clip-path="url(#SVGID_8_)" fill="#E0715E" d="M142.969,80.508c-1.07,2.625-5.49,3.305-5.49,3.305s-2.686-3.576-1.616-6.201
		c1.07-2.625,3.528-4.105,5.49-3.305C143.314,75.107,144.039,77.883,142.969,80.508"/>
	<path clip-path="url(#SVGID_8_)" fill="#252626" d="M146.481,76.728l-10.489-4.275c-1.276-0.52-1.888-1.976-1.368-3.252l0.29-0.713
		l15.11,6.158l-0.291,0.713C149.214,76.635,147.758,77.248,146.481,76.728"/>
	<path clip-path="url(#SVGID_8_)" fill="#252626" d="M411.39,343.631c-0.855,1.615-3.311,1.992-5.484,0.842
		c-2.172-1.148-3.24-3.391-2.385-5.008c0.855-1.615,3.309-1.992,5.482-0.842C411.177,339.771,412.243,342.014,411.39,343.631"/>
	
		<rect x="405.987" y="325.024" transform="matrix(0.8838 0.4679 -0.4679 0.8838 204.2711 -153.5601)" clip-path="url(#SVGID_8_)" fill="#777777" width="10.502" height="18.75"/>
	<path clip-path="url(#SVGID_8_)" fill="#BFDBDD" d="M419.56,328.195l-7.869-4.166l0.07-0.133c0.453-0.854,1.512-1.18,2.369-0.729
		l4.77,2.525c0.855,0.453,1.182,1.514,0.73,2.369L419.56,328.195z"/>
	<path clip-path="url(#SVGID_8_)" fill="#252626" d="M420.187,326.826l-7.717-4.084c-0.434-0.229-0.598-0.766-0.369-1.197
		l0.072-0.133c0.227-0.432,0.764-0.596,1.195-0.369l7.717,4.086c0.432,0.229,0.598,0.764,0.367,1.195l-0.07,0.135
		C421.153,326.891,420.618,327.055,420.187,326.826"/>
	<path clip-path="url(#SVGID_8_)" fill="#252626" d="M415.476,336.643c-1.238,2.34-4.141,3.232-6.48,1.992
		c-2.34-1.236-3.232-4.139-1.994-6.479s4.139-3.232,6.48-1.994C415.821,331.4,416.714,334.301,415.476,336.643"/>
	<path clip-path="url(#SVGID_8_)" fill="#252626" d="M415.476,336.643c-1.238,2.34-4.141,3.232-6.48,1.992
		c-2.34-1.236-3.232-4.139-1.994-6.479s4.139-3.232,6.48-1.994C415.821,331.4,416.714,334.301,415.476,336.643"/>
	
		<rect x="405.961" y="325.074" transform="matrix(0.8838 0.4678 -0.4678 0.8838 204.2111 -153.5079)" clip-path="url(#SVGID_8_)" fill="#95A4A5" width="10.501" height="18.751"/>
	<path clip-path="url(#SVGID_8_)" fill="#BFDBDD" d="M413.896,335.869c-0.785,1.482-2.621,2.047-4.104,1.264
		c-1.482-0.785-2.047-2.621-1.264-4.104c0.785-1.482,2.621-2.047,4.104-1.264C414.114,332.551,414.679,334.387,413.896,335.869"/>
	<path clip-path="url(#SVGID_8_)" fill="#95A4A5" d="M421.562,368.932h-29.768c-0.535,0-0.969,0.434-0.969,0.969v0.168
		c0,0.535,0.434,0.969,0.969,0.969h29.768c0.537,0,0.971-0.434,0.971-0.969V369.9C422.532,369.365,422.099,368.932,421.562,368.932"
		/>
	<path clip-path="url(#SVGID_8_)" fill="#252626" d="M422.507,372.123c-0.33,0-0.666-0.102-0.955-0.311
		c-0.727-0.527-0.889-1.547-0.359-2.273c3.748-5.166,4.686-13.084,2.387-20.174c-2.15-6.627-6.623-11.352-12.596-13.301
		c-0.855-0.279-1.322-1.197-1.043-2.055c0.277-0.854,1.201-1.322,2.053-1.041c6.887,2.248,12.24,7.859,14.682,15.393
		c2.611,8.047,1.492,17.109-2.848,23.09C423.509,371.891,423.011,372.123,422.507,372.123"/>
	<path clip-path="url(#SVGID_8_)" fill="#95A4A5" d="M426.821,379.787h-36.854c-1.463,0-2.65-1.188-2.65-2.652v-0.453
		c0-1.465,1.188-2.652,2.65-2.652h36.854c1.463,0,2.65,1.188,2.65,2.652v0.453C429.472,378.6,428.284,379.787,426.821,379.787"/>
	<path clip-path="url(#SVGID_8_)" fill="#BFDBDD" d="M425.851,371.037c0,2.178-1.766,3.943-3.943,3.943s-3.941-1.766-3.941-3.943
		c0-2.176,1.764-3.941,3.941-3.941S425.851,368.861,425.851,371.037"/>
</g>
<g display="none">
	<defs>
		<rect id="SVGID_9_" width="500" height="500"/>
	</defs>
	<clipPath id="SVGID_10_" display="inline">
		<use xlink:href="#SVGID_9_"  overflow="visible"/>
	</clipPath>
	<path display="inline" clip-path="url(#SVGID_10_)" fill="#191919" d="M189.271,480.728v-0.14c-0.19,0.217-0.377,0.394-0.562,0.529
		c-0.184,0.138-0.384,0.24-0.6,0.312c-0.215,0.071-0.45,0.105-0.705,0.105c-0.339,0-0.652-0.07-0.94-0.214
		c-0.287-0.143-0.537-0.348-0.747-0.613c-0.211-0.266-0.37-0.577-0.478-0.937c-0.109-0.359-0.163-0.746-0.163-1.163
		c0-0.883,0.215-1.572,0.646-2.064s0.999-0.739,1.702-0.739c0.407,0,0.75,0.07,1.029,0.209c0.28,0.14,0.552,0.354,0.818,0.644
		v-2.084c0-0.29,0.057-0.509,0.173-0.656c0.115-0.149,0.28-0.224,0.494-0.224c0.214,0,0.378,0.069,0.494,0.205
		c0.116,0.136,0.173,0.336,0.173,0.603v6.228c0,0.27-0.061,0.471-0.186,0.605c-0.124,0.135-0.284,0.201-0.481,0.201
		c-0.193,0-0.353-0.069-0.479-0.209C189.334,481.186,189.271,480.986,189.271,480.728 M186.494,478.653
		c0,0.383,0.06,0.708,0.178,0.979c0.12,0.269,0.282,0.471,0.489,0.606c0.207,0.138,0.433,0.205,0.678,0.205
		c0.248,0,0.475-0.064,0.68-0.193c0.205-0.13,0.369-0.328,0.491-0.596c0.123-0.267,0.184-0.602,0.184-1.001
		c0-0.376-0.061-0.698-0.184-0.971c-0.122-0.27-0.287-0.477-0.496-0.62c-0.209-0.143-0.437-0.214-0.685-0.214
		c-0.259,0-0.49,0.073-0.694,0.22c-0.203,0.146-0.361,0.356-0.473,0.63C186.55,477.974,186.494,478.292,186.494,478.653"/>
	<path display="inline" clip-path="url(#SVGID_10_)" fill="#191919" d="M195.499,479.011h-2.762c0.003,0.32,0.068,0.604,0.194,0.849
		c0.126,0.244,0.293,0.429,0.502,0.553c0.208,0.125,0.439,0.186,0.69,0.186c0.169,0,0.323-0.019,0.463-0.058
		c0.14-0.041,0.275-0.102,0.407-0.188c0.131-0.084,0.251-0.175,0.361-0.271c0.111-0.097,0.253-0.229,0.43-0.393
		c0.072-0.063,0.176-0.095,0.311-0.095c0.144,0,0.261,0.041,0.351,0.12c0.089,0.08,0.135,0.191,0.135,0.336
		c0,0.128-0.051,0.276-0.15,0.447c-0.101,0.171-0.252,0.335-0.453,0.492c-0.203,0.157-0.455,0.287-0.761,0.39
		c-0.305,0.104-0.656,0.156-1.053,0.156c-0.906,0-1.612-0.259-2.115-0.776c-0.503-0.517-0.755-1.219-0.755-2.104
		c0-0.418,0.062-0.806,0.186-1.161c0.124-0.358,0.305-0.664,0.543-0.919s0.531-0.45,0.88-0.587c0.348-0.137,0.734-0.204,1.158-0.204
		c0.552,0,1.025,0.116,1.42,0.349s0.691,0.534,0.887,0.902c0.196,0.369,0.295,0.746,0.295,1.128c0,0.354-0.102,0.585-0.305,0.69
		S195.868,479.011,195.499,479.011 M192.736,478.209h2.561c-0.034-0.483-0.166-0.845-0.391-1.084
		c-0.226-0.24-0.523-0.359-0.892-0.359c-0.352,0-0.641,0.121-0.867,0.364S192.786,477.733,192.736,478.209"/>
	<path display="inline" clip-path="url(#SVGID_10_)" fill="#191919" d="M201.933,479.688c0,0.39-0.094,0.724-0.285,1.002
		c-0.189,0.277-0.469,0.488-0.84,0.631c-0.371,0.144-0.822,0.214-1.353,0.214c-0.506,0-0.941-0.078-1.303-0.232
		c-0.362-0.155-0.63-0.35-0.802-0.581c-0.172-0.234-0.258-0.467-0.258-0.702c0-0.155,0.054-0.287,0.165-0.397
		c0.11-0.11,0.25-0.166,0.419-0.166c0.148,0,0.262,0.036,0.341,0.109c0.08,0.072,0.156,0.174,0.228,0.304
		c0.145,0.253,0.318,0.44,0.52,0.565c0.202,0.124,0.476,0.186,0.825,0.186c0.283,0,0.515-0.063,0.696-0.188
		c0.181-0.127,0.271-0.271,0.271-0.433c0-0.249-0.094-0.429-0.282-0.543c-0.188-0.113-0.497-0.223-0.928-0.325
		c-0.487-0.121-0.882-0.248-1.187-0.382c-0.306-0.132-0.55-0.307-0.732-0.523c-0.183-0.218-0.275-0.485-0.275-0.802
		c0-0.283,0.085-0.551,0.254-0.803c0.169-0.251,0.418-0.451,0.748-0.602c0.329-0.151,0.726-0.226,1.192-0.226
		c0.365,0,0.694,0.037,0.985,0.114c0.292,0.075,0.535,0.178,0.73,0.306c0.194,0.127,0.343,0.268,0.444,0.423
		c0.102,0.155,0.153,0.307,0.153,0.456c0,0.162-0.055,0.295-0.163,0.397c-0.108,0.104-0.263,0.156-0.463,0.156
		c-0.145,0-0.268-0.042-0.37-0.125c-0.101-0.083-0.218-0.207-0.349-0.372c-0.107-0.138-0.232-0.248-0.377-0.331
		s-0.342-0.124-0.59-0.124c-0.256,0-0.467,0.053-0.636,0.163c-0.169,0.108-0.254,0.243-0.254,0.405c0,0.148,0.062,0.27,0.186,0.365
		c0.124,0.095,0.291,0.174,0.502,0.235s0.5,0.137,0.869,0.228c0.438,0.106,0.795,0.234,1.073,0.383
		c0.278,0.147,0.488,0.323,0.632,0.524C201.862,479.199,201.933,479.429,201.933,479.688"/>
	<path display="inline" clip-path="url(#SVGID_10_)" fill="#191919" d="M203.375,475.137c-0.196,0-0.364-0.061-0.504-0.182
		c-0.139-0.12-0.209-0.291-0.209-0.513c0-0.199,0.071-0.363,0.214-0.493c0.143-0.131,0.31-0.194,0.499-0.194
		c0.183,0,0.345,0.058,0.487,0.176c0.141,0.117,0.212,0.288,0.212,0.512c0,0.219-0.069,0.388-0.207,0.511
		C203.729,475.075,203.565,475.137,203.375,475.137 M204.074,476.595v4.081c0,0.283-0.067,0.497-0.202,0.642
		c-0.135,0.145-0.305,0.218-0.512,0.218c-0.207,0-0.375-0.074-0.504-0.224c-0.13-0.147-0.194-0.359-0.194-0.636v-4.04
		c0-0.279,0.064-0.489,0.194-0.631c0.129-0.141,0.297-0.212,0.504-0.212c0.207,0,0.377,0.071,0.512,0.212
		C204.007,476.146,204.074,476.343,204.074,476.595"/>
	<path display="inline" clip-path="url(#SVGID_10_)" fill="#191919" d="M210.261,476.827v4.103c0,0.469-0.051,0.873-0.151,1.211
		c-0.099,0.337-0.26,0.617-0.481,0.838c-0.22,0.22-0.509,0.384-0.866,0.49c-0.357,0.107-0.801,0.161-1.332,0.161
		c-0.486,0-0.921-0.068-1.304-0.204c-0.382-0.138-0.677-0.313-0.884-0.528c-0.207-0.215-0.311-0.438-0.311-0.665
		c0-0.172,0.059-0.313,0.177-0.421c0.117-0.109,0.258-0.163,0.423-0.163c0.207,0,0.388,0.091,0.544,0.274
		c0.075,0.093,0.154,0.188,0.235,0.281c0.081,0.096,0.171,0.177,0.269,0.244c0.098,0.066,0.216,0.116,0.354,0.149
		c0.138,0.032,0.297,0.049,0.476,0.049c0.366,0,0.649-0.05,0.851-0.152c0.202-0.102,0.344-0.245,0.424-0.427
		c0.082-0.182,0.129-0.378,0.143-0.587c0.014-0.209,0.024-0.544,0.031-1.007c-0.218,0.304-0.468,0.536-0.753,0.693
		c-0.285,0.159-0.624,0.238-1.016,0.238c-0.473,0-0.886-0.121-1.24-0.362c-0.353-0.241-0.624-0.578-0.814-1.014
		c-0.19-0.435-0.284-0.936-0.284-1.505c0-0.424,0.057-0.807,0.173-1.148c0.116-0.342,0.28-0.63,0.494-0.864s0.46-0.411,0.739-0.53
		c0.28-0.119,0.587-0.178,0.921-0.178c0.4,0,0.747,0.077,1.04,0.229c0.293,0.154,0.566,0.395,0.817,0.723v-0.192
		c0-0.245,0.06-0.434,0.181-0.569c0.121-0.134,0.276-0.202,0.466-0.202c0.272,0,0.453,0.091,0.543,0.268
		S210.261,476.493,210.261,476.827 M206.168,478.617c0,0.572,0.125,1.005,0.375,1.298c0.25,0.294,0.573,0.44,0.97,0.44
		c0.234,0,0.456-0.063,0.664-0.189c0.209-0.126,0.379-0.315,0.51-0.568s0.197-0.562,0.197-0.923c0-0.576-0.127-1.024-0.381-1.346
		c-0.253-0.319-0.587-0.48-1.001-0.48c-0.404,0-0.727,0.153-0.969,0.461C206.29,477.615,206.168,478.053,206.168,478.617"/>
	<path display="inline" clip-path="url(#SVGID_10_)" fill="#191919" d="M212.504,476.574v0.171c0.248-0.328,0.52-0.568,0.814-0.722
		c0.295-0.153,0.634-0.23,1.017-0.23c0.372,0,0.705,0.081,0.998,0.243c0.293,0.163,0.513,0.392,0.657,0.687
		c0.094,0.174,0.154,0.36,0.181,0.56c0.028,0.201,0.042,0.456,0.042,0.766v2.628c0,0.283-0.065,0.497-0.194,0.643
		c-0.13,0.144-0.298,0.217-0.504,0.217c-0.211,0-0.382-0.074-0.513-0.224c-0.131-0.147-0.196-0.359-0.196-0.636v-2.354
		c0-0.465-0.065-0.821-0.194-1.068c-0.13-0.246-0.387-0.37-0.774-0.37c-0.251,0-0.481,0.075-0.688,0.226
		c-0.206,0.15-0.358,0.356-0.455,0.618c-0.069,0.211-0.103,0.604-0.103,1.18v1.769c0,0.286-0.067,0.501-0.199,0.645
		c-0.133,0.143-0.304,0.215-0.515,0.215c-0.204,0-0.37-0.074-0.502-0.224c-0.131-0.147-0.196-0.359-0.196-0.636v-4.081
		c0-0.269,0.058-0.47,0.175-0.603c0.118-0.133,0.278-0.199,0.481-0.199c0.125,0,0.237,0.029,0.337,0.088
		c0.1,0.06,0.18,0.147,0.241,0.263C212.475,476.262,212.504,476.405,212.504,476.574"/>
	<path display="inline" clip-path="url(#SVGID_10_)" fill="#191919" d="M221.096,479.011h-2.762c0.004,0.32,0.068,0.604,0.194,0.849
		c0.126,0.244,0.293,0.429,0.502,0.553c0.208,0.125,0.438,0.186,0.69,0.186c0.169,0,0.323-0.019,0.464-0.058
		c0.139-0.041,0.274-0.102,0.406-0.188c0.13-0.084,0.251-0.175,0.362-0.271c0.11-0.097,0.253-0.229,0.429-0.393
		c0.072-0.063,0.175-0.095,0.31-0.095c0.145,0,0.262,0.041,0.352,0.12c0.09,0.08,0.134,0.191,0.134,0.336
		c0,0.128-0.05,0.276-0.15,0.447s-0.251,0.335-0.453,0.492c-0.202,0.157-0.454,0.287-0.76,0.39
		c-0.305,0.104-0.656,0.156-1.052,0.156c-0.907,0-1.613-0.259-2.116-0.776c-0.503-0.517-0.755-1.219-0.755-2.104
		c0-0.418,0.062-0.806,0.186-1.161c0.124-0.358,0.305-0.664,0.543-0.919c0.238-0.255,0.531-0.45,0.879-0.587
		c0.349-0.137,0.735-0.204,1.159-0.204c0.552,0,1.025,0.116,1.42,0.349s0.69,0.534,0.887,0.902c0.196,0.369,0.295,0.746,0.295,1.128
		c0,0.354-0.101,0.585-0.305,0.69C221.751,478.958,221.464,479.011,221.096,479.011 M218.333,478.209h2.56
		c-0.034-0.483-0.164-0.845-0.39-1.084c-0.226-0.24-0.523-0.359-0.892-0.359c-0.352,0-0.641,0.121-0.867,0.364
		S218.381,477.733,218.333,478.209"/>
	<path display="inline" clip-path="url(#SVGID_10_)" fill="#191919" d="M226.852,480.728v-0.14
		c-0.189,0.217-0.376,0.394-0.561,0.529c-0.184,0.138-0.384,0.24-0.6,0.312c-0.215,0.071-0.45,0.105-0.705,0.105
		c-0.339,0-0.652-0.07-0.939-0.214c-0.288-0.143-0.538-0.348-0.748-0.613c-0.211-0.266-0.37-0.577-0.478-0.937
		c-0.109-0.359-0.163-0.746-0.163-1.163c0-0.883,0.215-1.572,0.646-2.064c0.431-0.492,0.999-0.739,1.702-0.739
		c0.407,0,0.75,0.07,1.029,0.209c0.28,0.14,0.552,0.354,0.817,0.644v-2.084c0-0.29,0.058-0.509,0.174-0.656
		c0.115-0.149,0.28-0.224,0.494-0.224s0.378,0.069,0.494,0.205c0.115,0.136,0.173,0.336,0.173,0.603v6.228
		c0,0.27-0.062,0.471-0.186,0.605s-0.284,0.201-0.481,0.201c-0.193,0-0.353-0.069-0.479-0.209S226.852,480.986,226.852,480.728
		 M224.075,478.653c0,0.383,0.059,0.708,0.178,0.979c0.119,0.269,0.282,0.471,0.49,0.606c0.206,0.138,0.432,0.205,0.677,0.205
		c0.248,0,0.475-0.064,0.68-0.193c0.205-0.13,0.369-0.328,0.491-0.596c0.123-0.267,0.184-0.602,0.184-1.001
		c0-0.376-0.061-0.698-0.184-0.971c-0.122-0.27-0.288-0.477-0.496-0.62c-0.209-0.143-0.437-0.214-0.686-0.214
		c-0.258,0-0.489,0.073-0.693,0.22c-0.203,0.146-0.361,0.356-0.473,0.63C224.13,477.974,224.075,478.292,224.075,478.653"/>
	<path display="inline" clip-path="url(#SVGID_10_)" fill="#191919" d="M232.624,474.5v2.156c0.265-0.275,0.536-0.487,0.812-0.633
		c0.276-0.146,0.617-0.221,1.024-0.221c0.469,0,0.88,0.112,1.234,0.333c0.353,0.225,0.627,0.546,0.822,0.968
		c0.195,0.423,0.293,0.925,0.293,1.504c0,0.428-0.055,0.818-0.163,1.177c-0.109,0.356-0.267,0.666-0.474,0.928
		s-0.457,0.465-0.752,0.608c-0.295,0.143-0.62,0.215-0.975,0.215c-0.218,0-0.422-0.026-0.613-0.078
		c-0.192-0.052-0.355-0.119-0.489-0.204c-0.134-0.084-0.249-0.172-0.344-0.261c-0.095-0.09-0.22-0.226-0.375-0.404v0.14
		c0,0.266-0.064,0.467-0.192,0.604c-0.127,0.136-0.289,0.204-0.486,0.204c-0.2,0-0.359-0.068-0.478-0.204
		c-0.119-0.137-0.179-0.338-0.179-0.604v-6.167c0-0.285,0.058-0.502,0.173-0.647c0.116-0.147,0.278-0.22,0.484-0.22
		c0.218,0,0.385,0.069,0.502,0.209C232.565,474.042,232.624,474.241,232.624,474.5 M232.691,478.695
		c0,0.562,0.128,0.994,0.385,1.295c0.257,0.302,0.594,0.454,1.012,0.454c0.355,0,0.661-0.155,0.918-0.464
		c0.256-0.31,0.385-0.75,0.385-1.326c0-0.373-0.053-0.694-0.16-0.963c-0.107-0.27-0.259-0.478-0.455-0.623
		c-0.197-0.146-0.426-0.221-0.688-0.221c-0.269,0-0.509,0.074-0.719,0.221c-0.211,0.146-0.376,0.358-0.497,0.636
		S232.691,478.312,232.691,478.695"/>
	<path display="inline" clip-path="url(#SVGID_10_)" fill="#191919" d="M238.64,481.711l0.129-0.316l-1.738-4.376
		c-0.106-0.251-0.16-0.434-0.16-0.548c0-0.121,0.031-0.233,0.093-0.336c0.062-0.104,0.147-0.188,0.256-0.248
		c0.108-0.063,0.221-0.094,0.339-0.094c0.203,0,0.356,0.064,0.46,0.193s0.195,0.315,0.274,0.557l1.195,3.476l1.133-3.232
		c0.09-0.262,0.171-0.468,0.243-0.615c0.073-0.149,0.149-0.249,0.23-0.3c0.081-0.053,0.196-0.078,0.344-0.078
		c0.108,0,0.21,0.027,0.308,0.086c0.098,0.057,0.174,0.133,0.228,0.229c0.053,0.097,0.08,0.198,0.08,0.306
		c-0.014,0.064-0.036,0.157-0.067,0.279c-0.032,0.12-0.069,0.243-0.114,0.366l-1.841,4.822c-0.159,0.424-0.314,0.756-0.466,0.997
		c-0.152,0.242-0.353,0.428-0.603,0.557c-0.25,0.13-0.587,0.194-1.011,0.194c-0.414,0-0.724-0.045-0.931-0.134
		c-0.207-0.092-0.31-0.254-0.31-0.492c0-0.162,0.048-0.287,0.147-0.375c0.098-0.088,0.244-0.132,0.437-0.132
		c0.076,0,0.15,0.01,0.223,0.03c0.089,0.021,0.167,0.031,0.232,0.031c0.162,0,0.29-0.023,0.383-0.073
		c0.093-0.047,0.177-0.131,0.251-0.251C238.458,482.117,238.542,481.941,238.64,481.711"/>
	<path display="inline" clip-path="url(#SVGID_10_)" fill="#191919" d="M259.097,475.915h0.337v-0.424
		c0-0.443,0.054-0.793,0.167-1.055c0.111-0.262,0.302-0.45,0.57-0.569c0.267-0.118,0.633-0.178,1.098-0.178
		c0.828,0,1.238,0.199,1.238,0.606c0,0.13-0.043,0.242-0.131,0.335c-0.084,0.092-0.188,0.14-0.305,0.14
		c-0.054,0-0.15-0.011-0.286-0.032c-0.13-0.019-0.246-0.03-0.34-0.03c-0.255,0-0.418,0.076-0.492,0.227
		c-0.07,0.149-0.107,0.363-0.107,0.645v0.336h0.345c0.54,0,0.808,0.162,0.808,0.488c0,0.228-0.069,0.376-0.215,0.438
		c-0.143,0.063-0.34,0.094-0.593,0.094h-0.345v3.741c0,0.278-0.065,0.49-0.201,0.637c-0.131,0.148-0.301,0.221-0.513,0.221
		c-0.2,0-0.365-0.072-0.5-0.221c-0.133-0.146-0.198-0.358-0.198-0.637v-3.741h-0.389c-0.212,0-0.372-0.047-0.487-0.144
		c-0.114-0.093-0.171-0.217-0.171-0.369C258.387,476.083,258.624,475.915,259.097,475.915"/>
	<path display="inline" clip-path="url(#SVGID_10_)" fill="#191919" d="M263.72,479.495v1.182c0,0.285-0.071,0.5-0.204,0.642
		c-0.134,0.146-0.304,0.215-0.51,0.215c-0.208,0-0.375-0.07-0.505-0.218c-0.129-0.144-0.196-0.356-0.196-0.639v-3.935
		c0-0.635,0.229-0.952,0.687-0.952c0.236,0,0.405,0.073,0.509,0.223c0.103,0.148,0.16,0.367,0.173,0.658
		c0.167-0.291,0.34-0.51,0.517-0.658c0.181-0.149,0.414-0.223,0.713-0.223s0.584,0.073,0.863,0.223
		c0.28,0.148,0.42,0.347,0.42,0.591c0,0.171-0.06,0.316-0.178,0.425c-0.12,0.114-0.247,0.17-0.384,0.17
		c-0.055,0-0.181-0.034-0.378-0.098c-0.198-0.063-0.374-0.094-0.524-0.094c-0.207,0-0.377,0.056-0.507,0.162
		c-0.132,0.111-0.234,0.271-0.308,0.482c-0.07,0.215-0.119,0.471-0.148,0.765C263.732,478.712,263.72,479.071,263.72,479.495"/>
	<path display="inline" clip-path="url(#SVGID_10_)" fill="#191919" d="M270.212,479.01h-2.763c0.005,0.319,0.067,0.604,0.192,0.849
		c0.128,0.243,0.294,0.428,0.504,0.554c0.209,0.123,0.438,0.186,0.691,0.186c0.169,0,0.322-0.019,0.462-0.062
		c0.139-0.038,0.275-0.101,0.406-0.186c0.132-0.083,0.251-0.173,0.361-0.272c0.11-0.095,0.254-0.226,0.431-0.391
		c0.072-0.063,0.177-0.095,0.31-0.095c0.146,0,0.262,0.039,0.354,0.12c0.091,0.08,0.133,0.191,0.133,0.336
		c0,0.129-0.049,0.276-0.146,0.446c-0.102,0.173-0.252,0.336-0.455,0.494c-0.204,0.155-0.457,0.287-0.761,0.388
		c-0.305,0.104-0.657,0.156-1.052,0.156c-0.91,0-1.615-0.257-2.117-0.773c-0.503-0.52-0.758-1.222-0.758-2.107
		c0-0.417,0.063-0.805,0.188-1.162c0.123-0.359,0.305-0.663,0.544-0.919c0.238-0.257,0.529-0.451,0.879-0.588
		c0.348-0.135,0.733-0.203,1.158-0.203c0.552,0,1.025,0.116,1.42,0.351c0.395,0.231,0.693,0.532,0.888,0.901
		c0.196,0.371,0.295,0.745,0.295,1.13c0,0.354-0.104,0.583-0.307,0.689C270.867,478.956,270.582,479.01,270.212,479.01
		 M267.449,478.206h2.56c-0.034-0.481-0.162-0.844-0.388-1.082c-0.229-0.241-0.523-0.358-0.895-0.358
		c-0.351,0-0.641,0.119-0.867,0.363C267.635,477.372,267.496,477.73,267.449,478.206"/>
	<path display="inline" clip-path="url(#SVGID_10_)" fill="#191919" d="M276.087,479.01h-2.763c0.003,0.319,0.068,0.604,0.193,0.849
		c0.126,0.243,0.294,0.428,0.502,0.554c0.208,0.123,0.438,0.186,0.691,0.186c0.168,0,0.323-0.019,0.46-0.062
		c0.142-0.038,0.276-0.101,0.409-0.186c0.132-0.083,0.25-0.173,0.361-0.272c0.108-0.095,0.253-0.226,0.429-0.391
		c0.074-0.063,0.178-0.095,0.31-0.095c0.146,0,0.264,0.039,0.354,0.12c0.09,0.08,0.131,0.191,0.131,0.336
		c0,0.129-0.047,0.276-0.148,0.446c-0.097,0.173-0.248,0.336-0.452,0.494c-0.202,0.155-0.457,0.287-0.761,0.388
		c-0.304,0.104-0.657,0.156-1.054,0.156c-0.907,0-1.611-0.257-2.116-0.773c-0.503-0.52-0.757-1.222-0.757-2.107
		c0-0.417,0.064-0.805,0.19-1.162c0.123-0.359,0.304-0.663,0.542-0.919c0.236-0.257,0.529-0.451,0.879-0.588
		c0.348-0.135,0.736-0.203,1.16-0.203c0.549,0,1.021,0.116,1.423,0.351c0.392,0.231,0.688,0.532,0.883,0.901
		c0.196,0.371,0.297,0.745,0.297,1.13c0,0.354-0.104,0.583-0.306,0.689C276.741,478.956,276.455,479.01,276.087,479.01
		 M273.324,478.206h2.56c-0.033-0.481-0.165-0.844-0.389-1.082c-0.229-0.241-0.524-0.358-0.895-0.358
		c-0.352,0-0.641,0.119-0.867,0.363C273.508,477.372,273.37,477.73,273.324,478.206"/>
	<path display="inline" clip-path="url(#SVGID_10_)" fill="#191919" d="M279.18,476.585v0.169c0.266-0.327,0.543-0.567,0.83-0.722
		c0.283-0.154,0.609-0.231,0.972-0.231c0.433,0,0.836,0.112,1.202,0.336c0.364,0.225,0.652,0.553,0.864,0.983
		c0.213,0.434,0.319,0.942,0.319,1.532c0,0.434-0.061,0.834-0.183,1.199c-0.121,0.364-0.292,0.668-0.506,0.915
		c-0.215,0.245-0.466,0.436-0.757,0.569c-0.295,0.132-0.604,0.197-0.94,0.197c-0.402,0-0.743-0.081-1.017-0.244
		c-0.273-0.158-0.535-0.398-0.785-0.711v2.12c0,0.619-0.226,0.933-0.677,0.933c-0.267,0-0.44-0.08-0.529-0.24
		c-0.082-0.163-0.128-0.395-0.128-0.703v-6.096c0-0.271,0.059-0.469,0.176-0.604c0.117-0.13,0.277-0.198,0.481-0.198
		c0.201,0,0.362,0.068,0.487,0.203C279.118,476.133,279.18,476.326,279.18,476.585 M281.949,478.637c0-0.373-0.058-0.693-0.171-0.96
		c-0.114-0.269-0.272-0.473-0.472-0.614c-0.2-0.143-0.427-0.216-0.672-0.216c-0.389,0-0.718,0.155-0.984,0.459
		c-0.269,0.309-0.403,0.76-0.403,1.357c0,0.56,0.133,0.998,0.401,1.312c0.265,0.312,0.591,0.467,0.986,0.467
		c0.233,0,0.452-0.068,0.652-0.203c0.202-0.137,0.362-0.341,0.481-0.612C281.889,479.352,281.949,479.022,281.949,478.637"/>
	<path display="inline" clip-path="url(#SVGID_10_)" fill="#191919" d="M284.79,475.133c-0.198,0-0.365-0.063-0.503-0.183
		c-0.141-0.12-0.211-0.29-0.211-0.51c0-0.201,0.071-0.365,0.216-0.496c0.142-0.128,0.308-0.193,0.498-0.193
		c0.185,0,0.346,0.058,0.486,0.174c0.142,0.119,0.213,0.291,0.213,0.516c0,0.217-0.069,0.387-0.206,0.509
		C285.146,475.07,284.981,475.133,284.79,475.133 M285.489,476.592v4.086c0,0.281-0.068,0.494-0.202,0.638
		c-0.136,0.147-0.305,0.218-0.512,0.218c-0.208,0-0.373-0.072-0.506-0.221c-0.127-0.151-0.193-0.362-0.193-0.635v-4.046
		c0-0.277,0.066-0.487,0.193-0.628c0.133-0.145,0.298-0.213,0.506-0.213c0.207,0,0.376,0.068,0.512,0.213
		C285.421,476.145,285.489,476.343,285.489,476.592"/>
	<path display="inline" clip-path="url(#SVGID_10_)" fill="#191919" d="M290.042,480.889l-1.244-2.051l-0.767,0.724v1.124
		c0,0.272-0.072,0.481-0.217,0.626c-0.14,0.149-0.308,0.223-0.492,0.223c-0.218,0-0.391-0.072-0.514-0.218
		c-0.123-0.145-0.187-0.358-0.187-0.641v-6.024c0-0.313,0.062-0.552,0.18-0.716c0.122-0.166,0.297-0.246,0.521-0.246
		c0.217,0,0.388,0.074,0.517,0.224c0.127,0.147,0.192,0.367,0.192,0.655v3.427l1.588-1.668c0.196-0.204,0.345-0.35,0.45-0.424
		c0.104-0.075,0.229-0.113,0.375-0.113c0.179,0,0.323,0.057,0.444,0.168c0.115,0.112,0.175,0.254,0.175,0.421
		c0,0.207-0.192,0.484-0.574,0.829l-0.75,0.688l1.448,2.277c0.105,0.17,0.185,0.296,0.23,0.384c0.046,0.087,0.071,0.175,0.071,0.252
		c0,0.226-0.063,0.4-0.186,0.531c-0.123,0.129-0.286,0.193-0.483,0.193c-0.172,0-0.307-0.045-0.398-0.141
		C290.329,481.3,290.2,481.131,290.042,480.889"/>
	<path display="inline" clip-path="url(#SVGID_10_)" fill="#191919" d="M293.111,481.533c-0.213,0-0.396-0.068-0.552-0.207
		c-0.155-0.136-0.234-0.329-0.234-0.579c0-0.211,0.075-0.393,0.224-0.542c0.149-0.152,0.331-0.229,0.549-0.229
		c0.217,0,0.4,0.076,0.557,0.224c0.152,0.15,0.229,0.334,0.229,0.547c0,0.245-0.077,0.439-0.229,0.576
		C293.498,481.465,293.317,481.533,293.111,481.533"/>
	<path display="inline" clip-path="url(#SVGID_10_)" fill="#191919" d="M300.136,479.785c0,0.174-0.053,0.364-0.158,0.563
		c-0.104,0.202-0.266,0.391-0.482,0.571c-0.216,0.182-0.485,0.328-0.814,0.438c-0.327,0.11-0.697,0.167-1.106,0.167
		c-0.875,0-1.557-0.256-2.046-0.764c-0.487-0.51-0.732-1.192-0.732-2.047c0-0.581,0.11-1.094,0.337-1.538
		c0.222-0.444,0.547-0.789,0.97-1.032c0.424-0.244,0.935-0.364,1.522-0.364c0.367,0,0.701,0.053,1.009,0.16
		c0.305,0.107,0.562,0.246,0.776,0.413c0.21,0.172,0.372,0.351,0.483,0.541c0.113,0.19,0.168,0.371,0.168,0.538
		s-0.062,0.311-0.187,0.428c-0.128,0.117-0.281,0.177-0.457,0.177c-0.119,0-0.216-0.03-0.295-0.091
		c-0.078-0.061-0.166-0.158-0.261-0.295c-0.173-0.26-0.352-0.458-0.543-0.587c-0.186-0.133-0.425-0.198-0.715-0.198
		c-0.415,0-0.754,0.162-1.009,0.489c-0.255,0.324-0.383,0.772-0.383,1.337c0,0.265,0.034,0.511,0.099,0.733
		c0.064,0.222,0.159,0.411,0.284,0.568c0.125,0.156,0.274,0.275,0.449,0.356c0.177,0.084,0.371,0.123,0.58,0.123
		c0.283,0,0.525-0.065,0.728-0.196c0.204-0.131,0.382-0.331,0.537-0.601c0.086-0.158,0.178-0.281,0.277-0.372
		c0.099-0.089,0.223-0.136,0.368-0.136c0.172,0,0.315,0.067,0.428,0.197C300.078,479.497,300.136,479.639,300.136,479.785"/>
	<path display="inline" clip-path="url(#SVGID_10_)" fill="#191919" d="M306.23,478.663c0,0.419-0.067,0.809-0.194,1.165
		c-0.134,0.355-0.322,0.66-0.571,0.914c-0.248,0.255-0.546,0.451-0.889,0.588c-0.348,0.135-0.735,0.204-1.165,0.204
		c-0.427,0-0.813-0.069-1.155-0.208c-0.339-0.136-0.638-0.335-0.886-0.589c-0.251-0.26-0.44-0.564-0.572-0.914
		c-0.125-0.35-0.19-0.737-0.19-1.16c0-0.428,0.066-0.82,0.194-1.175c0.133-0.357,0.321-0.66,0.566-0.911
		c0.246-0.252,0.541-0.446,0.888-0.583c0.351-0.136,0.735-0.204,1.155-0.204c0.427,0,0.816,0.068,1.165,0.208
		c0.347,0.137,0.644,0.334,0.895,0.588c0.249,0.258,0.438,0.561,0.566,0.91C306.165,477.852,306.23,478.237,306.23,478.663
		 M304.813,478.663c0-0.577-0.128-1.023-0.38-1.345c-0.253-0.324-0.595-0.483-1.021-0.483c-0.276,0-0.52,0.072-0.731,0.214
		c-0.211,0.144-0.37,0.354-0.484,0.635c-0.113,0.279-0.171,0.606-0.171,0.979c0,0.37,0.055,0.69,0.168,0.966
		c0.112,0.278,0.273,0.489,0.482,0.636c0.21,0.145,0.454,0.22,0.736,0.22c0.427,0,0.769-0.161,1.021-0.486
		C304.685,479.677,304.813,479.23,304.813,478.663"/>
	<path display="inline" clip-path="url(#SVGID_10_)" fill="#191919" d="M311.617,478.767v1.877c0,0.299-0.065,0.519-0.201,0.668
		s-0.311,0.224-0.532,0.224c-0.214,0-0.389-0.074-0.518-0.224c-0.135-0.149-0.203-0.369-0.203-0.668v-2.25
		c0-0.355-0.011-0.633-0.035-0.83c-0.024-0.192-0.091-0.356-0.196-0.48c-0.107-0.128-0.277-0.191-0.508-0.191
		c-0.463,0-0.766,0.158-0.913,0.479c-0.146,0.313-0.221,0.77-0.221,1.366v1.906c0,0.293-0.066,0.516-0.197,0.666
		c-0.136,0.149-0.309,0.226-0.525,0.226c-0.215,0-0.391-0.076-0.526-0.226c-0.137-0.15-0.205-0.373-0.205-0.666v-4.041
		c0-0.266,0.062-0.468,0.184-0.604c0.125-0.141,0.285-0.208,0.483-0.208c0.194,0,0.355,0.066,0.486,0.194
		c0.128,0.13,0.193,0.308,0.193,0.535v0.134c0.246-0.291,0.509-0.508,0.785-0.644c0.282-0.141,0.591-0.21,0.934-0.21
		c0.354,0,0.66,0.072,0.914,0.213c0.256,0.142,0.465,0.356,0.632,0.641c0.239-0.287,0.495-0.502,0.768-0.644
		c0.272-0.139,0.573-0.21,0.905-0.21c0.384,0,0.72,0.078,0.999,0.229c0.277,0.15,0.486,0.369,0.625,0.65
		c0.12,0.257,0.179,0.658,0.179,1.207v2.757c0,0.299-0.065,0.519-0.198,0.668c-0.135,0.149-0.314,0.224-0.534,0.224
		c-0.215,0-0.39-0.076-0.525-0.226c-0.137-0.15-0.205-0.373-0.205-0.666v-2.375c0-0.305-0.013-0.547-0.038-0.729
		c-0.024-0.185-0.096-0.338-0.208-0.461c-0.115-0.124-0.289-0.188-0.52-0.188c-0.187,0-0.362,0.059-0.53,0.167
		c-0.167,0.108-0.298,0.261-0.392,0.443C311.671,477.741,311.617,478.162,311.617,478.767"/>
	<polyline display="inline" clip-path="url(#SVGID_10_)" fill="#191919" points="245.88,478.321 245.879,478.312 245.88,478.321 	
		"/>
	<path display="inline" clip-path="url(#SVGID_10_)" fill="#191919" d="M245.951,478.772h0.002
		c-0.028-0.129-0.049-0.256-0.065-0.382C245.904,478.518,245.925,478.646,245.951,478.772"/>
	<path display="inline" clip-path="url(#SVGID_10_)" fill="#191919" d="M246.419,480.083c-0.003-0.005-0.006-0.012-0.009-0.018
		C246.413,480.071,246.416,480.078,246.419,480.083"/>
	<path display="inline" clip-path="url(#SVGID_10_)" fill="#191919" d="M246.374,479.996c-0.012-0.024-0.024-0.049-0.036-0.073
		C246.35,479.949,246.362,479.972,246.374,479.996"/>
	<path display="inline" clip-path="url(#SVGID_10_)" fill="#191919" d="M246.083,479.277c0.069,0.218,0.152,0.429,0.249,0.631
		c-0.098-0.206-0.18-0.418-0.247-0.631H246.083z"/>
	<path display="inline" clip-path="url(#SVGID_10_)" fill="#191919" d="M251.347,472.909c0.272,0,0.474,0.022,0.705,0.062
		l0.065-0.416c0,0-0.638-0.196-1.476-0.127l-0.066-0.227c0.261-0.055,0.456-0.286,0.456-0.563c0-0.317-0.258-0.574-0.575-0.574
		s-0.576,0.257-0.576,0.574c0,0.277,0.195,0.509,0.457,0.563l0.071,0.252c-0.89,0.122-1.598,0.47-1.598,0.47l0.125,0.384
		c0.539-0.179,1.006-0.288,1.429-0.334C250.779,472.929,251.092,472.909,251.347,472.909"/>
	<path display="inline" clip-path="url(#SVGID_10_)" fill="#191919" d="M246.408,475.011l0.003-0.004
		c0.021-0.026,0.041-0.053,0.062-0.078l-0.17-0.123l-0.266-0.193c-0.015,0.021-0.433,0.404-0.763,1.114
		c-0.014-0.021-0.031-0.044-0.049-0.064c-0.099-0.108-0.238-0.163-0.413-0.16h-0.008c-0.109,0-0.184-0.036-0.233-0.08
		c0.049-0.062,0.078-0.139,0.078-0.225c0-0.2-0.163-0.364-0.364-0.364s-0.364,0.164-0.364,0.364c0,0.202,0.163,0.363,0.364,0.363
		c0.031,0,0.061-0.005,0.091-0.011c0.089,0.101,0.231,0.187,0.439,0.183c0.108-0.001,0.186,0.026,0.239,0.085
		c0.06,0.065,0.081,0.16,0.087,0.232c-0.001,0.001-0.001,0.002-0.002,0.002c-0.237,0.648-0.169,1.454-0.169,1.454l0.575,0.023
		c0.012-0.293,0.054-0.808,0.203-1.214C246.034,475.525,246.393,475.032,246.408,475.011"/>
	<path display="inline" clip-path="url(#SVGID_10_)" fill="#191919" d="M256.356,473.391c-0.201,0-0.364,0.163-0.364,0.364
		c0,0.032,0.005,0.062,0.013,0.09c-0.101,0.091-0.187,0.233-0.184,0.442c0.002,0.106-0.025,0.185-0.084,0.237
		c-0.046,0.041-0.104,0.063-0.161,0.076c-0.429-0.601-0.956-0.967-0.956-0.967l-0.413,0.443c0.312,0.284,0.632,0.64,0.941,1.084
		c0.214,0.307,0.436,0.703,0.618,1.097l0.558-0.265c0,0-0.255-0.629-0.612-1.193c0.062-0.021,0.125-0.056,0.18-0.104
		c0.109-0.099,0.163-0.238,0.16-0.413c-0.001-0.113,0.036-0.19,0.081-0.24c0.062,0.047,0.139,0.078,0.224,0.078
		c0.202,0,0.365-0.164,0.365-0.365S256.559,473.391,256.356,473.391"/>
	<path display="inline" clip-path="url(#SVGID_10_)" fill="#191919" d="M254.909,478.402c-0.767,0.374-2.03,0.868-3.692,1.101
		c-0.653,0.09-1.285,0.124-1.867,0.124c-0.758,0-1.427-0.058-1.94-0.121c-0.587-0.074-1.045-0.165-1.325-0.229
		c0.067,0.213,0.149,0.425,0.247,0.631c0.002,0.005,0.004,0.012,0.007,0.016c0.012,0.023,0.023,0.049,0.036,0.071
		c0.011,0.024,0.023,0.049,0.035,0.07c0.003,0.006,0.006,0.012,0.009,0.019c0.165,0.31,0.363,0.596,0.589,0.843
		c0.784,0.857,1.583,0.994,1.591,0.995l0.012,0.001l0.012,0.005c0.007,0.002,0.715,0.23,1.792,0.23c1.061,0,2.101-0.214,3.091-0.636
		c0.733-0.375,1.428-0.945,1.772-1.454c0.266-0.393,0.457-0.813,0.571-1.249c0.061-0.231,0.108-0.603,0.081-0.994
		C255.714,477.971,255.371,478.178,254.909,478.402"/>
	<path display="inline" clip-path="url(#SVGID_10_)" fill="#191919" d="M246.654,475.193c-0.022,0.031-0.355,0.504-0.618,1.227
		c-0.197,0.542-0.188,1.331-0.188,1.34v0.001c0,0.186,0.01,0.369,0.031,0.551c0,0.004,0,0.008,0.001,0.01
		c0.002,0.023,0.006,0.046,0.008,0.068c0.017,0.127,0.037,0.254,0.065,0.383c0.381,0.098,2.656,0.627,5.2,0.273
		c1.594-0.222,2.804-0.693,3.539-1.049c0.61-0.296,1.003-0.564,1.155-0.675c-0.151-0.561-0.568-1.438-0.949-1.985
		c-1.092-1.561-2.271-1.961-2.875-2.061c-0.23-0.038-0.415-0.06-0.678-0.06c-0.242,0-0.545,0.02-0.948,0.063
		c-0.405,0.042-0.856,0.147-1.379,0.323c-0.734,0.246-1.398,0.633-1.921,1.116l-0.018,0.017
		C247.002,474.806,246.84,474.956,246.654,475.193 M253.337,474.83c0.523,0,0.949,0.425,0.949,0.949
		c0,0.523-0.426,0.949-0.949,0.949s-0.948-0.426-0.948-0.949C252.389,475.255,252.813,474.83,253.337,474.83 M248.848,474.792
		c0.848,0,1.534,0.687,1.534,1.534s-0.686,1.533-1.534,1.533c-0.847,0-1.534-0.686-1.534-1.533S248.001,474.792,248.848,474.792"/>
</g>
</svg>
