<?xml version="1.0" encoding="utf-8"?>
<!-- Generator: Adobe Illustrator 16.0.0, SVG Export Plug-In . SVG Version: 6.00 Build 0)  -->
<!DOCTYPE svg PUBLIC "-//W3C//DTD SVG 1.1//EN" "http://www.w3.org/Graphics/SVG/1.1/DTD/svg11.dtd">
<svg version="1.1" xmlns="http://www.w3.org/2000/svg" xmlns:xlink="http://www.w3.org/1999/xlink" x="0px" y="0px" width="750px"
	 height="500px" viewBox="0 0 750 500" enable-background="new 0 0 750 500" xml:space="preserve">
<g id="BACKGROUND" display="none">
	<rect display="inline" fill="#F5F2F0" width="750" height="500"/>
</g>
<g id="OBJECTS">
	<g>
		<g>
			<g>
				<g>
					<g>
						<g>
							<path fill="#004243" d="M673.976,425.275c-1.009,0.555-1.613,0.874-1.613,0.874s-0.944-31.799,6.326-38.908
								c2.409-2.356,5.321-4.305,7.024-7.213c2.527-4.315,1.852-9.741,3.142-14.573c2.36-8.845,11.241-14.714,20.258-16.301
								c9.017-1.586,18.242,0.278,27.206,2.137c-2.199,0.039-4.219,0.898-5.94,2.242
								C701.235,365.241,686.473,396.44,673.976,425.275z"/>
							<path fill="#00796C" d="M730.378,353.533c-2.134,1.666-3.81,4.079-4.792,6.622c-1.775,4.595-1.859,9.636-2.488,14.521
								c-0.629,4.886-1.998,10.003-5.636,13.323c-3.563,3.251-8.731,4.25-12.35,7.439c-3.791,3.341-5.282,8.503-7.767,12.904
								c-3.091,5.475-18.349,14.174-23.37,16.933C686.473,396.44,701.235,365.241,730.378,353.533z"/>
							<path fill="#002B2B" d="M670.016,444.804c5.26-25.714,16.709-50.003,33.537-70.485c1.218-1.482-1.273-3.114-2.478-1.649
								c-17.169,20.898-28.833,45.815-34.112,72.135H670.016z"/>
						</g>
					</g>
					<g>
						<g>
							<path fill="#00796C" d="M648.083,437.843c0.787,0.469,1.259,0.74,1.259,0.74s1.637-25.258-3.946-31.113
								c-1.851-1.941-4.111-3.571-5.385-5.931c-1.89-3.502-1.201-7.797-2.092-11.675c-1.631-7.099-8.529-12.013-15.654-13.525
								s-14.513-0.286-21.692,0.941c1.748,0.092,3.33,0.831,4.661,1.948C628.081,389.35,638.95,414.568,648.083,437.843z"/>
							<path fill="#004243" d="M605.234,379.229c1.65,1.385,2.916,3.35,3.626,5.398c1.284,3.703,1.21,7.714,1.574,11.615
								c0.364,3.902,1.311,8.009,4.111,10.75c2.741,2.685,6.823,3.623,9.612,6.26c2.921,2.762,3.963,6.908,5.815,10.477
								c2.306,4.439,14.195,11.781,18.11,14.114C638.95,414.568,628.081,389.35,605.234,379.229z"/>
							<path fill="#002B2B" d="M649.699,444.804h2.461c-5.231-19.633-14.975-37.99-28.583-53.295
								c-1.002-1.127-2.933,0.247-1.918,1.389C634.958,407.855,644.502,425.692,649.699,444.804z"/>
						</g>
					</g>
					<g>
						<g>
							<path fill="#004243" d="M656.304,404.099c-0.921,1.022-1.479,1.622-1.479,1.622s-13.579-35.545-8.164-46.437
								c1.794-3.609,4.316-6.956,5.097-10.91c1.156-5.869-1.741-11.731-2.186-17.697c-0.813-10.919,6.908-21.043,16.468-26.383
								c9.561-5.339,20.715-6.862,31.571-8.291c-2.469,0.909-4.412,2.674-5.828,4.87
								C663.472,325.565,659.074,366.613,656.304,404.099z"/>
							<path fill="#00796C" d="M691.784,300.874c-1.754,2.722-2.698,6.106-2.808,9.365c-0.198,5.888,1.691,11.614,2.903,17.38
								s1.679,12.084-1.124,17.267c-2.745,5.073-8.19,8.236-11.022,13.262c-2.967,5.266-2.62,11.683-3.694,17.631
								c-1.337,7.4-15.148,23.229-19.734,28.321C659.074,366.613,663.472,325.565,691.784,300.874z"/>
							<path fill="#002B2B" d="M660.448,444.804c-7.588-39.315-2.826-80.362,13.824-117c0.95-2.09-2.434-3.205-3.371-1.141
								c-16.779,36.92-21.619,78.462-14.079,118.141H660.448z"/>
						</g>
					</g>
				</g>
			</g>
			<g>
				<g>
					<g>
						<g>
							<path fill="#004243" d="M93.613,428.696c-0.832,0.457-1.331,0.721-1.331,0.721s-0.779-26.229,5.217-32.093
								c1.987-1.943,4.389-3.551,5.794-5.949c2.085-3.56,1.528-8.034,2.591-12.021c1.948-7.295,9.273-12.137,16.71-13.445
								s15.046,0.229,22.44,1.763c-1.814,0.032-3.479,0.74-4.9,1.85C116.097,379.178,103.921,404.912,93.613,428.696z"/>
							<path fill="#00796C" d="M140.135,369.521c-1.76,1.374-3.142,3.364-3.953,5.462c-1.465,3.789-1.534,7.947-2.052,11.977
								c-0.519,4.03-1.648,8.251-4.649,10.989c-2.938,2.682-7.202,3.506-10.187,6.137c-3.127,2.756-4.357,7.014-6.406,10.644
								c-2.549,4.517-15.135,11.691-19.276,13.967C103.921,404.912,116.097,379.178,140.135,369.521z"/>
							<path fill="#002B2B" d="M90.346,444.804c4.339-21.209,13.782-41.244,27.663-58.139c1.005-1.223-1.051-2.568-2.043-1.36
								c-14.162,17.238-23.783,37.79-28.137,59.499H90.346z"/>
						</g>
					</g>
					<g>
						<g>
							<path fill="#00796C" d="M72.256,439.063c0.649,0.387,1.039,0.61,1.039,0.61s1.35-20.834-3.255-25.664
								c-1.526-1.601-3.391-2.945-4.441-4.892c-1.559-2.888-0.991-6.431-1.726-9.629c-1.346-5.855-7.035-9.909-12.912-11.156
								c-5.877-1.248-11.971-0.236-17.893,0.776c1.442,0.076,2.747,0.686,3.845,1.607C55.757,399.064,64.722,419.865,72.256,439.063
								z"/>
							<path fill="#004243" d="M36.912,390.716c1.361,1.142,2.405,2.763,2.991,4.452c1.06,3.055,0.998,6.362,1.298,9.581
								c0.301,3.219,1.081,6.605,3.391,8.867c2.262,2.214,5.628,2.988,7.928,5.162c2.41,2.278,3.269,5.698,4.797,8.642
								c1.901,3.662,11.708,9.718,14.938,11.643C64.722,419.865,55.757,399.064,36.912,390.716z"/>
							<path fill="#002B2B" d="M73.588,444.804h2.029c-4.315-16.194-12.351-31.335-23.576-43.959
								c-0.827-0.931-2.419,0.203-1.582,1.145C61.43,414.328,69.302,429.04,73.588,444.804z"/>
						</g>
					</g>
					<g>
						<g>
							<path fill="#004243" d="M79.036,411.229c-0.76,0.844-1.219,1.339-1.219,1.339s-11.2-29.319-6.734-38.303
								c1.48-2.978,3.561-5.737,4.204-8.999c0.954-4.841-1.436-9.677-1.803-14.597c-0.671-9.008,5.698-17.357,13.583-21.762
								s17.086-5.661,26.041-6.839c-2.037,0.75-3.639,2.205-4.807,4.017C84.949,346.452,81.321,380.309,79.036,411.229z"/>
							<path fill="#00796C" d="M108.301,326.085c-1.447,2.245-2.226,5.037-2.316,7.725c-0.163,4.857,1.395,9.58,2.395,14.336
								s1.385,9.967-0.927,14.241c-2.264,4.186-6.755,6.794-9.091,10.939c-2.448,4.344-2.162,9.637-3.047,14.543
								c-1.103,6.104-12.495,19.16-16.278,23.359C81.321,380.309,84.949,346.452,108.301,326.085z"/>
							<path fill="#002B2B" d="M82.454,444.804c-6.259-32.429-2.331-66.285,11.403-96.505c0.784-1.724-2.007-2.644-2.781-0.94
								c-13.839,30.452-17.832,64.717-11.612,97.445H82.454z"/>
						</g>
					</g>
				</g>
			</g>
			<path fill="#003E51" d="M715.775,448.853H34.225c-1.472,0-2.666-1.193-2.666-2.666l0,0c0-1.473,1.194-2.666,2.666-2.666h681.55
				c1.473,0,2.666,1.193,2.666,2.666l0,0C718.441,447.66,717.248,448.853,715.775,448.853z"/>
		</g>
		<g>
			<g>
				<g>
					<rect x="533.24" y="36.457" fill="#CFC5BC" width="172.941" height="172.941"/>
					<rect x="530.878" y="41.238" fill="#F6EFE1" width="172.94" height="164.82"/>
					<rect x="530.878" y="34.13" fill="#003E51" width="172.94" height="7.108"/>
				</g>
				<g>
					<circle fill="#F6EFE1" cx="675.798" cy="37.684" r="1.879"/>
					<circle fill="#F6EFE1" cx="686.97" cy="37.684" r="1.879"/>
					<circle fill="#F6EFE1" cx="698.142" cy="37.684" r="1.88"/>
				</g>
			</g>
			<g>
				<g>
					<g>
						<rect x="559.615" y="71.733" fill="#003E51" width="3.083" height="26.988"/>
					</g>
					<g>
						<rect x="555.375" y="63.574" fill="#72ABAE" width="3.083" height="35.147"/>
					</g>
					<g>
						<rect x="551.137" y="73.331" fill="#72ABAE" width="3.082" height="25.39"/>
					</g>
					<g>
						<rect x="546.898" y="81.043" fill="#003E51" width="3.083" height="17.678"/>
					</g>
					<g>
						<rect x="542.66" y="53.022" fill="#72ABAE" width="3.082" height="45.699"/>
					</g>
				</g>
				<g>
					<g>
						<rect x="565.934" y="62.941" fill="#72ABAE" width="3.082" height="35.78"/>
					</g>
					<g>
						<rect x="570.172" y="77.57" fill="#72ABAE" width="3.083" height="21.151"/>
					</g>
					<g>
						<rect x="574.412" y="87.294" fill="#003E51" width="3.082" height="11.427"/>
					</g>
					<g>
						<rect x="578.65" y="76.367" fill="#72ABAE" width="3.083" height="22.354"/>
					</g>
					<g>
						<rect x="582.889" y="72.25" fill="#72ABAE" width="3.082" height="26.471"/>
					</g>
				</g>
				<g>
					<g>
						<rect x="589.662" y="62.941" fill="#72ABAE" width="3.083" height="35.78"/>
					</g>
					<g>
						<rect x="593.901" y="77.57" fill="#72ABAE" width="3.083" height="21.151"/>
					</g>
					<g>
						<rect x="598.139" y="87.294" fill="#003E51" width="3.083" height="11.427"/>
					</g>
					<g>
						<rect x="602.378" y="76.367" fill="#72ABAE" width="3.083" height="22.354"/>
					</g>
					<g>
						<rect x="606.617" y="72.25" fill="#72ABAE" width="3.083" height="26.471"/>
					</g>
				</g>
				<g>
					<path fill="#424242" d="M609.809,102.418h-66.682c-0.67,0-1.212,0.542-1.212,1.212l0,0c0,0.669,0.542,1.212,1.212,1.212h66.682
						c0.67,0,1.212-0.543,1.212-1.212l0,0C611.021,102.961,610.479,102.418,609.809,102.418z"/>
					<path fill="#424242" d="M609.809,107.02h-66.682c-0.67,0-1.212,0.542-1.212,1.212l0,0c0,0.669,0.542,1.212,1.212,1.212h66.682
						c0.67,0,1.212-0.543,1.212-1.212l0,0C611.021,107.563,610.479,107.02,609.809,107.02z"/>
					<path fill="#424242" d="M592.047,112.833c0-0.669-0.543-1.212-1.212-1.212h-47.708c-0.67,0-1.212,0.542-1.212,1.212
						c0,0.669,0.542,1.212,1.212,1.212h47.708C591.504,114.045,592.047,113.502,592.047,112.833L592.047,112.833z"/>
				</g>
			</g>
			<g>
				<g>
					<g>
						<g>
							<rect x="672.436" y="71.733" fill="#003E51" width="3.083" height="26.988"/>
						</g>
						<g>
							<rect x="676.675" y="63.574" fill="#72ABAE" width="3.082" height="35.147"/>
						</g>
						<g>
							<rect x="680.914" y="73.331" fill="#72ABAE" width="3.083" height="25.39"/>
						</g>
						<g>
							<rect x="685.153" y="81.043" fill="#003E51" width="3.082" height="17.678"/>
						</g>
						<g>
							<rect x="689.391" y="53.022" fill="#72ABAE" width="3.083" height="45.699"/>
						</g>
					</g>
					<g>
						<g>
							<rect x="666.117" y="62.941" fill="#72ABAE" width="3.083" height="35.78"/>
						</g>
						<g>
							<rect x="661.878" y="77.57" fill="#72ABAE" width="3.083" height="21.151"/>
						</g>
						<g>
							<rect x="657.639" y="87.294" fill="#003E51" width="3.083" height="11.427"/>
						</g>
						<g>
							<rect x="653.401" y="76.367" fill="#72ABAE" width="3.082" height="22.354"/>
						</g>
						<g>
							<rect x="649.162" y="72.25" fill="#72ABAE" width="3.083" height="26.471"/>
						</g>
					</g>
					<g>
						<g>
							<rect x="642.389" y="62.941" fill="#72ABAE" width="3.082" height="35.78"/>
						</g>
						<g>
							<rect x="638.15" y="77.57" fill="#72ABAE" width="3.083" height="21.151"/>
						</g>
						<g>
							<rect x="633.911" y="87.294" fill="#003E51" width="3.083" height="11.427"/>
						</g>
						<g>
							<rect x="629.672" y="76.367" fill="#72ABAE" width="3.083" height="22.354"/>
						</g>
						<g>
							<rect x="625.434" y="72.25" fill="#72ABAE" width="3.082" height="26.471"/>
						</g>
					</g>
				</g>
				<g>
					<path fill="#424242" d="M692.583,102.418h-66.682c-0.67,0-1.212,0.542-1.212,1.212l0,0c0,0.669,0.542,1.212,1.212,1.212h66.682
						c0.67,0,1.212-0.543,1.212-1.212l0,0C693.795,102.961,693.253,102.418,692.583,102.418z"/>
					<path fill="#424242" d="M692.583,107.02h-66.682c-0.67,0-1.212,0.542-1.212,1.212l0,0c0,0.669,0.542,1.212,1.212,1.212h66.682
						c0.67,0,1.212-0.543,1.212-1.212l0,0C693.795,107.563,693.253,107.02,692.583,107.02z"/>
					<path fill="#424242" d="M674.822,112.833c0-0.669-0.543-1.212-1.212-1.212h-47.708c-0.67,0-1.212,0.542-1.212,1.212
						c0,0.669,0.542,1.212,1.212,1.212h47.708C674.279,114.045,674.822,113.502,674.822,112.833L674.822,112.833z"/>
				</g>
			</g>
			<g>
				<g>
					<g>
						<rect x="559.615" y="146.155" fill="#003E51" width="3.083" height="26.988"/>
					</g>
					<g>
						<rect x="555.375" y="137.997" fill="#72ABAE" width="3.083" height="35.147"/>
					</g>
					<g>
						<rect x="551.137" y="147.754" fill="#72ABAE" width="3.082" height="25.39"/>
					</g>
					<g>
						<rect x="546.898" y="155.466" fill="#003E51" width="3.083" height="17.677"/>
					</g>
					<g>
						<rect x="542.66" y="127.445" fill="#72ABAE" width="3.082" height="45.699"/>
					</g>
				</g>
				<g>
					<g>
						<rect x="565.934" y="137.364" fill="#72ABAE" width="3.082" height="35.78"/>
					</g>
					<g>
						<rect x="570.172" y="151.993" fill="#72ABAE" width="3.083" height="21.151"/>
					</g>
					<g>
						<rect x="574.412" y="161.717" fill="#003E51" width="3.082" height="11.426"/>
					</g>
					<g>
						<rect x="578.65" y="150.789" fill="#72ABAE" width="3.083" height="22.354"/>
					</g>
					<g>
						<rect x="582.889" y="146.673" fill="#72ABAE" width="3.082" height="26.471"/>
					</g>
				</g>
				<g>
					<g>
						<rect x="589.662" y="137.364" fill="#72ABAE" width="3.083" height="35.78"/>
					</g>
					<g>
						<rect x="593.901" y="151.993" fill="#72ABAE" width="3.083" height="21.151"/>
					</g>
					<g>
						<rect x="598.139" y="161.717" fill="#003E51" width="3.083" height="11.426"/>
					</g>
					<g>
						<rect x="602.378" y="150.789" fill="#72ABAE" width="3.083" height="22.354"/>
					</g>
					<g>
						<rect x="606.617" y="146.673" fill="#72ABAE" width="3.083" height="26.471"/>
					</g>
				</g>
				<g>
					<path fill="#424242" d="M609.809,176.841h-66.682c-0.67,0-1.212,0.543-1.212,1.212l0,0c0,0.669,0.542,1.212,1.212,1.212h66.682
						c0.67,0,1.212-0.542,1.212-1.212l0,0C611.021,177.384,610.479,176.841,609.809,176.841z"/>
					<path fill="#424242" d="M609.809,181.442h-66.682c-0.67,0-1.212,0.542-1.212,1.212l0,0c0,0.669,0.542,1.212,1.212,1.212h66.682
						c0.67,0,1.212-0.542,1.212-1.212l0,0C611.021,181.985,610.479,181.442,609.809,181.442z"/>
					<path fill="#424242" d="M592.047,187.256c0-0.669-0.543-1.212-1.212-1.212h-47.708c-0.67,0-1.212,0.542-1.212,1.212
						s0.542,1.212,1.212,1.212h47.708C591.504,188.468,592.047,187.925,592.047,187.256L592.047,187.256z"/>
				</g>
			</g>
			<g>
				<g>
					<g>
						<g>
							<rect x="672.436" y="146.155" fill="#003E51" width="3.083" height="26.988"/>
						</g>
						<g>
							<rect x="676.675" y="137.997" fill="#72ABAE" width="3.082" height="35.147"/>
						</g>
						<g>
							<rect x="680.914" y="147.754" fill="#72ABAE" width="3.083" height="25.39"/>
						</g>
						<g>
							<rect x="685.153" y="155.466" fill="#003E51" width="3.082" height="17.677"/>
						</g>
						<g>
							<rect x="689.391" y="127.445" fill="#72ABAE" width="3.083" height="45.699"/>
						</g>
					</g>
					<g>
						<g>
							<rect x="666.117" y="137.364" fill="#72ABAE" width="3.083" height="35.78"/>
						</g>
						<g>
							<rect x="661.878" y="151.993" fill="#72ABAE" width="3.083" height="21.151"/>
						</g>
						<g>
							<rect x="657.639" y="161.717" fill="#003E51" width="3.083" height="11.426"/>
						</g>
						<g>
							<rect x="653.401" y="150.789" fill="#72ABAE" width="3.082" height="22.354"/>
						</g>
						<g>
							<rect x="649.162" y="146.673" fill="#72ABAE" width="3.083" height="26.471"/>
						</g>
					</g>
					<g>
						<g>
							<rect x="642.389" y="137.364" fill="#72ABAE" width="3.082" height="35.78"/>
						</g>
						<g>
							<rect x="638.15" y="151.993" fill="#72ABAE" width="3.083" height="21.151"/>
						</g>
						<g>
							<rect x="633.911" y="161.717" fill="#003E51" width="3.083" height="11.426"/>
						</g>
						<g>
							<rect x="629.672" y="150.789" fill="#72ABAE" width="3.083" height="22.354"/>
						</g>
						<g>
							<rect x="625.434" y="146.673" fill="#72ABAE" width="3.082" height="26.471"/>
						</g>
					</g>
				</g>
				<g>
					<path fill="#424242" d="M692.583,176.841h-66.682c-0.67,0-1.212,0.543-1.212,1.212l0,0c0,0.669,0.542,1.212,1.212,1.212h66.682
						c0.67,0,1.212-0.542,1.212-1.212l0,0C693.795,177.384,693.253,176.841,692.583,176.841z"/>
					<path fill="#424242" d="M692.583,181.442h-66.682c-0.67,0-1.212,0.542-1.212,1.212l0,0c0,0.669,0.542,1.212,1.212,1.212h66.682
						c0.67,0,1.212-0.542,1.212-1.212l0,0C693.795,181.985,693.253,181.442,692.583,181.442z"/>
					<path fill="#424242" d="M674.822,187.256c0-0.669-0.543-1.212-1.212-1.212h-47.708c-0.67,0-1.212,0.542-1.212,1.212
						s0.542,1.212,1.212,1.212h47.708C674.279,188.468,674.822,187.925,674.822,187.256L674.822,187.256z"/>
				</g>
			</g>
		</g>
		<g>
			<polygon fill="#CFC5BC" points="39.759,87.896 39.759,97.489 39.759,249.727 574.243,249.727 574.243,97.489 574.243,87.896 			
				"/>
			<rect x="35.703" y="95.229" fill="#F6EFE1" width="534.484" height="152.238"/>
			<polygon opacity="0.58" fill="#72ABAE" points="40.806,240.219 65.977,205.06 126.146,199.833 149.077,168.442 216.28,149.836 
				275.992,168.442 288.835,186.652 320.564,205.306 344.738,168.244 390.574,160.318 409.708,150.034 429.349,154.855 
				445.93,195.856 462.588,179.781 478.312,175.342 495.829,186.652 525.292,159.635 538.134,163.733 538.134,168.244 
				551.732,186.85 565.083,241.876 40.806,241.876 			"/>
			<polygon opacity="0.58" fill="#72ABAE" points="40.806,240.937 65.977,221.009 119.941,229.727 149.077,200.253 216.28,189.708 
				275.992,200.253 302.945,177.079 320.564,221.148 344.738,200.141 388.941,172.842 409.708,189.82 429.349,192.552 
				445.93,170.765 462.588,206.681 478.312,204.165 493.591,170.765 525.292,195.262 538.134,197.584 538.134,200.141 
				565.083,183.393 565.083,241.876 40.806,241.876 			"/>
			<g>
				
					<rect x="40.805" y="101.894" fill="none" stroke="#003E51" stroke-width="0.25" stroke-miterlimit="10" width="524.28" height="138.908"/>
				
					<line fill="none" stroke="#003E51" stroke-width="0.25" stroke-miterlimit="10" x1="40.805" y1="110.576" x2="565.085" y2="110.576"/>
				
					<line fill="none" stroke="#003E51" stroke-width="0.25" stroke-miterlimit="10" x1="40.805" y1="119.257" x2="565.085" y2="119.257"/>
				
					<line fill="none" stroke="#003E51" stroke-width="0.25" stroke-miterlimit="10" x1="40.805" y1="127.939" x2="565.085" y2="127.939"/>
				
					<line fill="none" stroke="#003E51" stroke-width="0.25" stroke-miterlimit="10" x1="40.805" y1="136.621" x2="565.085" y2="136.621"/>
				
					<line fill="none" stroke="#003E51" stroke-width="0.25" stroke-miterlimit="10" x1="40.805" y1="145.303" x2="565.085" y2="145.303"/>
				
					<line fill="none" stroke="#003E51" stroke-width="0.25" stroke-miterlimit="10" x1="40.805" y1="153.984" x2="565.085" y2="153.984"/>
				
					<line fill="none" stroke="#003E51" stroke-width="0.25" stroke-miterlimit="10" x1="40.805" y1="162.667" x2="565.085" y2="162.667"/>
				
					<line fill="none" stroke="#003E51" stroke-width="0.25" stroke-miterlimit="10" x1="40.805" y1="171.348" x2="565.085" y2="171.348"/>
				
					<line fill="none" stroke="#003E51" stroke-width="0.25" stroke-miterlimit="10" x1="40.805" y1="180.03" x2="565.085" y2="180.03"/>
				
					<line fill="none" stroke="#003E51" stroke-width="0.25" stroke-miterlimit="10" x1="40.805" y1="188.711" x2="565.085" y2="188.711"/>
				
					<line fill="none" stroke="#003E51" stroke-width="0.25" stroke-miterlimit="10" x1="40.805" y1="197.394" x2="565.085" y2="197.394"/>
				
					<line fill="none" stroke="#003E51" stroke-width="0.25" stroke-miterlimit="10" x1="40.805" y1="206.075" x2="565.085" y2="206.075"/>
				
					<line fill="none" stroke="#003E51" stroke-width="0.25" stroke-miterlimit="10" x1="40.805" y1="214.757" x2="565.085" y2="214.757"/>
				
					<line fill="none" stroke="#003E51" stroke-width="0.25" stroke-miterlimit="10" x1="40.805" y1="223.438" x2="565.085" y2="223.438"/>
				
					<line fill="none" stroke="#003E51" stroke-width="0.25" stroke-miterlimit="10" x1="40.805" y1="232.121" x2="565.085" y2="232.121"/>
				
					<line fill="none" stroke="#003E51" stroke-width="0.25" stroke-miterlimit="10" x1="532.318" y1="240.802" x2="532.318" y2="101.894"/>
				
					<line fill="none" stroke="#003E51" stroke-width="0.25" stroke-miterlimit="10" x1="499.55" y1="240.802" x2="499.55" y2="101.894"/>
				
					<line fill="none" stroke="#003E51" stroke-width="0.25" stroke-miterlimit="10" x1="466.783" y1="240.802" x2="466.783" y2="101.894"/>
				
					<line fill="none" stroke="#003E51" stroke-width="0.25" stroke-miterlimit="10" x1="434.015" y1="240.802" x2="434.015" y2="101.894"/>
				
					<line fill="none" stroke="#003E51" stroke-width="0.25" stroke-miterlimit="10" x1="401.248" y1="240.802" x2="401.248" y2="101.894"/>
				
					<line fill="none" stroke="#003E51" stroke-width="0.25" stroke-miterlimit="10" x1="368.48" y1="240.802" x2="368.48" y2="101.894"/>
				
					<line fill="none" stroke="#003E51" stroke-width="0.25" stroke-miterlimit="10" x1="335.712" y1="240.802" x2="335.712" y2="101.894"/>
				
					<line fill="none" stroke="#003E51" stroke-width="0.25" stroke-miterlimit="10" x1="302.945" y1="240.802" x2="302.945" y2="101.894"/>
				
					<line fill="none" stroke="#003E51" stroke-width="0.25" stroke-miterlimit="10" x1="270.178" y1="240.802" x2="270.178" y2="101.894"/>
				
					<line fill="none" stroke="#003E51" stroke-width="0.25" stroke-miterlimit="10" x1="237.41" y1="240.802" x2="237.41" y2="101.894"/>
				
					<line fill="none" stroke="#003E51" stroke-width="0.25" stroke-miterlimit="10" x1="204.643" y1="240.802" x2="204.643" y2="101.894"/>
				
					<line fill="none" stroke="#003E51" stroke-width="0.25" stroke-miterlimit="10" x1="171.875" y1="240.802" x2="171.875" y2="101.894"/>
				
					<line fill="none" stroke="#003E51" stroke-width="0.25" stroke-miterlimit="10" x1="139.107" y1="240.802" x2="139.107" y2="101.894"/>
				
					<line fill="none" stroke="#003E51" stroke-width="0.25" stroke-miterlimit="10" x1="106.34" y1="240.802" x2="106.34" y2="101.894"/>
				
					<line fill="none" stroke="#003E51" stroke-width="0.25" stroke-miterlimit="10" x1="73.573" y1="240.802" x2="73.573" y2="101.894"/>
			</g>
			<rect x="35.703" y="85.636" fill="#003E51" width="534.484" height="9.593"/>
			<g>
				<circle fill="#F6EFE1" cx="532.369" cy="90.433" r="2.537"/>
				<circle fill="#F6EFE1" cx="547.447" cy="90.433" r="2.537"/>
				<circle fill="#F6EFE1" cx="562.525" cy="90.433" r="2.537"/>
			</g>
		</g>
		<g>
			<g>
				<polygon fill="#CFC5BC" points="315.094,216.727 315.094,231.771 315.094,430.536 681.134,430.536 681.134,231.771 
					681.134,216.727 				"/>
				<rect x="310.443" y="227.878" fill="#F6EFE1" width="366.041" height="198.764"/>
				<rect x="310.443" y="212.833" fill="#003E51" width="366.041" height="15.044"/>
				<g>
					<circle fill="#F6EFE1" cx="617.174" cy="220.355" r="3.979"/>
					<circle fill="#F6EFE1" cx="640.821" cy="220.355" r="3.978"/>
					<circle fill="#F6EFE1" cx="664.468" cy="220.355" r="3.978"/>
				</g>
			</g>
			<g>
				<g>
					<g>
						<path fill="#003E51" d="M668.125,420.208H318.803V234.312h349.322V420.208z M319.167,419.844H667.76V234.676H319.167V419.844z
							"/>
					</g>
					<g>
						<rect x="318.984" y="242.746" fill="#003E51" width="348.958" height="0.364"/>
					</g>
					<g>
						<rect x="318.984" y="251.178" fill="#003E51" width="348.958" height="0.364"/>
					</g>
					<g>
						<rect x="318.984" y="259.612" fill="#003E51" width="348.958" height="0.364"/>
					</g>
					<g>
						<rect x="318.984" y="268.045" fill="#003E51" width="348.958" height="0.363"/>
					</g>
					<g>
						<rect x="318.984" y="276.478" fill="#003E51" width="348.958" height="0.364"/>
					</g>
					<g>
						<rect x="318.984" y="284.912" fill="#003E51" width="348.958" height="0.364"/>
					</g>
					<g>
						<rect x="318.984" y="293.345" fill="#003E51" width="348.958" height="0.363"/>
					</g>
					<g>
						<rect x="318.984" y="301.778" fill="#003E51" width="348.958" height="0.364"/>
					</g>
					<g>
						<rect x="318.984" y="310.211" fill="#003E51" width="348.958" height="0.364"/>
					</g>
					<g>
						<rect x="318.984" y="318.645" fill="#003E51" width="348.958" height="0.363"/>
					</g>
					<g>
						<rect x="318.984" y="327.078" fill="#003E51" width="348.958" height="0.364"/>
					</g>
					<g>
						<rect x="318.984" y="335.511" fill="#003E51" width="348.958" height="0.364"/>
					</g>
					<g>
						<rect x="318.984" y="343.945" fill="#003E51" width="348.958" height="0.363"/>
					</g>
					<g>
						<rect x="318.984" y="352.377" fill="#003E51" width="348.958" height="0.364"/>
					</g>
					<g>
						<rect x="318.984" y="360.811" fill="#003E51" width="348.958" height="0.364"/>
					</g>
					<g>
						<rect x="318.984" y="369.245" fill="#003E51" width="348.958" height="0.363"/>
					</g>
					<g>
						<rect x="318.984" y="377.678" fill="#003E51" width="348.958" height="0.363"/>
					</g>
					<g>
						<rect x="318.984" y="386.111" fill="#003E51" width="348.958" height="0.364"/>
					</g>
					<g>
						<rect x="318.984" y="394.544" fill="#003E51" width="348.958" height="0.364"/>
					</g>
					<g>
						<rect x="318.984" y="402.977" fill="#003E51" width="348.958" height="0.364"/>
					</g>
					<g>
						<rect x="318.984" y="411.411" fill="#003E51" width="348.958" height="0.364"/>
					</g>
					<g>
						<rect x="651.899" y="234.494" fill="#003E51" width="0.364" height="185.532"/>
					</g>
					<g>
						<rect x="636.038" y="234.494" fill="#003E51" width="0.363" height="185.532"/>
					</g>
					<g>
						<rect x="620.176" y="234.494" fill="#003E51" width="0.363" height="185.532"/>
					</g>
					<g>
						<rect x="604.314" y="234.494" fill="#003E51" width="0.364" height="185.532"/>
					</g>
					<g>
						<rect x="588.452" y="234.494" fill="#003E51" width="0.363" height="185.532"/>
					</g>
					<g>
						<rect x="572.589" y="234.494" fill="#003E51" width="0.364" height="185.532"/>
					</g>
					<g>
						<rect x="556.728" y="234.494" fill="#003E51" width="0.364" height="185.532"/>
					</g>
					<g>
						<rect x="540.867" y="234.494" fill="#003E51" width="0.363" height="185.532"/>
					</g>
					<g>
						<rect x="525.004" y="234.494" fill="#003E51" width="0.364" height="185.532"/>
					</g>
					<g>
						<rect x="509.143" y="234.494" fill="#003E51" width="0.364" height="185.532"/>
					</g>
					<g>
						<rect x="493.282" y="234.494" fill="#003E51" width="0.364" height="185.532"/>
					</g>
					<g>
						<rect x="477.42" y="234.494" fill="#003E51" width="0.363" height="185.532"/>
					</g>
					<g>
						<rect x="461.558" y="234.494" fill="#003E51" width="0.364" height="185.532"/>
					</g>
					<g>
						<rect x="445.697" y="234.494" fill="#003E51" width="0.364" height="185.532"/>
					</g>
					<g>
						<rect x="429.835" y="234.494" fill="#003E51" width="0.363" height="185.532"/>
					</g>
					<g>
						<rect x="413.974" y="234.494" fill="#003E51" width="0.363" height="185.532"/>
					</g>
					<g>
						<rect x="398.112" y="234.494" fill="#003E51" width="0.364" height="185.532"/>
					</g>
					<g>
						<rect x="382.25" y="234.494" fill="#003E51" width="0.364" height="185.532"/>
					</g>
					<g>
						<rect x="366.389" y="234.494" fill="#003E51" width="0.364" height="185.532"/>
					</g>
					<g>
						<rect x="350.526" y="234.494" fill="#003E51" width="0.364" height="185.532"/>
					</g>
					<g>
						<rect x="334.664" y="234.494" fill="#003E51" width="0.364" height="185.532"/>
					</g>
				</g>
				<g>
					<rect x="323.89" y="332.617" fill="#003E51" width="2.08" height="41.773"/>
					<rect x="318.985" y="339.78" fill="#003E51" width="11.889" height="27.448"/>
					<rect x="344.027" y="332.617" fill="#003E51" width="2.08" height="23.802"/>
					<rect x="339.122" y="336.698" fill="#72ABAE" width="11.889" height="15.64"/>
					<rect x="364.164" y="335.532" fill="#003E51" width="2.08" height="41.773"/>
					<rect x="359.259" y="342.695" fill="#003E51" width="11.889" height="27.448"/>
					<rect x="384.301" y="315.811" fill="#003E51" width="2.08" height="41.773"/>
					<rect x="379.396" y="322.974" fill="#003E51" width="11.89" height="27.448"/>
					<rect x="404.438" y="328.37" fill="#003E51" width="2.08" height="61.08"/>
					<rect x="399.534" y="338.842" fill="#72ABAE" width="11.889" height="40.135"/>
					<rect x="424.576" y="365.252" fill="#003E51" width="2.079" height="34.611"/>
					<rect x="419.67" y="371.187" fill="#003E51" width="11.89" height="22.742"/>
					<rect x="444.712" y="312.215" fill="#003E51" width="2.08" height="82.576"/>
					<rect x="439.808" y="326.375" fill="#72ABAE" width="11.889" height="54.259"/>
					<rect x="464.849" y="292.786" fill="#003E51" width="2.08" height="92.114"/>
					<rect x="459.945" y="303.154" fill="#003E51" width="11.889" height="71.378"/>
					<rect x="484.987" y="294.924" fill="#003E51" width="2.079" height="41.773"/>
					<rect x="480.082" y="302.087" fill="#72ABAE" width="11.89" height="27.448"/>
					<rect x="505.125" y="305.487" fill="#003E51" width="2.079" height="41.773"/>
					<rect x="500.219" y="312.65" fill="#72ABAE" width="11.889" height="27.448"/>
					<rect x="525.26" y="332.617" fill="#003E51" width="2.08" height="30.964"/>
					<rect x="520.356" y="337.926" fill="#72ABAE" width="11.89" height="20.346"/>
					<rect x="545.398" y="332.617" fill="#003E51" width="2.08" height="56.833"/>
					<rect x="540.494" y="342.362" fill="#003E51" width="11.889" height="37.344"/>
					<rect x="565.535" y="323.631" fill="#003E51" width="2.08" height="41.773"/>
					<rect x="560.63" y="330.793" fill="#003E51" width="11.889" height="27.448"/>
					<rect x="585.672" y="311.741" fill="#003E51" width="2.08" height="34.611"/>
					<rect x="580.767" y="317.675" fill="#003E51" width="11.89" height="22.742"/>
					<rect x="620.684" y="264.93" fill="#003E51" width="2.079" height="56.833"/>
					<rect x="615.779" y="274.674" fill="#003E51" width="11.89" height="37.344"/>
					<rect x="640.821" y="263.638" fill="#003E51" width="2.08" height="34.079"/>
					<g>
						<defs>
							<rect id="SVGID_1_" x="635.917" y="269.482" width="11.889" height="22.393"/>
						</defs>
						<use xlink:href="#SVGID_1_"  overflow="visible" fill="#003E51"/>
						<clipPath id="SVGID_2_">
							<use xlink:href="#SVGID_1_"  overflow="visible"/>
						</clipPath>
						<path clip-path="url(#SVGID_2_)" fill="#003E51" d="M349.895,336.698c-3.591,0-7.182,0-10.773,0c0,4.075,0,8.15,0,12.225
							c0,1.139,0,2.277,0,3.415c3.963,0,7.926,0,11.889,0c0-4.074,0-8.149,0-12.225c0-1.138,0-2.276,0-3.415
							C350.639,336.698,350.267,336.698,349.895,336.698z"/>
						<path clip-path="url(#SVGID_2_)" fill="#003E51" d="M389.526,322.974c-3.376,0-6.753,0-10.13,0c0,3.566,0,7.132,0,10.698
							c0,3.559,0,7.118,0,10.677c0,2.024,0,4.049,0,6.073c3.964,0,7.927,0,11.89,0c0-3.566,0-7.133,0-10.699
							c0-3.559,0-7.117,0-10.677c0-2.024,0-4.048,0-6.072C390.699,322.974,390.113,322.974,389.526,322.974z"/>
						<path clip-path="url(#SVGID_2_)" fill="#003E51" d="M408.972,338.842c-3.146,0-6.292,0-9.438,0c0,5.214,0,10.429,0,15.643
							c0,5.208,0,10.416,0,15.625c0,2.955,0,5.911,0,8.867c3.963,0,7.926,0,11.889,0c0-5.214,0-10.429,0-15.643
							c0-5.208,0-10.416,0-15.625c0-2.955,0-5.911,0-8.867C410.606,338.842,409.79,338.842,408.972,338.842z"/>
						<path clip-path="url(#SVGID_2_)" fill="#003E51" d="M430.057,371.187c-3.462,0-6.925,0-10.387,0c0,2.888,0,5.775,0,8.663
							c0,2.947,0,5.896,0,8.843c0,1.644,0,3.286,0,4.93c0.569,0.232,0.793,0.307,1.447,0.307c0.501,0,1.002,0,1.503,0
							c1.002,0,2.004,0,3.006,0c1.978,0,3.955,0,5.934,0c0-2.931,0-5.861,0-8.792c0-2.981,0-5.963,0-8.944c0-1.668,0-3.337,0-5.006
							C431.059,371.187,430.558,371.187,430.057,371.187z"/>
						<path clip-path="url(#SVGID_2_)" fill="#003E51" d="M448.477,326.375c-2.89,0-5.779,0-8.669,0c0,3.504,0,7.009,0,10.513
							c0,3.55,0,7.099,0,10.648c0,3.546,0,7.091,0,10.637c0,3.534,0,7.068,0,10.603c0,3.515,0,7.03,0,10.545
							c0,0.438,0,0.876,0,1.313c3.963,0,7.926,0,11.889,0c0-3.505,0-7.009,0-10.514c0-3.55,0-7.099,0-10.648
							c0-3.545,0-7.091,0-10.637c0-3.534,0-7.068,0-10.602c0-3.516,0-7.03,0-10.545c0-0.438,0-0.876,0-1.313
							C450.624,326.375,449.55,326.375,448.477,326.375z"/>
						<path clip-path="url(#SVGID_2_)" fill="#003E51" d="M490.211,302.087c-3.376,0-6.753,0-10.13,0c0,3.526,0,7.054,0,10.581
							c0,3.508,0,7.017,0,10.525c0,1.994,0,3.988,0,5.982c0.531,0.217,0.807,0.359,1.413,0.359c0.467,0,0.934,0,1.4,0
							c1.057,0,2.113,0,3.17,0c1.969,0,3.938,0,5.906,0c0-3.566,0-7.133,0-10.699c0-3.559,0-7.117,0-10.677c0-2.023,0-4.048,0-6.072
							C491.384,302.087,490.798,302.087,490.211,302.087z"/>
						<path clip-path="url(#SVGID_2_)" fill="#003E51" d="M510.349,312.65c-3.377,0-6.754,0-10.13,0c0,3.527,0,7.054,0,10.581
							c0,3.508,0,7.017,0,10.525c0,1.994,0,3.988,0,5.983c0.53,0.216,0.807,0.358,1.413,0.358c0.467,0,0.934,0,1.399,0
							c1.057,0,2.113,0,3.17,0c1.969,0,3.938,0,5.906,0c0-3.566,0-7.133,0-10.698c0-3.56,0-7.118,0-10.677c0-2.024,0-4.049,0-6.073
							C511.522,312.65,510.935,312.65,510.349,312.65z"/>
						<path clip-path="url(#SVGID_2_)" fill="#003E51" d="M530.873,337.926c-3.505,0-7.011,0-10.517,0c0,5.22,0,10.439,0,15.659
							c0,1.469,0,2.938,0,4.407c0.904,0.368,1.784,0.279,2.816,0.279c1.039,0,2.078,0,3.117,0c1.985,0,3.971,0,5.956,0
							c0-5.289,0-10.578,0-15.866c0-1.493,0-2.986,0-4.479C531.788,337.926,531.331,337.926,530.873,337.926z"/>
						<path clip-path="url(#SVGID_2_)" fill="#003E51" d="M630.703,244.63c-3.716,0-7.431,0-11.146,0c0,2.873,0,5.747,0,8.62
							c0,2.875,0,5.751,0,8.627c0,1.614,0,3.229,0,4.843c0.575,0.235,0.793,0.303,1.456,0.303c0.494,0,0.989,0,1.483,0
							c0.999,0,1.997,0,2.995,0c1.985,0,3.97,0,5.954,0c0-2.915,0-5.831,0-8.747c0-2.918,0-5.836,0-8.755c0-1.63,0-3.26,0-4.891
							H630.703z"/>
					</g>
					<rect x="660.958" y="244.054" fill="#003E51" width="2.08" height="34.611"/>
					<rect x="656.053" y="249.989" fill="#003E51" width="11.889" height="22.742"/>
					<rect x="602.234" y="264.23" fill="#003E51" width="2.079" height="75.217"/>
					<g>
						<path fill="#003E51" d="M318.985,340.27c0,3.513,0,7.025,0,10.538c0,3.507,0,7.013,0,10.52c0,1.967,0,3.934,0,5.9h11.889
							c0-3.583,0-7.165,0-10.747c0-3.564,0-7.129,0-10.692c0-2.003,0-4.006,0-6.009h-11.889V340.27z"/>
						<path fill="#003E51" d="M359.259,343.185c0,3.513,0,7.025,0,10.538c0,3.507,0,7.013,0,10.52c0,1.967,0,3.934,0,5.9h11.889
							c0-3.582,0-7.165,0-10.747c0-3.564,0-7.128,0-10.692c0-2.003,0-4.006,0-6.009h-11.889V343.185z"/>
						<path fill="#003E51" d="M459.945,304.428c0,4.606,0,9.213,0,13.818c0,4.528,0,9.058,0,13.586c0,4.511,0,9.022,0,13.533
							c0,4.617,0,9.234,0,13.852c0,4.576,0,9.151,0,13.728c0,0.528,0,1.058,0,1.587h11.889c0-4.668,0-9.335,0-14.002
							c0-4.656,0-9.313,0-13.969c0-4.647,0-9.294,0-13.941c0-4.64,0-9.278,0-13.918c0-4.635,0-9.269,0-13.902
							c0-0.549,0-1.098,0-1.646h-11.889V304.428z"/>
						<path fill="#003E51" d="M540.494,343.029c0,4.755,0,9.511,0,14.266c0,4.797,0,9.594,0,14.39c0,2.674,0,5.348,0,8.021h11.889
							c0-4.878,0-9.756,0-14.634c0-4.858,0-9.718,0-14.576c0-2.711,0-5.423,0-8.134h-11.889V343.029z"/>
						<path fill="#003E51" d="M560.63,331.284c0,3.513,0,7.025,0,10.538c0,3.507,0,7.014,0,10.521c0,1.967,0,3.933,0,5.899h11.889
							c0-3.582,0-7.164,0-10.747c0-3.563,0-7.128,0-10.692c0-2.003,0-4.006,0-6.009H560.63V331.284z"/>
						<path fill="#003E51" d="M580.767,318.082c0,2.891,0,5.78,0,8.671c0,2.924,0,5.847,0,8.771c0,1.632,0,3.263,0,4.895h11.89
							c0-2.964,0-5.928,0-8.893c0-2.961,0-5.922,0-8.884c0-1.655,0-3.311,0-4.966h-11.89V318.082z"/>
						<path fill="#003E51" d="M615.779,275.341c0,4.756,0,9.511,0,14.267c0,4.797,0,9.593,0,14.39c0,2.674,0,5.348,0,8.021h11.89
							c0-4.878,0-9.756,0-14.634c0-4.858,0-9.717,0-14.575c0-2.712,0-5.423,0-8.135h-11.89V275.341z"/>
						<path fill="#003E51" d="M656.053,249.989c0,2.964,0,5.928,0,8.892c0,2.962,0,5.923,0,8.885c0,1.655,0,3.311,0,4.966h11.889
							c0-2.965,0-5.929,0-8.893c0-2.961,0-5.923,0-8.884c0-1.655,0-3.311,0-4.966H656.053z"/>
					</g>
					<rect x="597.329" y="272.731" fill="#72ABAE" width="11.89" height="55.613"/>
				</g>
			</g>
		</g>
		<g>
			<g>
				<g>
					<rect x="73.287" y="29.979" fill="#CFC5BC" width="179.832" height="179.832"/>
					<rect x="70.831" y="34.951" fill="#F6EFE1" width="179.832" height="171.387"/>
					<rect x="70.831" y="27.56" fill="#003E51" width="179.832" height="7.391"/>
				</g>
				<g>
					<circle fill="#F6EFE1" cx="221.525" cy="31.256" r="1.955"/>
					<circle fill="#F6EFE1" cx="233.142" cy="31.256" r="1.954"/>
					<circle fill="#F6EFE1" cx="244.76" cy="31.256" r="1.954"/>
				</g>
			</g>
			<g>
				<g opacity="0.29">
					<g>
						<path fill="#003E51" d="M246.466,202.203H75.028V38.517h171.438V202.203z M75.525,201.705h170.443V39.015H75.525V201.705z"/>
					</g>
					<g>
						<rect x="75.276" y="174.507" fill="#003E51" width="170.941" height="0.498"/>
					</g>
					<g>
						<rect x="75.276" y="147.309" fill="#003E51" width="170.941" height="0.498"/>
					</g>
					<g>
						<rect x="75.276" y="120.111" fill="#003E51" width="170.941" height="0.498"/>
					</g>
					<g>
						<rect x="75.276" y="92.913" fill="#003E51" width="170.941" height="0.498"/>
					</g>
					<g>
						<rect x="75.276" y="65.715" fill="#003E51" width="170.941" height="0.498"/>
					</g>
					<g>
						<rect x="217.479" y="38.766" fill="#003E51" width="0.498" height="163.188"/>
					</g>
					<g>
						<rect x="188.988" y="38.766" fill="#003E51" width="0.498" height="163.188"/>
					</g>
					<g>
						<rect x="160.498" y="38.766" fill="#003E51" width="0.498" height="163.188"/>
					</g>
					<g>
						<rect x="132.008" y="38.766" fill="#003E51" width="0.498" height="163.188"/>
					</g>
					<g>
						<rect x="103.518" y="38.766" fill="#003E51" width="0.498" height="163.188"/>
					</g>
				</g>
				<g>
					<polygon fill="#006979" points="75.379,202.024 75.174,201.884 109.823,150.966 124.05,159.591 164.045,81.994 164.146,82.028 
						183.871,88.592 190.864,110.132 208.893,105.509 213.491,72.563 213.526,72.532 246.136,44.097 246.299,44.285 213.725,72.689 
						209.117,105.708 209.036,105.729 190.7,110.432 190.664,110.32 183.672,88.789 164.168,82.297 124.149,159.941 
						109.896,151.301 					"/>
				</g>
				<circle fill="#72ABAE" cx="110.182" cy="151.319" r="2.723"/>
				<circle fill="#72ABAE" cx="124.428" cy="159.766" r="2.723"/>
				<circle fill="#72ABAE" cx="164.382" cy="82.804" r="2.723"/>
				<circle fill="#72ABAE" cx="184.196" cy="88.25" r="2.723"/>
				<circle fill="#72ABAE" cx="191.237" cy="110.356" r="2.723"/>
				<circle fill="#72ABAE" cx="208.43" cy="105.771" r="2.723"/>
				<circle fill="#72ABAE" cx="213.877" cy="72.531" r="2.723"/>
			</g>
		</g>
		<g>
			<g>
				<g>
					<polygon fill="#002F3D" points="240.948,443.521 263.103,296.393 261.059,296.074 238.856,443.521 					"/>
				</g>
				<g>
					<polygon fill="#002F3D" points="321.196,443.521 298.994,296.074 296.95,296.393 319.105,443.521 					"/>
				</g>
			</g>
			<g>
				<g>
					<polygon fill="#002F3D" points="166.084,443.521 188.239,296.393 186.196,296.074 163.993,443.521 					"/>
				</g>
				<g>
					<polygon fill="#002F3D" points="246.333,443.521 224.13,296.074 222.087,296.393 244.242,443.521 					"/>
				</g>
			</g>
			<g>
				<g>
					<g>
						<path fill="#EDEAE8" d="M225.984,292.358h-24.567c-1.506,0-2.727,1.221-2.727,2.728h24.572h22.11l2.727-2.728H225.984z"/>
						<path fill="#BAADAD" d="M287.383,255.192c-0.871-1.188-2.271-1.981-3.898-1.981h-44.164c-2.232,0-4.175,1.526-4.704,3.696
							l-8.632,35.453h24.229h29.899l8.074-33.163C288.545,257.73,288.191,256.292,287.383,255.192z"/>
						<path fill="#4E4E50" d="M223.705,292.36h54.128l8.514-34.966c0.519-2.13-1.095-4.184-3.287-4.184h-46.019
							c-2.232,0-4.175,1.526-4.704,3.696L223.705,292.36z"/>
						<linearGradient id="SVGID_3_" gradientUnits="userSpaceOnUse" x1="254.7778" y1="256.6147" x2="254.7778" y2="288.8026">
							<stop  offset="0" style="stop-color:#72ABAE"/>
							<stop  offset="1" style="stop-color:#006979"/>
						</linearGradient>
						<path fill="url(#SVGID_3_)" d="M281.624,254.51h-44.117c-2.137,0-3.998,1.477-4.503,3.573l-1.38,5.727l-0.982,4.075
							l-3.419,14.184l-2.481,10.291h51.819l0.223-0.925l2.396-9.937l1.925-7.984l3.621-15.02
							C285.213,256.466,283.691,254.51,281.624,254.51z"/>
					</g>
				</g>
				<path fill="#BAADAD" d="M280.112,292.358c0,1.507-1.215,2.728-2.722,2.728h-32.019l0,0c0-1.507,1.221-2.728,2.727-2.728H280.112
					z"/>
			</g>
			<g>
				<rect x="252.147" y="295.085" fill="#002F3D" width="55.059" height="2.291"/>
				<rect x="171.595" y="295.085" fill="#00607D" width="80.552" height="2.291"/>
			</g>
		</g>
		<g>
			<g>
				<path fill="#001014" d="M191.6,343.945h-43.563c-4.932,0-8.93-3.998-8.93-8.93l0,0c0-4.932,3.998-8.93,8.93-8.93H191.6
					c4.931,0,8.929,3.998,8.929,8.93l0,0C200.529,339.947,196.531,343.945,191.6,343.945z"/>
				<path fill="#001014" d="M160.889,283.647h-43.563c-4.932,0-8.929-3.997-8.929-8.929v-14.61c0-4.932,3.998-8.93,8.929-8.93
					h43.563c4.932,0,8.929,3.998,8.929,8.93v14.61C169.818,279.65,165.821,283.647,160.889,283.647z"/>
				<path fill="#001014" d="M169.983,336.406c-17.347,1.53-30.394-12.481-34.366-28.269c-4.287-17.038-0.764-35.695,5.81-51.667
					c0.98-2.381-2.875-3.464-3.844-1.108c-7.376,17.923-11.098,39.882-4.379,58.598c5.507,15.34,19.677,27.95,36.733,26.446
					C172.477,340.181,172.549,336.179,169.983,336.406z"/>
			</g>
			<path fill="#001014" d="M167.213,338.555V439.98c0,3.216,5,3.281,5,0.058V338.612
				C172.213,335.397,167.213,335.331,167.213,338.555z"/>
			<path fill="#001014" d="M191.973,438.879h-46.601c-3.215,0-3.281,5-0.058,5h46.601
				C195.13,443.879,195.196,438.879,191.973,438.879z"/>
		</g>
		<g>
			<g>
				<g>
					<g>
						<path fill="#FFAB91" d="M198.342,415.064c0.494,0.284,1.13,0.309,1.811,0.252c-2.493,4.236-4.956,8.492-7.358,12.784
							c-2.841-0.692-3.796-1.351-6.023-3.244c1.42-4.992,2.81-10.248,4.308-15.564C193.074,411.875,195.668,413.879,198.342,415.064
							z"/>
						<path fill="#040012" d="M199.541,432.548l-4.313-5.9l-7.781-6.173c0,0-3.907,2.551-6.941,6.537l9.42,7.17l3.829,2.915l7.884,6
							C204.466,439.352,202.767,435.003,199.541,432.548z"/>
					</g>
					<path fill="#002F3D" d="M168.492,306.839v10.962c0,8.834,5.474,16.743,13.742,19.855l34.116,23.519
						c0,0-11.543-2.288-29.578,55.483l10.093,5.128l44.296-61.709c0.045-1.293-0.343-2.564-1.104-3.611l-37.808-40.655l-0.923-7.77
						L168.492,306.839z"/>
				</g>
				<g>
					<g>
						<path fill="#FFAB91" d="M220.615,424.38c0.568,0.05,1.155-0.195,1.749-0.534c-0.478,4.893-0.918,9.789-1.29,14.694
							c-2.868,0.567-4.012,0.373-6.83-0.405c-0.814-5.127-1.767-10.479-2.648-15.932
							C214.494,423.707,217.691,424.432,220.615,424.38z"/>
						<path fill="#040012" d="M229.398,436.398l-7.005-2.083l-9.931-0.199c0,0-1.563,4.396-1.563,9.405h11.838h4.813h9.907
							C237.437,438.829,233.452,436.398,229.398,436.398z"/>
					</g>
					<path fill="#003E51" d="M155.18,306.839v10.962c0,18.074,51.524,54.281,51.524,54.281s-7.508,7.785,5.417,59.704h10.755
						l2.252-64.104c0.045-1.293-0.343-2.563-1.104-3.61l-35.087-48.262l-0.923-7.77L155.18,306.839z"/>
				</g>
				<path fill="#001014" d="M212.741,367.836c-1.937,0.545-3.733,1.403-5.365,2.58c-0.517,0.373-0.028,1.247,0.495,0.87
					c1.568-1.131,3.263-1.958,5.125-2.483C213.614,368.629,213.363,367.662,212.741,367.836z"/>
				<path fill="#001014" d="M213.76,371.024c-1.705,0.292-3.411,0.387-5.138,0.302c-0.643-0.031-0.654,0.969-0.011,1
					c1.817,0.089,3.611-0.027,5.404-0.334C214.648,371.883,214.391,370.917,213.76,371.024z"/>
				<path fill="#001014" d="M221.754,428.478h-8.502c-0.643,0-0.656,0.999-0.012,0.999h8.502
					C222.386,429.477,222.399,428.478,221.754,428.478z"/>
			</g>
			<g>
				<g>
					<path fill="#72ABAE" d="M173.041,218.042c-6.314-1.506-12.802-2.283-19.294-2.283c-2.342,0-4.599,1.076-5.958,2.984
						c-5.236,7.354-0.123,18.119,1.649,27.014c3.433,17.242,7.117,29.254,2.921,46.326c-0.664,2.702-0.618,11.286,2.022,12.167
						c12.294,4.102,22.514,6.716,35.471,6.252c2.947-0.105,6.073-0.411,8.745-1.536c2.268-0.955,2.804-12.711,2.589-15.162
						c-1.673-19.059-2.366-28.224-4.059-47.342c-0.006-0.07-0.012-0.14-0.019-0.21C195.92,232.668,186.304,221.206,173.041,218.042z
						"/>
					<path fill="#3E5D5E" d="M174.744,225.851c-0.262-0.748-3.152-0.756-2.886,0c0.26,0.741,0.464,1.465,0.699,2.198h2.975
						C175.269,227.316,175.003,226.59,174.744,225.851z"/>
					<path fill="#3E5D5E" d="M186.592,264.598c-2.024-12.659-6.618-23.901-10.996-35.931h-2.975
						c3.903,11.963,4.441,23.01,4.441,35.656L186.592,264.598z"/>
					<path fill="#3E5D5E" d="M182.558,265.938c2.276,14.46,3.184,29.134,2.638,43.821c-0.03,0.799,1.211,0.813,1.241,0.014
						c0.548-14.737-0.361-29.471-2.644-43.989L182.558,265.938z"/>
				</g>
				<path fill="#003E51" d="M201.186,293.803c-1.673-19.059-2.366-28.224-4.059-47.342c-0.006-0.07-0.012-0.14-0.019-0.21
					c-1.015-11.594-8.18-21.623-18.501-26.285c2.492,13.774,4.845,25.754,3.552,40.711c-6.172-19.163-13.585-30.807-23.296-44.751
					c-1.704-0.106-3.41-0.167-5.118-0.167c-2.342,0-4.599,1.076-5.958,2.984c-5.236,7.354-0.123,18.119,1.649,27.014
					c3.433,17.242,7.117,29.254,2.921,46.325c-0.664,2.703-1.187,13.154,1.453,14.035c12.293,4.102,23.083,4.849,36.04,4.385
					c2.947-0.105,8.706-0.011,11.377-1.135C203.498,308.412,201.401,296.254,201.186,293.803z"/>
				<g>
					<g>
						<g>
							<path fill="#FFAB91" d="M206.86,187.439c-0.657,2.377-0.454,4.709-0.397,7.144c0.016,0.675,0.305,1.318,0.81,1.768
								c1.83,1.633,3.577,3.281,5.245,5.121c1.462,7.164,2.093,13.704,2.063,21.672c1.951,1.476,3.71,1.741,6.117,1.301
								c2.406-0.439,3.505-1.488,4.808-3.559c-1.811-5.432-6.178-15.144-7.989-20.576c1.157-1.266,1.886-2.904,1.684-4.607
								c-0.17-1.436-0.685-2.909-1.691-3.914c0.027-0.047,0.054-0.095,0.083-0.14c0.423-0.659,1.23-0.941,1.597-1.606
								c0.18-0.326,0.096-0.868-0.285-1.028c-1.108-0.465-2.274,0.39-2.948,1.247c-0.007,0.009-0.014,0.019-0.021,0.027
								c0.218-0.868,0.598-1.631,1.239-2.33c0.738-0.806-0.187-2.066-1.173-1.536c-1.28,0.688-2.128,1.982-2.489,3.369
								c-0.141,0.543-0.267,1.201-0.307,1.863c-0.044,0-0.088-0.002-0.132-0.002c0.124-1.997-0.152-4.201,1.713-5.281
								c0.689-0.399,0.435-1.585-0.41-1.544c-1.798,0.089-3.018,1.343-3.514,3.022c-0.301,1.019-0.371,2.13-0.485,3.182
								c-0.016,0.146-0.034,0.288-0.053,0.429c-0.232-0.031-0.465-0.063-0.693-0.101c-0.228-0.991-0.285-2.046-0.161-3.055
								c0.061-0.494,0.353-0.929,0.677-1.308c0.324-0.378,0.69-0.726,0.948-1.152c0.257-0.426,0.395-0.962,0.214-1.426
								c-0.181-0.464-0.872-1.077-1.182-0.687C209.192,184.912,207.261,185.989,206.86,187.439z"/>
							<g>
								<path fill="#FFAB91" d="M207.446,190.433c0.007-0.358,0.066-0.779,0.38-0.95c0.269-0.146,0.603-0.038,0.873,0.106
									c0.75,0.4,1.353,1.072,1.669,1.862c0.317,0.79,0.346,1.691,0.08,2.5c-0.335,1.021-1.839,1.391-2.438,0.374
									c-0.29-0.493-0.349-1.169-0.43-1.723C207.477,191.884,207.432,191.158,207.446,190.433z"/>
							</g>
							<path fill="#FF8A65" d="M207.222,188.911c-0.375,0.087-0.492,0.381-0.447,0.671c0,0.012-0.007,0.021-0.007,0.034
								c0.006,1.766,0.208,3.502,0.572,5.229c0.184,0.869,1.49,0.416,1.308-0.445c-0.292-1.381-0.441-2.781-0.483-4.189
								c1.503,0.263,2.004,3.441,2.151,4.502c0.038,0.278,0.205,0.458,0.409,0.547c0.154,0.113,0.352,0.173,0.583,0.121
								c1.068-0.242,2.264-0.106,3.048,0.731c0.807,0.861,0.784,2.051-0.052,2.867c-0.637,0.623,0.4,1.536,1.033,0.918
								c1.231-1.202,1.304-3.102,0.26-4.453c-0.979-1.268-2.505-1.654-4.007-1.491C211.18,191.603,210.108,188.239,207.222,188.911z
								"/>
						</g>
						<path fill="#003E51" d="M184.445,223.419l29.505,11.772l-2.72-26.37l11.08-2.057l10.431,33.491
							c1.101,4.52-2.84,9.14-6.489,12.025l0,0c-2.389,1.89-33.069,0.31-33.069,0.31L184.445,223.419z"/>
						<g>
							<polygon fill="#003E51" points="250.696,190.658 197.433,192.801 196.777,187.097 249.133,177.084 							"/>
							
								<rect x="194.412" y="186.061" transform="matrix(-0.9934 0.1144 -0.1144 -0.9934 411.9854 356.4602)" fill="#003E51" width="2.696" height="7.991"/>
							
								<rect x="229.656" y="179.215" transform="matrix(-0.9934 0.1143 -0.1143 -0.9934 481.7517 344.3809)" fill="#003E51" width="2.696" height="13.57"/>
							
								<rect x="247.84" y="175.92" transform="matrix(-0.9935 0.1143 -0.1143 -0.9935 517.7588 338.136)" fill="#003E51" width="2.696" height="15.975"/>
						</g>
						<g>
							<path fill="#FFAB91" d="M207.688,190.909c-0.033-0.32-0.05-0.686,0.174-0.917c0.211-0.218,0.573-0.225,0.845-0.091
								c0.272,0.133,0.473,0.376,0.652,0.621c0.866,1.183,1.441,2.578,1.66,4.027c0.042,0.283,0.067,0.59-0.079,0.836
								c-0.503,0.841-2.362,0.458-2.743-0.35c-0.223-0.473-0.203-1.103-0.254-1.61C207.858,192.586,207.773,191.748,207.688,190.909
								z"/>
							<path fill="#FF8A65" d="M207.222,188.911c-0.375,0.087-0.492,0.381-0.447,0.671c0,0.012-0.007,0.021-0.007,0.034
								c0.006,1.766,0.208,3.502,0.572,5.229c0.184,0.869,1.49,0.416,1.308-0.445c-0.292-1.381-0.441-2.781-0.483-4.189
								c1.503,0.263,2.004,3.441,2.151,4.502c0.038,0.278,0.205,0.458,0.409,0.547c0.154,0.113,0.352,0.173,0.583,0.121
								c1.068-0.242,2.264-0.106,3.048,0.731c0.807,0.861,0.784,2.051-0.052,2.867c-0.637,0.623,0.4,1.536,1.033,0.918
								c1.231-1.202,1.304-3.102,0.26-4.453c-0.979-1.268-2.505-1.654-4.007-1.491C211.18,191.603,210.108,188.239,207.222,188.911z
								"/>
						</g>
					</g>
					<path fill="#FFAB91" d="M210.539,186.994c-0.335-1.285-0.92-2.375-1.751-3.405c-0.985-1.222-2.72,0.491-1.743,1.703
						c0.562,0.696,0.912,1.461,1.137,2.323C208.577,189.131,210.936,188.516,210.539,186.994z"/>
					<path fill="#FFAB91" d="M213.413,186.621c-0.335-1.285-0.92-2.375-1.751-3.405c-0.985-1.222-2.721,0.491-1.743,1.703
						c0.562,0.696,0.912,1.461,1.137,2.323C211.452,188.757,213.811,188.143,213.413,186.621z"/>
					<path fill="#FFAB91" d="M215.83,186.164c-0.335-1.285-0.92-2.375-1.751-3.405c-0.985-1.222-2.72,0.491-1.743,1.703
						c0.562,0.696,0.912,1.461,1.137,2.323C213.868,188.301,216.227,187.686,215.83,186.164z"/>
					<path fill="#FFAB91" d="M217.816,186.107c-0.335-1.285-0.92-2.375-1.751-3.406c-0.985-1.222-2.72,0.491-1.743,1.703
						c0.562,0.696,0.912,1.461,1.137,2.323C215.854,188.244,218.213,187.629,217.816,186.107z"/>
				</g>
				<path fill="#001014" d="M214.964,236.352c-0.264-0.592-1.14-0.09-0.877,0.5c1.165,2.611,1.988,5.314,2.501,8.126
					c0.117,0.638,1.092,0.38,0.976-0.257C217.036,241.823,216.164,239.042,214.964,236.352z"/>
				<path fill="#001014" d="M221.785,241.429c-1.243-1.959-2.759-3.696-4.545-5.178c-0.495-0.411-1.222,0.291-0.722,0.706
					c1.721,1.428,3.191,3.083,4.39,4.972C221.254,242.475,222.134,241.979,221.785,241.429z"/>
				<path fill="#001014" d="M221.311,213.385c-2.537,0.542-5.087,1.001-7.654,1.377c-0.641,0.094-0.38,1.07,0.257,0.976
					c2.567-0.376,5.117-0.835,7.654-1.378C222.202,214.225,221.946,213.249,221.311,213.385z"/>
				<path fill="#001014" d="M169.473,237.268c-3.375-1.091-6.802-1.88-10.304-2.409c-0.082-5.572-0.372-11.133-0.878-16.684
					c-0.058-0.64-1.068-0.659-1.009-0.011c0.519,5.693,0.814,11.396,0.888,17.113c0.004,0.299,0.222,0.471,0.499,0.51
					c3.584,0.515,7.081,1.337,10.525,2.451C169.813,238.438,170.09,237.467,169.473,237.268z"/>
				<path fill="#001014" d="M180.438,262.314c-2.513-4.155-5.039-8.319-8.015-12.166c-1.464-1.893-3.035-3.705-4.752-5.372
					c-1.345-1.305-0.91-1.603-0.004-3.031c0.791-1.249,1.513-2.534,2.205-3.839c0.303-0.573-0.561-1.094-0.866-0.519
					c-1.109,2.093-2.332,4.101-3.682,6.047c-0.12,0.172-0.086,0.471,0.072,0.612c5.925,5.292,10.091,12.03,14.166,18.768
					C179.896,263.368,180.775,262.872,180.438,262.314z"/>
				<path fill="#001014" d="M189.007,244.626c-1.897,6.067-3.794,12.134-5.692,18.201c-0.194,0.621,0.776,0.898,0.97,0.279
					c1.897-6.067,3.795-12.134,5.692-18.201C190.171,244.285,189.201,244.007,189.007,244.626z"/>
				<path fill="#001014" d="M189.98,243.907c-1.963-1.771-3.926-3.541-5.89-5.312c-0.48-0.433-1.205,0.27-0.722,0.705
					c1.963,1.771,3.927,3.542,5.89,5.312C189.739,245.045,190.464,244.343,189.98,243.907z"/>
				<path fill="#001014" d="M188.311,235.843c-1.678,0.574-3.25,1.36-4.704,2.377c-0.527,0.369-0.034,1.25,0.5,0.877
					c1.384-0.968,2.862-1.731,4.461-2.278C189.178,236.61,188.927,235.632,188.311,235.843z"/>
				<path fill="#001014" d="M188.972,236.066c-1.54-4.532-3.339-8.953-5.403-13.272c-0.28-0.586-1.156-0.085-0.877,0.499
					c2.025,4.241,3.792,8.581,5.304,13.031C188.204,236.934,189.182,236.683,188.972,236.066z"/>
				<path fill="#001014" d="M183.288,264.018c-0.104-0.64-1.08-0.38-0.976,0.257c2.489,15.215,3.549,30.607,3.185,46.02
					c-0.016,0.648,0.993,0.661,1.009,0.011C186.872,294.804,185.791,279.32,183.288,264.018z"/>
				<g>
					<g>
						<g>
							<path fill="#FFAB91" d="M221.365,280.498c-2.126-1.012-4.401-0.551-6.71-0.659c-0.899-0.042-1.784,0.2-2.542,0.687
								c-1.774,1.14-3.497,1.71-5.549,3.107c-7.309,0.196-34.645-3.673-41.706-5.572c-1.792,1.665-2.354,4.193-2.339,6.639
								c0.016,2.446,1.098,4.867,2.911,6.51c5.663-0.841,35.746-1.611,41.41-2.452c1.046,1.359,2.532,2.361,4.245,2.458
								c1.443,0.082,2.984-0.169,4.148-0.985c0.042,0.035,0.084,0.069,0.124,0.105c0.575,0.531,0.713,1.374,1.304,1.852
								c0.29,0.234,0.838,0.245,1.062-0.102c0.651-1.011,0.011-2.308-0.716-3.119c-0.007-0.009-0.016-0.017-0.023-0.025
								c0.817,0.365,1.502,0.872,2.08,1.624c0.665,0.867,2.067,0.176,1.716-0.889c-0.456-1.38-1.583-2.44-2.885-3.036
								c-0.511-0.233-1.137-0.471-1.781-0.625c0.008-0.044,0.017-0.086,0.025-0.13c1.945,0.468,4.164,0.58,4.904,2.604
								c0.273,0.748,1.486,0.703,1.591-0.136c0.225-1.786-0.799-3.205-2.366-3.984c-0.951-0.474-2.034-0.735-3.049-1.03
								c-0.141-0.041-0.278-0.084-0.414-0.127c0.071-0.224,0.143-0.447,0.219-0.665c1.015-0.052,2.065,0.074,3.037,0.371
								c0.476,0.146,0.854,0.51,1.17,0.895s0.595,0.806,0.97,1.133c0.375,0.328,0.879,0.557,1.367,0.459
								c0.489-0.098,1.212-0.672,0.882-1.045C223.449,283.233,222.724,281.144,221.365,280.498z"/>
						</g>
						<path fill="#003E51" d="M203.468,282.039v9.694l-45.021,1.562c-7.091,1.179-14.075-4.457-14.421-11.637l1.5-56.06
							l19.726,21.035l-0.48,28.243L203.468,282.039z"/>
					</g>
					<path fill="#001014" d="M164.714,275.664c-1.115,0.349-1.862,1.629-2.598,2.478c-1.125,1.299-2.22,2.622-3.293,3.964
						c-0.405,0.506,0.37,1.152,0.777,0.644c0.873-1.089,1.758-2.168,2.664-3.23c0.667-0.781,1.786-2.59,2.788-2.903
						C165.672,276.419,165.333,275.469,164.714,275.664z"/>
					<path fill="#001014" d="M163.328,274.428c-2.181,1.341-4.333,2.726-6.458,4.155c-0.539,0.363,0.039,1.19,0.578,0.828
						c2.124-1.431,4.276-2.815,6.458-4.155C164.459,274.916,163.88,274.089,163.328,274.428z"/>
					<path fill="#001014" d="M198.192,282.06c-0.458,2.929-0.775,5.871-0.952,8.83c-0.039,0.642,0.955,0.825,0.993,0.177
						c0.177-2.959,0.494-5.902,0.952-8.83C199.286,281.595,198.293,281.417,198.192,282.06z"/>
					<path fill="#001014" d="M202.719,291.005c-8.056,0.889-16.146,1.426-24.25,1.568c-4.025,0.071-8.054-0.068-12.077,0.05
						c-3.885,0.114-7.814,1.07-11.686,0.337c-3.769-0.713-7.338-2.848-9.087-6.367c-1.918-3.858-0.946-9.007-0.781-13.161
						c0.322-8.09,0.643-16.181,0.964-24.271c0.026-0.643-0.974-0.654-1-0.011c-0.36,9.061-0.72,18.122-1.08,27.182
						c-0.143,3.592-0.638,7.424,1.027,10.756c1.34,2.682,3.755,4.724,6.492,5.88c3.547,1.498,7.183,1.32,10.926,0.938
						c4.447-0.454,8.91-0.271,13.372-0.298c9.079-0.058,18.144-0.607,27.167-1.604C203.339,291.936,203.359,290.935,202.719,291.005
						z"/>
					<path fill="#001014" d="M165.396,256.148c-0.022-0.642-1.022-0.656-1-0.012c0.224,6.41,0.151,12.817-0.218,19.221
						c-0.037,0.643,0.963,0.653,1,0.012C165.547,268.965,165.62,262.558,165.396,256.148z"/>
					<path fill="#001014" d="M203.176,281.856c-12.611-2.427-25.207-4.974-37.879-7.065c-0.628-0.104-0.911,0.856-0.277,0.961
						c12.673,2.092,25.269,4.639,37.88,7.065C203.527,282.938,203.808,281.978,203.176,281.856z"/>
				</g>
			</g>
			<path fill="#001014" d="M199.903,309.416c-7.856,1.413-15.798,0.517-23.677-0.205c-7.529-0.69-15.2-1.063-22.432-3.438
				c-0.618-0.203-0.895,0.768-0.279,0.97c7.315,2.402,15.084,2.778,22.699,3.477c7.978,0.73,15.994,1.603,23.946,0.172
				C200.799,310.277,200.541,309.301,199.903,309.416z"/>
			<g>
				<path fill="#7C4A39" d="M165.756,208.228c-2.661-6.505-5.322-13.01-7.983-19.515c-1.794-0.368-2.432-2.737-2.563-4.563
					c-0.347-4.851,2.354-9.788,6.625-12.112c0.835-0.454,1.781-0.822,2.718-0.662c0.937,0.161,1.804,1.028,1.656,1.967
					c1.331-2.445,3.009-4.483,5.37-5.958c1.074-0.671,2.259-1.225,3.521-1.321s2.615,0.329,3.4,1.322
					c0.785,0.994,0.824,2.585-0.09,3.461c1.15-0.832,2.381-1.122,3.71-1.62c1.329-0.497,2.862-0.617,4.143-0.004
					c1.645,0.787,2.583,2.737,2.357,4.546c-0.226,1.809-1.504,3.402-3.142,4.204c1.458,0.222,2.475,1.833,2.327,3.302
					c-0.148,1.468-1.102,2.734-2.184,3.736c-1.692,1.567-3.789,2.695-6.03,3.241c-3.245,6.559-6.559,13.065-9.804,19.624
					L165.756,208.228z"/>
				<g>
					<g>
						<path fill="#FFAB91" d="M175.068,206.219c-1.871,4.739-0.81,15.366-0.199,16.026s0.958,1.755,0.369,2.436
							c-0.6,0.692-1.708,0.496-2.575,0.196c-4.153-1.438-7.94-3.917-10.92-7.146c0.296-0.264,0.805-0.793,1.101-1.057
							c3.521-3.128,2.244-13.064,1.819-17.754L175.068,206.219z"/>
						<path fill="#FF8A65" d="M165.209,208.539c-0.093-1.983-0.303-7.544-0.467-9.354l10.326,7.034
							c-0.805,2.04-1.066,5.17-1.055,8.126C171.094,212.39,168.085,210.527,165.209,208.539z"/>
						<g>
							<path fill="#FFAB91" d="M181.917,182.703c4.055,6.419,9.496,21.84,0.319,26.568c-2.978,1.534-6.72,0.792-9.541-1.014
								s-4.917-4.521-6.952-7.18c-1.211,0.252-2.583,0.617-3.805,0.417c-1.22-0.2-2.43-0.939-2.836-2.107
								c-0.407-1.168,0.306-2.698,1.533-2.853c2.444-0.308,5.334,1.861,4.744-0.589c-0.466-1.938,0.603-3.665,0.703-5.204
								c0.121-1.865-1.527-3.451-0.81-4.794c2.925-5.484,10.651-6.926,12.563-6.753
								C177.927,179.202,181.472,181.998,181.917,182.703z"/>
							<path opacity="0.53" fill="#7C4A39" d="M168.81,201.742l-3.533-6.468c0.017,0.221,0.046,0.445,0.101,0.671
								c0.218,0.905-0.043,1.175-0.577,1.177l1.054,4.101c2.001,2.613,4.069,5.262,6.839,7.034c2.821,1.805,6.563,2.548,9.541,1.014
								c3.226-1.662,4.621-4.657,4.929-8.106C181.197,199.903,175.333,199.46,168.81,201.742z"/>
							<path fill="#FF8A65" d="M160.656,198.384c0.629-0.766,1.788-0.581,2.638-0.295c0.557,0.187,1.802,0.767,1.582,1.531
								c-0.003,0.014-0.018,0.021-0.031,0.024c-0.56,0.109-1.196-0.51-1.73-0.667c-0.769-0.225-1.519,0.046-2.269-0.147
								C160.656,198.781,160.508,198.564,160.656,198.384z"/>
							<path fill="#212121" d="M182.777,188.392c0.101-0.274,0.458-0.356,0.684-0.19c0.431,0.315,0.57,0.823,0.702,1.32
								c0.133,0.505,0.359,1.071,0.256,1.594c-0.084,0.428-0.56,0.536-0.853,0.238c-0.369-0.375-0.502-0.985-0.662-1.474
								C182.744,189.387,182.59,188.896,182.777,188.392z"/>
							<path fill="#212121" d="M173.941,191.018c0.102-0.274,0.458-0.356,0.684-0.19c0.43,0.315,0.57,0.823,0.702,1.32
								c0.133,0.505,0.359,1.071,0.256,1.594c-0.084,0.428-0.56,0.536-0.853,0.238c-0.368-0.375-0.501-0.985-0.661-1.474
								C173.908,192.013,173.755,191.521,173.941,191.018z"/>
						</g>
						<path fill="#7C4A39" d="M175.712,186.108c-1.704-0.664-3.704-0.128-4.727,1.429c-0.483,0.734,0.572,1.629,1.061,0.885
							c0.67-1.021,1.907-1.52,3.078-1.063C175.951,187.68,176.543,186.432,175.712,186.108z"/>
						<path fill="#7C4A39" d="M182.903,184.233c-0.826-0.378-1.836-0.156-2.397,0.57c-0.542,0.702,0.515,1.592,1.061,0.885
							c0.184-0.238,0.463-0.336,0.75-0.205C183.125,185.854,183.713,184.604,182.903,184.233z"/>
						<path fill="#212121" d="M180.76,202.739c-1.383,0.463-2.797,0.291-4.052-0.44c-0.638-0.372-1.121,0.668-0.487,1.038
							c1.508,0.878,3.279,1.033,4.928,0.481C181.849,203.583,181.459,202.504,180.76,202.739z"/>
						<path fill="#FF8A65" d="M181.136,192.817c-0.413-0.196-0.715,0.446-0.302,0.643c0.925,0.44,1.851,0.958,2.443,1.825
							c0.796,1.167,0.785,2.873-0.717,3.471c-0.424,0.169,0.206,0.691,0.631,0.522c1.303-0.52,1.954-1.826,1.661-3.199
							C184.49,194.383,182.602,193.515,181.136,192.817z"/>
						<g>
							<g>
								<path fill="#212121" d="M174.904,196.266c-2.106,0-3.82-1.714-3.82-3.821c0-2.106,1.714-3.819,3.82-3.819
									c2.106,0,3.819,1.713,3.819,3.819C178.723,194.551,177.01,196.266,174.904,196.266z M174.904,189.246
									c-1.765,0-3.2,1.435-3.2,3.199c0,1.765,1.435,3.2,3.2,3.2c1.764,0,3.199-1.436,3.199-3.2
									C178.103,190.681,176.667,189.246,174.904,189.246z"/>
							</g>
							<g>
								<path fill="#212121" d="M183.568,193.64c-2.106,0-3.819-1.713-3.819-3.819c0-2.106,1.713-3.821,3.819-3.821
									s3.82,1.714,3.82,3.821C187.388,191.926,185.674,193.64,183.568,193.64z M183.568,186.621c-1.764,0-3.199,1.435-3.199,3.2
									c0,1.764,1.436,3.199,3.199,3.199c1.764,0,3.2-1.435,3.2-3.199C186.768,188.056,185.332,186.621,183.568,186.621z"/>
							</g>
							<g>
								<path fill="#212121" d="M177.803,190.212l-0.448-0.429c0.659-0.688,1.617-1.056,2.568-0.995l-0.042,0.619
									C179.124,189.349,178.336,189.656,177.803,190.212z"/>
							</g>
							<g>
								
									<rect x="167.764" y="190.222" transform="matrix(0.5601 0.8284 -0.8284 0.5601 234.9305 -53.7451)" fill="#212121" width="0.621" height="8.257"/>
							</g>
						</g>
					</g>
					<path fill="#72ABAE" d="M160.058,218.489c0.915-1.944,1.83-3.889,2.745-5.833c1.757,1.606,3.57,2.717,5.752,3.667
						c1.253,3.242,1.81,5.881,2.528,9.528c-3.059-1.293-7.846-3.508-10.085-5.961C160.459,219.299,159.717,219.214,160.058,218.489z
						"/>
					<path fill="#72ABAE" d="M174.119,225.287c0.135-3.05-0.571-5.563-0.437-8.614c0.305-0.076,0.74-0.152,1.045-0.228
						c0.497,2.392,1.648,4.467,2.956,6.53C176.936,224.839,176.116,225.507,174.119,225.287z"/>
					<path fill="#3E5D5E" d="M166.473,218.228c-0.071,1.791-0.143,3.581-0.214,5.371c-1.388-1.313-2.777-2.627-4.165-3.94
						c-0.58-0.549-1.47,0.317-0.888,0.867c1.725,1.632,3.45,3.263,5.174,4.895c0.393,0.372,1.042,0.12,1.064-0.427l0.27-6.752
						C167.747,217.443,166.505,217.43,166.473,218.228z"/>
					<path fill="#3E5D5E" d="M177.043,224.225c-0.571-2.4-1.143-4.8-1.714-7.2c-0.185-0.777-1.386-0.462-1.201,0.316
						c0.571,2.4,1.143,4.8,1.714,7.2C176.027,225.318,177.229,225.003,177.043,224.225z"/>
				</g>
			</g>
		</g>
	</g>
</g>
</svg>
