<?xml version="1.0" encoding="utf-8"?>
<!-- Generator: Adobe Illustrator 16.0.0, SVG Export Plug-In . SVG Version: 6.00 Build 0)  -->
<!DOCTYPE svg PUBLIC "-//W3C//DTD SVG 1.1//EN" "http://www.w3.org/Graphics/SVG/1.1/DTD/svg11.dtd">
<svg version="1.1" id="Layer_1" xmlns="http://www.w3.org/2000/svg" xmlns:xlink="http://www.w3.org/1999/xlink" x="0px" y="0px"
	 width="500px" height="500px" viewBox="0 0 500 500" enable-background="new 0 0 500 500" xml:space="preserve">
<rect display="none" fill="#FFFFFF" width="500" height="500"/>
<g>
	<defs>
		<path id="SVGID_1_" d="M194.465,37.175v7.906C103.55,62.93,34.964,143.056,34.964,239.199c0,96.916,69.703,177.555,161.71,194.527
			v55.111h148.155v-86.585c46.108-31.736,78.094-82.521,84.584-141.001c0.532-4.807,62.51-55.457,62.51-55.457l-26.125-83.6
			l-56.868,26.836c-20.359-39.69-53.742-71.597-94.504-90.087V37.175H194.465z"/>
	</defs>
	<clipPath id="SVGID_2_">
		<use xlink:href="#SVGID_1_"  overflow="visible"/>
	</clipPath>
	<path clip-path="url(#SVGID_2_)" fill="#BBDEF2" d="M430.625,239.196c0,109.258-88.571,197.829-197.829,197.829
		S34.967,348.454,34.967,239.196c0-109.258,88.571-197.829,197.829-197.829S430.625,129.938,430.625,239.196"/>
	<path clip-path="url(#SVGID_2_)" fill="#D9ECF4" d="M69.632,323.317c-38.07,0-69.042-30.972-69.042-69.042
		c0-38.07,30.972-69.043,69.042-69.043s69.042,30.973,69.042,69.043C138.674,292.346,107.702,323.317,69.632,323.317
		 M69.632,188.292c-36.383,0-65.984,29.6-65.984,65.984s29.601,65.983,65.984,65.983c36.384,0,65.984-29.6,65.984-65.983
		S106.016,188.292,69.632,188.292"/>
	<path clip-path="url(#SVGID_2_)" fill="#D9ECF4" d="M69.632,315.066c-33.521,0-60.792-27.271-60.792-60.791
		c0-33.521,27.271-60.792,60.792-60.792s60.792,27.271,60.792,60.792C130.424,287.796,103.153,315.066,69.632,315.066
		 M69.632,196.542c-31.834,0-57.733,25.899-57.733,57.734c0,31.834,25.899,57.733,57.733,57.733s57.733-25.899,57.733-57.733
		C127.365,222.44,101.466,196.542,69.632,196.542"/>
	<path clip-path="url(#SVGID_2_)" fill="#D9ECF4" d="M77.619,299.893H60.221v-13.969c-0.933-0.554-1.836-1.16-2.721-1.827
		l-0.883,4.813H38.965V261.34h19.026v1.529c0,6.67,6.802,8.022,10.856,8.236c2.122-0.002,5.816-0.451,5.816-3.456
		c0-1.668-4.565-3.294-8.98-4.867c-9.587-3.414-24.074-8.573-24.074-24.118c0-13.167,9.128-20.066,18.612-21.314v-8.692h17.398
		v11.171c1.187,0.648,2.237,1.398,3.146,2.246l0.508-3.552h17.704v26.856h-18.72v-1.529c0-5.929-3.832-9.759-9.761-9.759
		c-1.803,0-4.471,1.162-4.471,3.657c0,2.913,5.1,4.816,11.004,7.021c9.821,3.667,23.27,8.689,23.27,23.388
		c0,14.674-11.447,20.527-22.68,21.2V299.893z M63.279,296.834h11.282v-10.445l1.499-0.029c4.969-0.097,21.181-1.695,21.181-18.202
		c0-12.577-11.307-16.799-21.282-20.523c-6.972-2.603-12.992-4.851-12.992-9.886c0-4.148,3.908-6.716,7.529-6.716
		c7.146,0,12.106,4.475,12.748,11.289h12.675v-20.74H83.925l-1.242,8.693l-2.214-3.749c-1.077-1.822-2.773-3.297-5.039-4.382
		l-0.869-0.416v-10.011H63.279v8.437l-1.419,0.102c-6.386,0.462-17.192,4.858-17.192,18.409c0,13.388,12.221,17.74,22.041,21.237
		c6.152,2.191,11.012,3.923,11.012,7.748c0,4.078-3.347,6.512-8.954,6.512c-8.003-0.419-12.996-4.028-13.738-9.763H42.024v21.452
		h12.045l1.377-7.509l2.027,1.788c1.619,1.428,3.26,2.597,5.019,3.573l0.787,0.438V296.834z"/>
	<path clip-path="url(#SVGID_2_)" fill="#D9ECF4" d="M360.55,253.081h-14.221V237.77h-8.186v15.312h-14.211V237.77h-19.655v-19.124
		h7.167V167.33h-7.167v-19.002h19.655v-15.312h14.211v15.312h8.186v-15.312h14.221v15.827c19.097,2.477,23.16,13.35,23.16,22.146
		c0,9.84-2.577,15.195-9.567,18.958c8.802,3.749,13.768,11.302,13.768,21.207c0,16.516-8.455,24.674-27.36,26.309V253.081z
		 M349.387,250.023h8.104v-15.406l1.427-0.097c18.178-1.227,25.935-8.216,25.935-23.367c0-13.32-9.519-17.958-15.192-19.537
		l-4.362-1.214l4.205-1.68c8.44-3.369,11.149-7.678,11.149-17.734c0-11.267-7.333-17.748-21.791-19.265l-1.37-0.143v-15.506h-8.104
		v15.311h-14.301v-15.311h-8.095v15.311h-19.654v12.885h7.167v57.433h-7.167v13.008h19.654v15.312h8.095v-15.312h14.301V250.023z
		 M348.439,221.704h-11.406v-24.557h11.039c7.233,0,11.907,4.87,11.907,12.406C359.979,217.446,354.034,221.704,348.439,221.704
		 M340.091,218.646h8.349c4.214,0,8.481-3.123,8.481-9.093c0-5.853-3.309-9.348-8.849-9.348h-7.981V218.646z M346.095,186.24h-9.062
		v-21.591h9.307c0.636,0,1.241,0.053,1.801,0.158c4.85,0.797,7.884,4.778,7.884,10.382c0,4.287-0.827,10.084-7.985,10.937
		C347.462,186.202,346.819,186.24,346.095,186.24 M340.091,183.181h6.004c0.593,0,1.104-0.029,1.566-0.089
		c3.821-0.456,5.305-2.671,5.305-7.903c0-4.063-2.002-6.819-5.355-7.37c-0.408-0.076-0.824-0.112-1.271-0.112h-6.249V183.181z"/>
	<path clip-path="url(#SVGID_2_)" fill="#D9ECF4" d="M391.549,376.327c-2.623,0-5.246-0.199-7.843-0.607
		c-16.313-2.56-31.134-13.273-38.681-27.962c-4.85-9.439-6.834-20.281-8.753-30.766c-2.735-14.943-5.32-29.058-15.54-38.958
		c-9.695-9.394-24.54-13.214-46.722-12.002c-2.794,0.151-5.604,0.35-8.422,0.547c-14.281,1.005-29.05,2.045-42.668-2.931
		c-16.311-5.96-30.41-20.8-39.701-41.788c-4.95-11.181-8.335-23.101-11.608-34.63c-1.937-6.82-3.939-13.872-6.24-20.674
		c-7.546-22.306-17.556-37.696-30.604-47.049c-21.893-15.695-55.242-13.006-74.338,5.997l-2.157-2.169
		c20.108-20.008,55.224-22.84,78.277-6.314c13.585,9.74,23.96,25.622,31.719,48.556c2.324,6.872,4.338,13.962,6.285,20.818
		c3.245,11.427,6.599,23.242,11.463,34.227c8.95,20.222,22.43,34.481,37.953,40.153c13.005,4.753,27.441,3.736,41.405,2.754
		c2.833-0.2,5.661-0.398,8.47-0.552c14.521-0.789,35.415-0.314,49.016,12.86c10.924,10.581,13.718,25.843,16.418,40.604
		c1.881,10.267,3.824,20.882,8.467,29.919c7.109,13.835,21.07,23.927,36.435,26.339c15.366,2.407,31.748-2.92,42.752-13.912
		l2.162,2.164C419.27,370.764,405.409,376.326,391.549,376.327"/>
	<path clip-path="url(#SVGID_2_)" fill="#D9ECF4" d="M113.018,103.151c-6.559,0-5.632,10.155,0.889,10.155
		C120.465,113.306,119.539,103.151,113.018,103.151"/>
	<path clip-path="url(#SVGID_2_)" fill="#D9ECF4" d="M337.459,310.022c-6.56,0-5.632,10.155,0.889,10.155
		C344.906,320.178,343.98,310.022,337.459,310.022"/>
	<path clip-path="url(#SVGID_2_)" fill="#D9ECF4" d="M366.364,364.999c-6.56,0-5.632,10.155,0.888,10.155
		C373.812,375.154,372.886,364.999,366.364,364.999"/>
	<path clip-path="url(#SVGID_2_)" fill="#D9ECF4" d="M290.417,261.28c-6.56,0-5.632,10.155,0.889,10.155
		C297.864,271.436,296.938,261.28,290.417,261.28"/>
	<path clip-path="url(#SVGID_2_)" fill="#D9ECF4" d="M186.131,222.173c-6.559,0-5.632,10.155,0.889,10.155
		C193.579,232.328,192.652,222.173,186.131,222.173"/>
	<path clip-path="url(#SVGID_2_)" fill="#D9ECF4" d="M186.575,465.447c-29.622,0-53.722-24.1-53.722-53.722
		s24.1-53.722,53.722-53.722s53.722,24.1,53.722,53.722S216.197,465.447,186.575,465.447 M186.575,360.384
		c-28.31,0-51.342,23.032-51.342,51.342c0,28.311,23.032,51.342,51.342,51.342s51.342-23.031,51.342-51.342
		C237.917,383.416,214.885,360.384,186.575,360.384"/>
	<path clip-path="url(#SVGID_2_)" fill="#D9ECF4" d="M186.575,459.027c-26.082,0-47.302-21.22-47.302-47.302
		s21.22-47.302,47.302-47.302s47.302,21.22,47.302,47.302S212.657,459.027,186.575,459.027 M186.575,366.804
		c-24.77,0-44.922,20.151-44.922,44.922s20.152,44.922,44.922,44.922s44.922-20.151,44.922-44.922S211.345,366.804,186.575,366.804"
		/>
	<path clip-path="url(#SVGID_2_)" fill="#D9ECF4" d="M192.79,447.221h-13.537v-10.869c-0.726-0.432-1.429-0.903-2.118-1.422
		l-0.687,3.744h-13.734v-21.451h14.803v1.19c0,5.189,5.293,6.242,8.448,6.407c1.65-0.001,4.524-0.351,4.524-2.688
		c0-1.299-3.551-2.564-6.987-3.787c-7.459-2.657-18.731-6.672-18.731-18.767c0-10.246,7.103-15.614,14.482-16.585v-6.763h13.537
		v8.691c0.924,0.504,1.741,1.088,2.448,1.748l0.395-2.764h13.775v20.896h-14.566v-1.189c0-4.613-2.981-7.594-7.594-7.594
		c-1.403,0-3.479,0.904-3.479,2.846c0,2.266,3.967,3.747,8.562,5.463c7.641,2.854,18.106,6.761,18.106,18.198
		c0,11.417-8.907,15.973-17.647,16.496V447.221z M181.632,444.841h8.779v-8.127l1.166-0.023c3.866-0.075,16.481-1.319,16.481-14.163
		c0-9.786-8.798-13.071-16.559-15.969c-5.425-2.025-10.11-3.775-10.11-7.692c0-3.228,3.041-5.226,5.859-5.226
		c5.56,0,9.419,3.481,9.919,8.783h9.862v-16.138h-9.332l-0.966,6.765l-1.724-2.917c-0.837-1.418-2.157-2.566-3.92-3.41l-0.676-0.323
		v-7.79h-8.779v6.565l-1.104,0.079c-4.969,0.359-13.377,3.78-13.377,14.324c0,10.416,9.509,13.804,17.149,16.524
		c4.788,1.705,8.569,3.052,8.569,6.029c0,3.173-2.604,5.066-6.966,5.066c-6.228-0.326-10.113-3.135-10.69-7.597h-10.12v16.692h9.372
		l1.072-5.844l1.577,1.393c1.26,1.11,2.537,2.021,3.906,2.78l0.612,0.34V444.841z"/>
	<polygon clip-path="url(#SVGID_2_)" fill="#EA6C6C" points="482.469,203.385 450.823,189.374 385.222,327.048 345.158,268.178 
		305.723,348.863 121.299,348.863 4.869,465.281 -16.877,443.535 108.552,318.105 286.517,318.105 340.773,207.087 380.506,265.444 
		422.688,176.912 392.273,163.436 460.482,129.238 	"/>
	<path clip-path="url(#SVGID_2_)" fill="#140B38" d="M186.889,131.711c-2.039-0.273-4.352-0.945-6.937-2.073
		c-10.981-4.807-19.32-2.745-19.32-2.745l-8.76,12.404c0,0,0.684-7.016-3.747-8.657c-1.459-0.535-3.19,0.376-4.568,2.096
		c0.456-3.725,0.319-8.498-0.444-13.76c-1.105-7.655,8.235-8.339,8.235-8.339s-3.485-3.804,4.853-7.495s17.258,7.598,29.139,11.824
		c11.869,4.226,16.096,2.164,13.829,9.079C197.426,129.33,193.53,132.611,186.889,131.711"/>
	<path clip-path="url(#SVGID_2_)" fill="#F49F9F" d="M168.378,167.867c-0.501,0.194-1.002,0.365-1.503,0.501
		c-9.706,2.688-17.019-5.843-17.418-6.288c0.205,0.695,3.441,11.016,14.034,13.043l-4.761,9.512l-20.732-21.005l3.622-8.316
		l3.133-7.199c-5.309-4.956-3.976-11.858-1.196-15.378c1.378-1.721,3.109-2.632,4.568-2.097c4.431,1.641,3.747,8.658,3.747,8.658
		l8.76-12.405c0,0,8.338-2.062,19.32,2.745c2.585,1.128,4.898,1.8,6.937,2.073c-0.957,4.853-4.887,22.794-12.246,31.543h-0.011
		v0.011c-1.344,1.595-2.802,2.894-4.386,3.736C169.621,167.343,168.993,167.628,168.378,167.867"/>
	<path clip-path="url(#SVGID_2_)" fill="#140B38" d="M166.875,168.368l-3.383,6.755c-10.594-2.028-13.829-12.348-14.034-13.043
		C149.856,162.524,157.169,171.056,166.875,168.368"/>
	<path clip-path="url(#SVGID_2_)" fill="#EA6C6C" d="M175.218,141.886c0,0,0.644,14.129-0.132,15.853
		c-0.775,1.723-5.91-2.355-5.91-2.355l-3.493-0.625L175.218,141.886z"/>
	<path clip-path="url(#SVGID_2_)" fill="#E87777" d="M147.668,133.199c-0.889-0.546-1.942-0.428-2.794,0.132
		c-0.928,0.611-1.422,1.649-1.86,2.63c-0.299,0.67,0.731,1.157,1.03,0.487c0.328-0.734,0.661-1.546,1.309-2.06
		c0.651-0.516,1.423-0.551,2.044,0.027c1.357,1.266,1.258,3.2,0.853,4.847c-0.179,0.731-0.414,1.481-0.839,2.11
		c-0.342,0.506-0.957,1.142-1.632,1.071c-0.731-0.077-0.669-1.058-0.565-1.58c0.064-0.323,0.181-0.765,0.488-0.946
		c0.14-0.082,0.463-0.144,0.549,0.045c0.303,0.662,1.374,0.272,1.068-0.398c-0.342-0.747-1.184-1.036-1.948-0.75
		c-0.82,0.308-1.196,1.24-1.312,2.043c-0.112,0.774-0.031,1.679,0.567,2.249c0.675,0.643,1.673,0.558,2.438,0.133
		c1.607-0.892,2.19-2.943,2.492-4.626C149.899,136.699,149.458,134.297,147.668,133.199"/>
	<path clip-path="url(#SVGID_2_)" fill="#140B38" d="M164.525,160.136c-2.45-0.625-4.605-2.36-5.723-4.63
		c-0.136-0.276-0.423-0.45-0.733-0.335c-0.266,0.098-0.472,0.455-0.335,0.732c1.306,2.652,3.718,4.622,6.585,5.354
		C165.031,161.438,165.232,160.316,164.525,160.136"/>
	<path clip-path="url(#SVGID_2_)" fill="#140B38" d="M172.226,134.169c-2.26-1.055-4.788-1.498-7.272-1.263
		c-0.89,0.084-1.676,0.931-1.553,1.851c0.121,0.913,0.897,1.644,1.851,1.554c0.267-0.026,0.536-0.044,0.804-0.053
		c0.065-0.002,0.793-0.042,0.807,0.001c-0.266-0.013-0.304-0.015-0.113-0.004c0.038,0.003,0.077,0.005,0.115,0.008
		c0.153,0.011,0.306,0.025,0.459,0.042c0.248,0.028,0.495,0.063,0.741,0.105c0.246,0.043,0.491,0.092,0.734,0.15
		c0.149,0.035,0.298,0.073,0.446,0.114c0.088,0.025,0.269,0.039,0.332,0.097c-0.239-0.079-0.269-0.088-0.093-0.03
		c0.036,0.013,0.073,0.025,0.109,0.038c0.145,0.051,0.289,0.104,0.432,0.16c0.25,0.098,0.496,0.206,0.74,0.32
		c0.811,0.378,1.916,0.038,2.275-0.815C173.398,135.594,173.091,134.573,172.226,134.169"/>
	<path clip-path="url(#SVGID_2_)" fill="#140B38" d="M186.494,142.279c-0.034-0.149-0.067-0.298-0.101-0.447
		c-0.106-0.282-0.274-0.519-0.503-0.713c-1.478-1.557-3.479-2.605-5.572-3.048c-0.874-0.185-1.866,0.475-1.99,1.372
		c-0.129,0.939,0.436,1.792,1.372,1.99c0.226,0.048,0.447,0.112,0.668,0.175c0.625,0.217,1.223,0.498,1.79,0.84
		c0.554,0.377,1.073,0.802,1.535,1.289c0.282,0.296,0.861,0.427,1.248,0.393c0.417-0.036,0.9-0.266,1.159-0.603
		C186.37,143.176,186.554,142.731,186.494,142.279"/>
	<path clip-path="url(#SVGID_2_)" fill="#140B38" d="M169.258,140.957c0,1.445-1.171,2.616-2.616,2.616
		c-1.445,0-2.616-1.171-2.616-2.616s1.171-2.616,2.616-2.616C168.087,138.341,169.258,139.512,169.258,140.957"/>
	<path clip-path="url(#SVGID_2_)" fill="#140B38" d="M182.977,146.189c0,1.445-1.171,2.616-2.616,2.616
		c-1.445,0-2.616-1.171-2.616-2.616s1.171-2.616,2.616-2.616C181.806,143.573,182.977,144.744,182.977,146.189"/>
	<path clip-path="url(#SVGID_2_)" fill="#22386B" d="M272.289,437.76c-0.558-0.092-1.082-0.194-1.561-0.319
		c-6.961-1.8-1.48-5.707-1.48-5.707l-21.233-96.734c0,0,9.101-12.508-2.404-21.586c-12.701-10.024-47.547-16.313-48.937-16.563
		c1.538,0.479,40.94,12.872,48.094,24.059c0.832,1.299,1.378,3.748,1.709,7.085v0.046c2.495,25.995-8.68,104.971-8.68,104.971
		c0.945,1.788-0.422,3.588-0.422,3.588c3.167,4.329,0.843,6.538,0.843,6.538c-0.854,0.183-1.731,0.354-2.62,0.502
		c-8.11,1.355-17.144,1.139-21.45,0.923c-1.594-0.08-2.528-0.16-2.528-0.16c-3.27-2.426,0-4.853,0-4.853l-5.172-96.473
		c-2.427-3.485,0-5.285,0-5.285s-46.021-3.27-68.507-7.802c-22.486-4.547-20.538-26.03-20.538-26.03l38.046-15.412
		c2.666,0.854,4.249,1.321,4.249,1.321l0.661-1.516c0,0,8.646,3.497,15.686-2.277c0,0,9.899,6.333,12.507,5.854
		c1.242-0.228-0.273-3.109-2.198-6.06c0.319,0.307,6.743,6.538,7.962,3.189c0.285-0.786-0.046-1.823-0.729-2.95
		c0.046-0.126,0.114-0.297,0.182-0.502h2.438h6.596h3.645h2.369c0,0,72.05,6.345,77.324,35.508
		c2.495,13.782,6.334,107.669,6.334,107.669s3.69,2.529,0,3.805c0,0,4.237,3.475,1.641,4.853c0,0-0.319,0.034-0.9,0.091
		C289.979,437.839,278.736,438.808,272.289,437.76"/>
	<path clip-path="url(#SVGID_2_)" fill="#140B38" d="M245.611,313.413c11.505,9.078,2.404,21.586,2.404,21.586l-1.538-6.96v-0.046
		c-0.33-3.337-0.877-5.786-1.709-7.085c-7.154-11.187-46.556-23.58-48.094-24.058C198.064,297.102,232.91,303.389,245.611,313.413"
		/>
	<path clip-path="url(#SVGID_2_)" fill="#140B38" d="M221.66,323.642c-4.574,3.225-8.783,6.947-12.546,11.089
		c-0.495,0.544,0.379,1.274,0.872,0.732c3.701-4.072,7.835-7.721,12.332-10.892C222.917,324.149,222.261,323.219,221.66,323.642"/>
	<path clip-path="url(#SVGID_2_)" fill="#140B38" d="M212.489,323.143c-1.682,3.03-3.471,6-5.369,8.9
		c-0.397,0.606,0.472,1.346,0.873,0.732c1.952-2.981,3.797-6.029,5.526-9.146C213.876,322.987,212.843,322.505,212.489,323.143"/>
	<path clip-path="url(#SVGID_2_)" fill="#140B38" d="M216.812,337.519c-0.098-0.265-0.456-0.474-0.732-0.335l-5.066,2.535
		c-0.275,0.138-0.451,0.422-0.335,0.733c0.098,0.265,0.456,0.474,0.733,0.336c1.688-0.847,3.377-1.691,5.065-2.537
		C216.752,338.113,216.928,337.83,216.812,337.519"/>
	<path clip-path="url(#SVGID_2_)" fill="#140B38" d="M311.862,453.479c9.398,0.262,18.432,6.459,15.595,11.688
		c-2.836,5.228-19.673,7.699-19.673,7.699l-34.55-17.439l-0.945-17.668c6.447,1.048,17.69,0.079,20.926-0.229l0.046,0.354
		L311.862,453.479z"/>
	<path clip-path="url(#SVGID_2_)" fill="#140B38" d="M255.841,461.772c9.887,0.284,19.398,6.813,16.414,12.313
		c-2.984,5.502-20.709,8.11-20.709,8.11l-36.361-18.374l-1.036-19.262c4.305,0.216,13.339,0.433,21.449-0.923l0.661,1.72
		L255.841,461.772z"/>
	<path clip-path="url(#SVGID_2_)" fill="#FFFFFF" d="M266.293,469.722c-1.08-1.893-2.737-3.434-4.687-4.404
		c-0.658-0.328-1.143,0.703-0.487,1.029c1.785,0.89,3.253,2.298,4.244,4.034c0.152,0.267,0.561,0.301,0.794,0.136
		C266.429,470.324,266.446,469.99,266.293,469.722"/>
	<path clip-path="url(#SVGID_2_)" fill="#FFFFFF" d="M266.486,472.179c-0.329,0.044-0.516,0.298-0.518,0.617
		c0,0.053-0.002,0.105-0.004,0.158c-0.002,0.034-0.007,0.086-0.008,0.1c-0.01,0.106-0.023,0.212-0.04,0.316
		c-0.02,0.12-0.044,0.24-0.073,0.358c-0.011,0.044-0.022,0.088-0.034,0.132c-0.003,0.011-0.015,0.05-0.023,0.083
		c-0.062,0.214-0.159,0.428-0.261,0.627c-0.048,0.095-0.1,0.188-0.153,0.279c-0.014,0.021-0.026,0.044-0.04,0.065
		c-0.002,0.003-0.001,0.001-0.004,0.005c-0.034,0.05-0.068,0.101-0.104,0.149c-0.175,0.241-0.186,0.605,0.07,0.803
		c0.23,0.177,0.616,0.188,0.803-0.07c0.659-0.913,1.002-1.979,1.007-3.104C267.104,472.398,266.772,472.142,266.486,472.179"/>
	<path clip-path="url(#SVGID_2_)" fill="#FFFFFF" d="M321.635,460.505c-0.67-1.458-1.852-2.651-3.326-3.298
		c-0.273-0.119-0.637-0.018-0.759,0.271c-0.117,0.277-0.021,0.631,0.272,0.759c0.163,0.071,0.324,0.15,0.481,0.236
		c0.075,0.041,0.149,0.084,0.223,0.129c0.017,0.01,0.067,0.042,0.074,0.048c0.02,0.012,0.04,0.024,0.06,0.038
		c0.29,0.197,0.563,0.421,0.813,0.665c0.062,0.061,0.121,0.122,0.181,0.184l0.002,0.002c0.004,0.005,0.003,0.004,0.01,0.012
		c0.032,0.035,0.063,0.07,0.093,0.106c0.111,0.13,0.217,0.266,0.316,0.405s0.193,0.283,0.28,0.432
		c0.023,0.04,0.047,0.08,0.069,0.121c0.01,0.017,0.079,0.156,0.02,0.035c0.041,0.084,0.084,0.167,0.123,0.252
		c0.124,0.271,0.435,0.462,0.732,0.335C321.566,461.125,321.769,460.795,321.635,460.505"/>
	<path clip-path="url(#SVGID_2_)" fill="#FFFFFF" d="M321.873,463.34c-0.048-0.128-0.162-0.262-0.291-0.316
		c-0.274-0.115-0.635-0.021-0.758,0.271c-0.078,0.184-0.174,0.357-0.277,0.528c-0.178,0.269-0.381,0.52-0.617,0.738l0.024-0.022
		c-0.109,0.099-0.193,0.2-0.222,0.352c-0.025,0.138,0.008,0.318,0.096,0.432c0.089,0.114,0.215,0.211,0.362,0.231
		c0.143,0.02,0.319,0.004,0.432-0.096c0.527-0.465,0.957-1.025,1.23-1.676C321.913,463.643,321.927,463.484,321.873,463.34"/>
	<path clip-path="url(#SVGID_2_)" fill="#FFFFFF" d="M308.654,469.704c-8.446-4.431-16.892-8.86-25.338-13.291l-7.275-3.816
		c-0.651-0.341-1.135,0.69-0.487,1.03c8.446,4.431,16.893,8.86,25.338,13.291l7.275,3.816
		C308.818,471.075,309.301,470.044,308.654,469.704"/>
	<path clip-path="url(#SVGID_2_)" fill="#FFFFFF" d="M253.53,477.986c-9.365-4.648-18.685-9.387-27.958-14.216
		c-2.619-1.364-5.235-2.735-7.847-4.113c-0.651-0.344-1.134,0.688-0.487,1.029c9.247,4.879,18.54,9.669,27.878,14.369
		c2.639,1.326,5.281,2.647,7.927,3.961C253.701,479.344,254.187,478.313,253.53,477.986"/>
	<path clip-path="url(#SVGID_2_)" fill="#140B38" d="M232.272,433.559c-5.637,1.159-11.265,2.364-16.882,3.615
		c-0.705,0.157-0.615,1.294,0.099,1.135c5.617-1.251,11.245-2.456,16.882-3.615C233.081,434.547,232.99,433.411,232.272,433.559"/>
	<path clip-path="url(#SVGID_2_)" fill="#140B38" d="M232.457,437.401c-3.793,0.479-7.585,0.959-11.378,1.439
		c-0.726,0.092-0.63,1.227,0.099,1.135c3.793-0.479,7.586-0.96,11.378-1.439C233.281,438.444,233.186,437.31,232.457,437.401"/>
	<path clip-path="url(#SVGID_2_)" fill="#140B38" d="M288.613,426.675c-5.239,1.016-10.511,1.852-15.807,2.506
		c-0.726,0.09-0.63,1.225,0.1,1.135c5.296-0.654,10.567-1.49,15.807-2.505C289.426,427.672,289.333,426.536,288.613,426.675"/>
	<path clip-path="url(#SVGID_2_)" fill="#140B38" d="M287.769,430.468c-3.483,0.632-7.005,1.021-10.542,1.165
		c-0.732,0.03-0.632,1.165,0.1,1.136c3.537-0.145,7.058-0.533,10.541-1.166C288.583,431.473,288.49,430.337,287.769,430.468"/>
	<path clip-path="url(#SVGID_2_)" fill="#FFFFFF" d="M171.933,187.904l-3.646,50.03l-21.267-48.128
		c1.322-2.551,3.258-3.918,5.172-4.636c3.292-1.23,6.538-0.535,6.538-0.535s3.862-1.128,8.475,0.535
		C168.731,185.729,170.35,186.583,171.933,187.904"/>
	<path clip-path="url(#SVGID_2_)" fill="#58C3ED" d="M208.817,236.032v49.574h-47.262l-1.196,2.745l-0.661,1.516
		c0,0-1.584-0.467-4.249-1.321l-38.047,15.412c-5.046-0.946-3.109-6.334-3.109-6.334c-1.664-3.246,1.583-3.793,1.583-3.793
		l1.526-19.684c-10.149-4.762-18.431-9.945-19.57-14.513c-3.167-12.748-0.421-66.877-0.421-66.877
		c-1.003-3.486,1.366-5.913,1.366-5.913s-2.791-2.791-2.847-5.274c-0.057-2.46,34.003-18.066,34.527-18.306
		c-1.117,5.241-3.805,21.165,1.366,33.719l9.182-0.844l-5.821,7.804l33.103,33.991l14.831-44.437l-6.436-4.329l7.177-4.533
		c-0.98-8.646-8.908-20.881-9.227-21.371v-0.011h0.011c0.547,0.091,16.415,2.597,19.137,4.545c2.768,1.971-1.105,4.112-1.105,4.112
		s3.258,1.766,2.108,3.543L208.817,236.032z"/>
	<polygon clip-path="url(#SVGID_2_)" fill="#58C3ED" points="154.515,261.72 128.76,241.261 125.695,203.578 123.166,242.685 	"/>
	<polygon clip-path="url(#SVGID_2_)" fill="#140B38" points="199.756,245.806 206.447,285.606 202.802,285.606 202.802,264.567 
		192.961,246 193.302,196.049 	"/>
	<path clip-path="url(#SVGID_2_)" fill="#F49F9F" d="M186.354,285.869c1.925,2.95,3.44,5.832,2.198,6.06
		c-2.608,0.479-12.507-5.854-12.507-5.854c-7.04,5.773-15.686,2.277-15.686,2.277l6.63-15.275c0,0,11.824-2.289,13.965-2.05
		c2.142,0.238,12.986,9.579,13.305,11.243c0.194,1.07-0.194,2.472-0.489,3.337c-0.069,0.205-0.137,0.376-0.183,0.502
		c0.684,1.127,1.014,2.164,0.729,2.95C193.097,292.407,186.673,286.176,186.354,285.869"/>
	<path clip-path="url(#SVGID_2_)" fill="#27ADD6" d="M183.859,184.635l-7.176,4.534l6.436,4.328l-14.832,44.438l2.723-37.341
		l0.923-12.69c0,0-1.185-14.375-3.554-20.037c0.615-0.239,1.241-0.524,1.868-0.866c1.583-0.843,3.041-2.141,4.385-3.736
		C174.951,163.755,182.88,175.989,183.859,184.635"/>
	<path clip-path="url(#SVGID_2_)" fill="#EEF4FF" d="M171.933,187.904c-1.583-1.321-3.201-2.175-4.728-2.734
		c-4.613-1.663-8.475-0.535-8.475-0.535l4.762-9.512l3.383-6.755c0.501-0.136,1.003-0.307,1.504-0.501
		C170.748,173.529,171.933,187.904,171.933,187.904"/>
	<polygon clip-path="url(#SVGID_2_)" fill="#140B38" points="166.123,191.492 171.01,200.594 168.287,237.934 155.37,208.693 
		156.099,192.757 	"/>
	<path clip-path="url(#SVGID_2_)" fill="#27ADD6" d="M130.457,163.253c0.239-1.116,0.41-1.743,0.41-1.743l10.742-6.197h0.012
		l-3.623,8.316c-3.281,10.924,9.022,26.177,9.022,26.177l8.35,18.886l12.917,29.242l-33.103-33.992l5.821-7.803l-9.181,0.843
		c-5.172-12.553-2.483-28.478-1.367-33.718V163.253z"/>
	<path clip-path="url(#SVGID_2_)" fill="#140B38" d="M167.205,185.17l-1.082,6.322l-10.024,1.265l-3.908-7.587
		c3.292-1.23,6.539-0.535,6.539-0.535S162.592,183.507,167.205,185.17"/>
	<path clip-path="url(#SVGID_2_)" fill="#EEF4FF" d="M158.73,184.635c0,0-3.247-0.695-6.539,0.535
		c-1.913,0.718-3.85,2.085-5.171,4.636c0,0-12.303-15.252-9.022-26.176L158.73,184.635z"/>
	<polygon clip-path="url(#SVGID_2_)" fill="#140B38" points="128.76,241.261 154.515,261.72 123.167,242.685 125.696,203.578 	"/>
	<path clip-path="url(#SVGID_2_)" fill="#140B38" d="M108.092,187.139c-2.252-1.085-4.467-2.249-6.64-3.487
		c-0.638-0.364-1.12,0.669-0.486,1.03c2.172,1.238,4.386,2.401,6.639,3.487C108.267,188.488,108.753,187.458,108.092,187.139"/>
	<path clip-path="url(#SVGID_2_)" fill="#140B38" d="M104.585,190.628c-1.002-0.058-2.003-0.045-3.002,0.058
		c-0.296,0.031-0.559,0.309-0.518,0.617c0.04,0.303,0.3,0.551,0.617,0.518c0.464-0.048,0.929-0.079,1.396-0.09
		c0.223-0.006,0.447-0.007,0.671-0.004c0.112,0.002,0.224,0.004,0.336,0.008c0.037,0.001,0.074,0.002,0.111,0.004
		c0.023,0.001,0.032,0.001,0.041,0.002c0.01,0,0.014,0,0.031,0.001c0.037,0.002,0.074,0.004,0.111,0.007
		c0.16,0.008,0.297,0,0.433-0.096c0.111-0.079,0.211-0.224,0.231-0.362C105.08,191.018,104.903,190.646,104.585,190.628"/>
	<path clip-path="url(#SVGID_2_)" fill="#140B38" d="M191.485,170.869c-0.241-0.202-0.598-0.161-0.802,0.07
		c-1.074,1.217-2.239,2.248-3.582,3.175c-0.254,0.174-0.312,0.546-0.136,0.794c0.18,0.254,0.54,0.311,0.794,0.136
		c1.396-0.964,2.674-2.101,3.796-3.372C191.759,171.441,191.716,171.063,191.485,170.869"/>
	<path clip-path="url(#SVGID_2_)" fill="#140B38" d="M191.993,175.954c-1.433,0.506-2.866,1.012-4.298,1.519
		c-0.691,0.243-0.296,1.312,0.397,1.067c1.433-0.506,2.865-1.012,4.298-1.518C193.081,176.778,192.685,175.709,191.993,175.954"/>
	<path clip-path="url(#SVGID_2_)" fill="#140B38" d="M171.854,186.887c-2.183-1.341-4.444-2.707-7.015-3.121
		c-2.165-0.349-4.049,0.175-5.886,1.12c-0.07-0.129-0.191-0.232-0.377-0.269c-2.251-0.445-4.608-0.247-6.753,0.57
		c-1.841,0.701-4.401,2.046-4.747,4.202c-0.117,0.724,1.004,0.931,1.12,0.206c0.153-0.95,0.939-1.585,1.687-2.107
		c0.823-0.575,1.719-1.024,2.667-1.353c1.648-0.572,3.402-0.718,5.123-0.488c-0.35,0.423,0.233,1.142,0.798,0.801
		c0.975-0.589,1.98-1.156,3.088-1.454c1.16-0.313,2.389-0.263,3.556-0.017c2.277,0.48,4.295,1.738,6.252,2.94
		C171.993,188.301,172.473,187.267,171.854,186.887"/>
	<path clip-path="url(#SVGID_2_)" fill="#140B38" d="M154.921,287.916c-9.486-3.747-18.972-7.494-28.458-11.242
		c-2.692-1.063-5.383-2.126-8.075-3.189c-0.679-0.269-1.169,0.761-0.487,1.03c9.486,3.747,18.973,7.495,28.458,11.242
		c2.692,1.063,5.383,2.126,8.075,3.189C155.114,289.215,155.604,288.188,154.921,287.916"/>
	<path clip-path="url(#SVGID_2_)" fill="#140B38" d="M168.527,270.863c-10.711-7.275-21.422-14.551-32.133-21.826
		c-3.021-2.051-6.042-4.104-9.063-6.155c-0.602-0.409-1.339,0.46-0.732,0.872c10.711,7.275,21.422,14.55,32.133,21.826
		c3.021,2.052,6.042,4.104,9.063,6.156C168.396,272.145,169.134,271.275,168.527,270.863"/>
	<path clip-path="url(#SVGID_2_)" fill="#EA6C6C" d="M186.932,285.888c-2.305-2.025-4.61-4.051-6.915-6.076
		c-0.552-0.484-1.283,0.39-0.732,0.873c2.305,2.025,4.61,4.05,6.915,6.075C186.751,287.245,187.482,286.371,186.932,285.888"/>
	<path clip-path="url(#SVGID_2_)" fill="#EA6C6C" d="M192.764,284.801c-2.96-2.776-5.921-5.554-8.881-8.33
		c-0.536-0.503-1.266,0.372-0.732,0.872c2.96,2.777,5.921,5.554,8.881,8.331C192.568,286.176,193.298,285.302,192.764,284.801"/>
	<polygon clip-path="url(#SVGID_2_)" fill="#EBF3F7" points="174.502,297.883 264.931,297.883 285.473,232.649 212.875,232.649 
		193.789,293.779 173.188,293.779 	"/>
	<polygon clip-path="url(#SVGID_2_)" fill="#D9ECF4" points="285.473,232.649 210.707,297.883 264.931,297.883 	"/>
	<path clip-path="url(#SVGID_2_)" fill="#7CC0D8" d="M265.868,292.882h-70.877c-0.777,0-0.667,1.135,0.106,1.135h70.876
		C266.751,294.017,266.642,292.882,265.868,292.882"/>
	<path clip-path="url(#SVGID_2_)" fill="#58C3ED" d="M308.431,53.792v5.472H207.02v-5.472c0-6.615,5.412-12.026,12.026-12.026
		h77.358C303.019,41.767,308.431,47.178,308.431,53.792"/>
	<path clip-path="url(#SVGID_2_)" fill="#22386B" d="M301.698,50.487c0,2.385-1.933,4.318-4.318,4.318
		c-2.385,0-4.318-1.933-4.318-4.318c0-2.385,1.934-4.318,4.318-4.318C299.766,46.169,301.698,48.102,301.698,50.487"/>
	<path clip-path="url(#SVGID_2_)" fill="#F49F9F" d="M284.873,50.515c0,2.385-1.934,4.318-4.318,4.318s-4.318-1.933-4.318-4.318
		c0-2.385,1.934-4.318,4.318-4.318S284.873,48.13,284.873,50.515"/>
	<path clip-path="url(#SVGID_2_)" fill="#FDFFFF" d="M267.105,50.515c0,2.385-1.934,4.318-4.318,4.318s-4.318-1.933-4.318-4.318
		c0-2.385,1.934-4.318,4.318-4.318S267.105,48.13,267.105,50.515"/>
	<path clip-path="url(#SVGID_2_)" fill="#FFFFFF" d="M308.435,59.266v139.538c0,6.891-5.42,12.524-12.027,12.524h-28.774
		l-21.434,17.163l1.622-17.163h-28.774c-6.618,0-12.028-5.633-12.028-12.524V59.266H308.435z"/>
	<polygon clip-path="url(#SVGID_2_)" fill="#58C3ED" points="224.616,66.896 216.415,81.101 232.817,81.101 	"/>
	<polygon clip-path="url(#SVGID_2_)" fill="#EA6C6C" points="224.616,107.147 232.817,92.943 216.415,92.943 	"/>
	<rect x="237.612" y="66.897" clip-path="url(#SVGID_2_)" fill="#B1E1F2" width="40.654" height="5.184"/>
	<rect x="237.612" y="75.278" clip-path="url(#SVGID_2_)" fill="#B1E1F2" width="63.014" height="5.822"/>
	<rect x="237.612" y="92.912" clip-path="url(#SVGID_2_)" fill="#B1E1F2" width="40.654" height="5.184"/>
	<rect x="237.612" y="101.294" clip-path="url(#SVGID_2_)" fill="#B1E1F2" width="63.014" height="5.822"/>
	<polygon clip-path="url(#SVGID_2_)" fill="#58C3ED" points="224.564,113.747 216.363,127.951 232.764,127.951 	"/>
	<polygon clip-path="url(#SVGID_2_)" fill="#58C3ED" points="224.616,139.762 216.415,153.966 232.817,153.966 	"/>
	<rect x="237.56" y="113.747" clip-path="url(#SVGID_2_)" fill="#B1E1F2" width="40.654" height="5.184"/>
	<rect x="237.56" y="122.128" clip-path="url(#SVGID_2_)" fill="#B1E1F2" width="63.014" height="5.822"/>
	<rect x="237.56" y="139.761" clip-path="url(#SVGID_2_)" fill="#B1E1F2" width="40.654" height="5.185"/>
	<rect x="237.56" y="148.144" clip-path="url(#SVGID_2_)" fill="#B1E1F2" width="63.014" height="5.822"/>
	<polygon clip-path="url(#SVGID_2_)" fill="#EA6C6C" points="223.846,177.757 232.047,163.553 215.645,163.553 	"/>
	<rect x="236.842" y="163.521" clip-path="url(#SVGID_2_)" fill="#B1E1F2" width="40.654" height="5.184"/>
	<rect x="236.842" y="171.903" clip-path="url(#SVGID_2_)" fill="#B1E1F2" width="63.015" height="5.822"/>
	<polygon clip-path="url(#SVGID_2_)" fill="#58C3ED" points="223.794,184.355 215.593,198.56 231.995,198.56 	"/>
	<rect x="236.79" y="184.356" clip-path="url(#SVGID_2_)" fill="#B1E1F2" width="40.654" height="5.184"/>
	<rect x="236.791" y="192.737" clip-path="url(#SVGID_2_)" fill="#B1E1F2" width="63.014" height="5.822"/>
</g>
<g>
	<defs>
		<rect id="SVGID_3_" width="500" height="500"/>
	</defs>
	<clipPath id="SVGID_4_">
		<use xlink:href="#SVGID_3_"  overflow="visible"/>
	</clipPath>
	<path clip-path="url(#SVGID_4_)" fill="#58C3ED" d="M282.301,388.187c0,1.466-1.188,2.654-2.653,2.654s-2.654-1.188-2.654-2.654
		s1.188-2.654,2.654-2.654S282.301,386.721,282.301,388.187"/>
	<path clip-path="url(#SVGID_4_)" fill="#58C3ED" d="M293.455,388.187c0,1.466-1.188,2.654-2.654,2.654
		c-1.466,0-2.653-1.188-2.653-2.654s1.188-2.654,2.653-2.654C292.268,385.532,293.455,386.721,293.455,388.187"/>
	<path clip-path="url(#SVGID_4_)" fill="#58C3ED" d="M304.609,388.187c0,1.466-1.188,2.654-2.654,2.654
		c-1.466,0-2.654-1.188-2.654-2.654s1.188-2.654,2.654-2.654C303.422,385.532,304.609,386.721,304.609,388.187"/>
	<path clip-path="url(#SVGID_4_)" fill="#58C3ED" d="M315.764,388.187c0,1.466-1.188,2.654-2.654,2.654
		c-1.466,0-2.654-1.188-2.654-2.654s1.188-2.654,2.654-2.654C314.576,385.532,315.764,386.721,315.764,388.187"/>
	<path clip-path="url(#SVGID_4_)" fill="#58C3ED" d="M326.918,388.187c0,1.466-1.188,2.654-2.654,2.654
		c-1.466,0-2.654-1.188-2.654-2.654s1.188-2.654,2.654-2.654C325.73,385.532,326.918,386.721,326.918,388.187"/>
	<path clip-path="url(#SVGID_4_)" fill="#58C3ED" d="M282.301,399.504c0,1.466-1.188,2.653-2.653,2.653s-2.654-1.188-2.654-2.653
		s1.188-2.654,2.654-2.654S282.301,398.038,282.301,399.504"/>
	<path clip-path="url(#SVGID_4_)" fill="#58C3ED" d="M293.455,399.504c0,1.466-1.188,2.653-2.654,2.653
		c-1.466,0-2.653-1.188-2.653-2.653s1.188-2.654,2.653-2.654C292.268,396.85,293.455,398.038,293.455,399.504"/>
	<path clip-path="url(#SVGID_4_)" fill="#58C3ED" d="M304.609,399.504c0,1.466-1.188,2.653-2.654,2.653
		c-1.466,0-2.654-1.188-2.654-2.653s1.188-2.654,2.654-2.654C303.422,396.85,304.609,398.038,304.609,399.504"/>
	<path clip-path="url(#SVGID_4_)" fill="#58C3ED" d="M315.764,399.504c0,1.466-1.188,2.653-2.654,2.653
		c-1.466,0-2.654-1.188-2.654-2.653s1.188-2.654,2.654-2.654C314.576,396.85,315.764,398.038,315.764,399.504"/>
	<path clip-path="url(#SVGID_4_)" fill="#58C3ED" d="M326.918,399.504c0,1.466-1.188,2.653-2.654,2.653
		c-1.466,0-2.654-1.188-2.654-2.653s1.188-2.654,2.654-2.654C325.73,396.85,326.918,398.038,326.918,399.504"/>
	<path clip-path="url(#SVGID_4_)" fill="#58C3ED" d="M282.301,355.351c0,1.466-1.188,2.653-2.653,2.653s-2.654-1.188-2.654-2.653
		s1.188-2.654,2.654-2.654S282.301,353.885,282.301,355.351"/>
	<path clip-path="url(#SVGID_4_)" fill="#58C3ED" d="M293.455,355.351c0,1.466-1.188,2.653-2.654,2.653
		c-1.466,0-2.653-1.188-2.653-2.653s1.188-2.654,2.653-2.654C292.268,352.696,293.455,353.885,293.455,355.351"/>
	<path clip-path="url(#SVGID_4_)" fill="#58C3ED" d="M304.609,355.351c0,1.466-1.188,2.653-2.654,2.653
		c-1.466,0-2.654-1.188-2.654-2.653s1.188-2.654,2.654-2.654C303.422,352.696,304.609,353.885,304.609,355.351"/>
	<path clip-path="url(#SVGID_4_)" fill="#58C3ED" d="M315.764,355.351c0,1.466-1.188,2.653-2.654,2.653
		c-1.466,0-2.654-1.188-2.654-2.653s1.188-2.654,2.654-2.654C314.576,352.696,315.764,353.885,315.764,355.351"/>
	<path clip-path="url(#SVGID_4_)" fill="#58C3ED" d="M326.918,355.351c0,1.466-1.188,2.653-2.654,2.653
		c-1.466,0-2.654-1.188-2.654-2.653s1.188-2.654,2.654-2.654C325.73,352.696,326.918,353.885,326.918,355.351"/>
	<path clip-path="url(#SVGID_4_)" fill="#58C3ED" d="M282.301,366.667c0,1.466-1.188,2.654-2.653,2.654s-2.654-1.188-2.654-2.654
		s1.188-2.653,2.654-2.653S282.301,365.201,282.301,366.667"/>
	<path clip-path="url(#SVGID_4_)" fill="#58C3ED" d="M293.455,366.667c0,1.466-1.188,2.654-2.654,2.654
		c-1.466,0-2.653-1.188-2.653-2.654s1.188-2.653,2.653-2.653C292.268,364.014,293.455,365.201,293.455,366.667"/>
	<path clip-path="url(#SVGID_4_)" fill="#58C3ED" d="M304.609,366.667c0,1.466-1.188,2.654-2.654,2.654
		c-1.466,0-2.654-1.188-2.654-2.654s1.188-2.653,2.654-2.653C303.422,364.014,304.609,365.201,304.609,366.667"/>
	<path clip-path="url(#SVGID_4_)" fill="#58C3ED" d="M315.764,366.667c0,1.466-1.188,2.654-2.654,2.654
		c-1.466,0-2.654-1.188-2.654-2.654s1.188-2.653,2.654-2.653C314.576,364.014,315.764,365.201,315.764,366.667"/>
	<path clip-path="url(#SVGID_4_)" fill="#58C3ED" d="M326.918,366.667c0,1.466-1.188,2.654-2.654,2.654
		c-1.466,0-2.654-1.188-2.654-2.654s1.188-2.653,2.654-2.653C325.73,364.014,326.918,365.201,326.918,366.667"/>
	<path clip-path="url(#SVGID_4_)" fill="#58C3ED" d="M282.301,377.984c0,1.466-1.188,2.654-2.653,2.654s-2.654-1.188-2.654-2.654
		s1.188-2.654,2.654-2.654S282.301,376.519,282.301,377.984"/>
	<path clip-path="url(#SVGID_4_)" fill="#58C3ED" d="M293.455,377.984c0,1.466-1.188,2.654-2.654,2.654
		c-1.466,0-2.653-1.188-2.653-2.654s1.188-2.654,2.653-2.654C292.268,375.33,293.455,376.519,293.455,377.984"/>
	<path clip-path="url(#SVGID_4_)" fill="#58C3ED" d="M304.609,377.984c0,1.466-1.188,2.654-2.654,2.654
		c-1.466,0-2.654-1.188-2.654-2.654s1.188-2.654,2.654-2.654C303.422,375.33,304.609,376.519,304.609,377.984"/>
	<path clip-path="url(#SVGID_4_)" fill="#58C3ED" d="M315.764,377.984c0,1.466-1.188,2.654-2.654,2.654
		c-1.466,0-2.654-1.188-2.654-2.654s1.188-2.654,2.654-2.654C314.576,375.33,315.764,376.519,315.764,377.984"/>
	<path clip-path="url(#SVGID_4_)" fill="#58C3ED" d="M326.918,377.984c0,1.466-1.188,2.654-2.654,2.654
		c-1.466,0-2.654-1.188-2.654-2.654s1.188-2.654,2.654-2.654C325.73,375.33,326.918,376.519,326.918,377.984"/>
	<path clip-path="url(#SVGID_4_)" fill="#FFFFFF" d="M69.632,245.612c0,1.466-1.188,2.654-2.654,2.654
		c-1.466,0-2.654-1.188-2.654-2.654s1.188-2.654,2.654-2.654C68.444,242.958,69.632,244.146,69.632,245.612"/>
	<path clip-path="url(#SVGID_4_)" fill="#FFFFFF" d="M80.787,245.612c0,1.466-1.188,2.654-2.654,2.654
		c-1.466,0-2.654-1.188-2.654-2.654s1.188-2.654,2.654-2.654C79.599,242.958,80.787,244.146,80.787,245.612"/>
	<path clip-path="url(#SVGID_4_)" fill="#FFFFFF" d="M91.94,245.612c0,1.466-1.188,2.654-2.654,2.654
		c-1.466,0-2.654-1.188-2.654-2.654s1.188-2.654,2.654-2.654C90.752,242.958,91.94,244.146,91.94,245.612"/>
	<path clip-path="url(#SVGID_4_)" fill="#FFFFFF" d="M103.095,245.612c0,1.466-1.188,2.654-2.654,2.654
		c-1.466,0-2.654-1.188-2.654-2.654s1.188-2.654,2.654-2.654C101.907,242.958,103.095,244.146,103.095,245.612"/>
	<path clip-path="url(#SVGID_4_)" fill="#FFFFFF" d="M114.249,245.612c0,1.466-1.188,2.654-2.654,2.654
		c-1.466,0-2.654-1.188-2.654-2.654s1.188-2.654,2.654-2.654C113.061,242.958,114.249,244.146,114.249,245.612"/>
	<path clip-path="url(#SVGID_4_)" fill="#FFFFFF" d="M69.632,256.929c0,1.466-1.188,2.654-2.654,2.654
		c-1.466,0-2.654-1.188-2.654-2.654s1.188-2.653,2.654-2.653C68.444,254.275,69.632,255.463,69.632,256.929"/>
	<path clip-path="url(#SVGID_4_)" fill="#FFFFFF" d="M80.787,256.929c0,1.466-1.188,2.654-2.654,2.654
		c-1.466,0-2.654-1.188-2.654-2.654s1.188-2.653,2.654-2.653C79.599,254.275,80.787,255.463,80.787,256.929"/>
	<path clip-path="url(#SVGID_4_)" fill="#FFFFFF" d="M91.94,256.929c0,1.466-1.188,2.654-2.654,2.654
		c-1.466,0-2.654-1.188-2.654-2.654s1.188-2.653,2.654-2.653C90.752,254.275,91.94,255.463,91.94,256.929"/>
	<path clip-path="url(#SVGID_4_)" fill="#FFFFFF" d="M103.095,256.929c0,1.466-1.188,2.654-2.654,2.654
		c-1.466,0-2.654-1.188-2.654-2.654s1.188-2.653,2.654-2.653C101.907,254.275,103.095,255.463,103.095,256.929"/>
	<path clip-path="url(#SVGID_4_)" fill="#FFFFFF" d="M114.249,256.929c0,1.466-1.188,2.654-2.654,2.654
		c-1.466,0-2.654-1.188-2.654-2.654s1.188-2.653,2.654-2.653C113.061,254.275,114.249,255.463,114.249,256.929"/>
	<path clip-path="url(#SVGID_4_)" fill="#FFFFFF" d="M69.632,212.776c0,1.466-1.188,2.654-2.654,2.654
		c-1.466,0-2.654-1.188-2.654-2.654s1.188-2.654,2.654-2.654C68.444,210.122,69.632,211.31,69.632,212.776"/>
	<path clip-path="url(#SVGID_4_)" fill="#FFFFFF" d="M80.787,212.776c0,1.466-1.188,2.654-2.654,2.654
		c-1.466,0-2.654-1.188-2.654-2.654s1.188-2.654,2.654-2.654C79.599,210.122,80.787,211.31,80.787,212.776"/>
	<path clip-path="url(#SVGID_4_)" fill="#FFFFFF" d="M91.94,212.776c0,1.466-1.188,2.654-2.654,2.654
		c-1.466,0-2.654-1.188-2.654-2.654s1.188-2.654,2.654-2.654C90.752,210.122,91.94,211.31,91.94,212.776"/>
	<path clip-path="url(#SVGID_4_)" fill="#FFFFFF" d="M103.095,212.776c0,1.466-1.188,2.654-2.654,2.654
		c-1.466,0-2.654-1.188-2.654-2.654s1.188-2.654,2.654-2.654C101.907,210.122,103.095,211.31,103.095,212.776"/>
	<path clip-path="url(#SVGID_4_)" fill="#FFFFFF" d="M114.249,212.776c0,1.466-1.188,2.654-2.654,2.654
		c-1.466,0-2.654-1.188-2.654-2.654s1.188-2.654,2.654-2.654C113.061,210.122,114.249,211.31,114.249,212.776"/>
	<path clip-path="url(#SVGID_4_)" fill="#FFFFFF" d="M69.632,224.093c0,1.466-1.188,2.654-2.654,2.654
		c-1.466,0-2.654-1.188-2.654-2.654s1.188-2.654,2.654-2.654C68.444,221.439,69.632,222.627,69.632,224.093"/>
	<path clip-path="url(#SVGID_4_)" fill="#FFFFFF" d="M80.787,224.093c0,1.466-1.188,2.654-2.654,2.654
		c-1.466,0-2.654-1.188-2.654-2.654s1.188-2.654,2.654-2.654C79.599,221.439,80.787,222.627,80.787,224.093"/>
	<path clip-path="url(#SVGID_4_)" fill="#FFFFFF" d="M91.94,224.093c0,1.466-1.188,2.654-2.654,2.654
		c-1.466,0-2.654-1.188-2.654-2.654s1.188-2.654,2.654-2.654C90.752,221.439,91.94,222.627,91.94,224.093"/>
	<path clip-path="url(#SVGID_4_)" fill="#FFFFFF" d="M103.095,224.093c0,1.466-1.188,2.654-2.654,2.654
		c-1.466,0-2.654-1.188-2.654-2.654s1.188-2.654,2.654-2.654C101.907,221.439,103.095,222.627,103.095,224.093"/>
	<path clip-path="url(#SVGID_4_)" fill="#FFFFFF" d="M114.249,224.093c0,1.466-1.188,2.654-2.654,2.654
		c-1.466,0-2.654-1.188-2.654-2.654s1.188-2.654,2.654-2.654C113.061,221.439,114.249,222.627,114.249,224.093"/>
	<path clip-path="url(#SVGID_4_)" fill="#FFFFFF" d="M69.632,235.41c0,1.466-1.188,2.654-2.654,2.654
		c-1.466,0-2.654-1.188-2.654-2.654c0-1.465,1.188-2.654,2.654-2.654C68.444,232.756,69.632,233.945,69.632,235.41"/>
	<path clip-path="url(#SVGID_4_)" fill="#FFFFFF" d="M80.787,235.41c0,1.466-1.188,2.654-2.654,2.654
		c-1.466,0-2.654-1.188-2.654-2.654c0-1.465,1.188-2.654,2.654-2.654C79.599,232.756,80.787,233.945,80.787,235.41"/>
	<path clip-path="url(#SVGID_4_)" fill="#FFFFFF" d="M91.94,235.41c0,1.466-1.188,2.654-2.654,2.654
		c-1.466,0-2.654-1.188-2.654-2.654c0-1.465,1.188-2.654,2.654-2.654C90.752,232.756,91.94,233.945,91.94,235.41"/>
	<path clip-path="url(#SVGID_4_)" fill="#FFFFFF" d="M103.095,235.41c0,1.466-1.188,2.654-2.654,2.654
		c-1.466,0-2.654-1.188-2.654-2.654c0-1.465,1.188-2.654,2.654-2.654C101.907,232.756,103.095,233.945,103.095,235.41"/>
	<path clip-path="url(#SVGID_4_)" fill="#FFFFFF" d="M114.249,235.41c0,1.466-1.188,2.654-2.654,2.654
		c-1.466,0-2.654-1.188-2.654-2.654c0-1.465,1.188-2.654,2.654-2.654C113.061,232.756,114.249,233.945,114.249,235.41"/>
	<path clip-path="url(#SVGID_4_)" fill="#FFFFFF" d="M346.394,120.574c0,1.466-1.188,2.654-2.654,2.654s-2.654-1.188-2.654-2.654
		s1.188-2.654,2.654-2.654S346.394,119.108,346.394,120.574"/>
	<path clip-path="url(#SVGID_4_)" fill="#FFFFFF" d="M357.547,120.574c0,1.466-1.187,2.654-2.653,2.654
		c-1.466,0-2.654-1.188-2.654-2.654s1.188-2.654,2.654-2.654C356.36,117.92,357.547,119.108,357.547,120.574"/>
	<path clip-path="url(#SVGID_4_)" fill="#FFFFFF" d="M368.701,120.574c0,1.466-1.188,2.654-2.654,2.654
		c-1.465,0-2.653-1.188-2.653-2.654s1.188-2.654,2.653-2.654C367.514,117.92,368.701,119.108,368.701,120.574"/>
	<path clip-path="url(#SVGID_4_)" fill="#FFFFFF" d="M379.855,120.574c0,1.466-1.188,2.654-2.654,2.654
		c-1.466,0-2.653-1.188-2.653-2.654s1.188-2.654,2.653-2.654C378.668,117.92,379.855,119.108,379.855,120.574"/>
	<path clip-path="url(#SVGID_4_)" fill="#FFFFFF" d="M391.01,120.574c0,1.466-1.188,2.654-2.654,2.654
		c-1.466,0-2.654-1.188-2.654-2.654s1.188-2.654,2.654-2.654C389.822,117.92,391.01,119.108,391.01,120.574"/>
	<path clip-path="url(#SVGID_4_)" fill="#FFFFFF" d="M346.394,131.891c0,1.466-1.188,2.654-2.654,2.654s-2.654-1.188-2.654-2.654
		c0-1.465,1.188-2.654,2.654-2.654S346.394,130.426,346.394,131.891"/>
	<path clip-path="url(#SVGID_4_)" fill="#FFFFFF" d="M357.547,131.891c0,1.466-1.187,2.654-2.653,2.654
		c-1.466,0-2.654-1.188-2.654-2.654c0-1.465,1.188-2.654,2.654-2.654C356.36,129.237,357.547,130.426,357.547,131.891"/>
	<path clip-path="url(#SVGID_4_)" fill="#FFFFFF" d="M368.701,131.891c0,1.466-1.188,2.654-2.654,2.654
		c-1.465,0-2.653-1.188-2.653-2.654c0-1.465,1.188-2.654,2.653-2.654C367.514,129.237,368.701,130.426,368.701,131.891"/>
	<path clip-path="url(#SVGID_4_)" fill="#FFFFFF" d="M379.855,131.891c0,1.466-1.188,2.654-2.654,2.654
		c-1.466,0-2.653-1.188-2.653-2.654c0-1.465,1.188-2.654,2.653-2.654C378.668,129.237,379.855,130.426,379.855,131.891"/>
	<path clip-path="url(#SVGID_4_)" fill="#FFFFFF" d="M391.01,131.891c0,1.466-1.188,2.654-2.654,2.654
		c-1.466,0-2.654-1.188-2.654-2.654c0-1.465,1.188-2.654,2.654-2.654C389.822,129.237,391.01,130.426,391.01,131.891"/>
	<path clip-path="url(#SVGID_4_)" fill="#FFFFFF" d="M346.394,87.738c0,1.466-1.188,2.654-2.654,2.654s-2.654-1.188-2.654-2.654
		s1.188-2.654,2.654-2.654S346.394,86.272,346.394,87.738"/>
	<path clip-path="url(#SVGID_4_)" fill="#FFFFFF" d="M357.547,87.738c0,1.466-1.187,2.654-2.653,2.654
		c-1.466,0-2.654-1.188-2.654-2.654s1.188-2.654,2.654-2.654C356.36,85.084,357.547,86.272,357.547,87.738"/>
	<path clip-path="url(#SVGID_4_)" fill="#FFFFFF" d="M368.701,87.738c0,1.466-1.188,2.654-2.654,2.654
		c-1.465,0-2.653-1.188-2.653-2.654s1.188-2.654,2.653-2.654C367.514,85.084,368.701,86.272,368.701,87.738"/>
	<path clip-path="url(#SVGID_4_)" fill="#FFFFFF" d="M379.855,87.738c0,1.466-1.188,2.654-2.654,2.654
		c-1.466,0-2.653-1.188-2.653-2.654s1.188-2.654,2.653-2.654C378.668,85.084,379.855,86.272,379.855,87.738"/>
	<path clip-path="url(#SVGID_4_)" fill="#FFFFFF" d="M391.01,87.738c0,1.466-1.188,2.654-2.654,2.654
		c-1.466,0-2.654-1.188-2.654-2.654s1.188-2.654,2.654-2.654C389.822,85.084,391.01,86.272,391.01,87.738"/>
	<path clip-path="url(#SVGID_4_)" fill="#FFFFFF" d="M346.394,99.055c0,1.466-1.188,2.654-2.654,2.654s-2.654-1.188-2.654-2.654
		s1.188-2.654,2.654-2.654S346.394,97.589,346.394,99.055"/>
	<path clip-path="url(#SVGID_4_)" fill="#FFFFFF" d="M357.547,99.055c0,1.466-1.187,2.654-2.653,2.654
		c-1.466,0-2.654-1.188-2.654-2.654s1.188-2.654,2.654-2.654C356.36,96.401,357.547,97.589,357.547,99.055"/>
	<path clip-path="url(#SVGID_4_)" fill="#FFFFFF" d="M368.701,99.055c0,1.466-1.188,2.654-2.654,2.654
		c-1.465,0-2.653-1.188-2.653-2.654s1.188-2.654,2.653-2.654C367.514,96.401,368.701,97.589,368.701,99.055"/>
	<path clip-path="url(#SVGID_4_)" fill="#FFFFFF" d="M379.855,99.055c0,1.466-1.188,2.654-2.654,2.654
		c-1.466,0-2.653-1.188-2.653-2.654s1.188-2.654,2.653-2.654C378.668,96.401,379.855,97.589,379.855,99.055"/>
	<path clip-path="url(#SVGID_4_)" fill="#FFFFFF" d="M391.01,99.055c0,1.466-1.188,2.654-2.654,2.654
		c-1.466,0-2.654-1.188-2.654-2.654s1.188-2.654,2.654-2.654C389.822,96.401,391.01,97.589,391.01,99.055"/>
	<path clip-path="url(#SVGID_4_)" fill="#FFFFFF" d="M346.394,110.372c0,1.466-1.188,2.654-2.654,2.654s-2.654-1.188-2.654-2.654
		s1.188-2.654,2.654-2.654S346.394,108.906,346.394,110.372"/>
	<path clip-path="url(#SVGID_4_)" fill="#FFFFFF" d="M357.547,110.372c0,1.466-1.187,2.654-2.653,2.654
		c-1.466,0-2.654-1.188-2.654-2.654s1.188-2.654,2.654-2.654C356.36,107.718,357.547,108.906,357.547,110.372"/>
	<path clip-path="url(#SVGID_4_)" fill="#FFFFFF" d="M368.701,110.372c0,1.466-1.188,2.654-2.654,2.654
		c-1.465,0-2.653-1.188-2.653-2.654s1.188-2.654,2.653-2.654C367.514,107.718,368.701,108.906,368.701,110.372"/>
	<path clip-path="url(#SVGID_4_)" fill="#FFFFFF" d="M379.855,110.372c0,1.466-1.188,2.654-2.654,2.654
		c-1.466,0-2.653-1.188-2.653-2.654s1.188-2.654,2.653-2.654C378.668,107.718,379.855,108.906,379.855,110.372"/>
	<path clip-path="url(#SVGID_4_)" fill="#FFFFFF" d="M391.01,110.372c0,1.466-1.188,2.654-2.654,2.654
		c-1.466,0-2.654-1.188-2.654-2.654s1.188-2.654,2.654-2.654C389.822,107.718,391.01,108.906,391.01,110.372"/>
	<path clip-path="url(#SVGID_4_)" fill="#58C3ED" d="M169.188,72.666c0,1.466-1.188,2.654-2.654,2.654
		c-1.466,0-2.654-1.188-2.654-2.654s1.188-2.654,2.654-2.654C168,70.012,169.188,71.2,169.188,72.666"/>
	<path clip-path="url(#SVGID_4_)" fill="#58C3ED" d="M180.342,72.666c0,1.466-1.188,2.654-2.654,2.654
		c-1.466,0-2.654-1.188-2.654-2.654s1.188-2.654,2.654-2.654C179.154,70.012,180.342,71.2,180.342,72.666"/>
	<path clip-path="url(#SVGID_4_)" fill="#58C3ED" d="M191.497,72.666c0,1.466-1.188,2.654-2.654,2.654
		c-1.466,0-2.654-1.188-2.654-2.654s1.188-2.654,2.654-2.654C190.309,70.012,191.497,71.2,191.497,72.666"/>
	<path clip-path="url(#SVGID_4_)" fill="#58C3ED" d="M202.65,72.666c0,1.466-1.188,2.654-2.654,2.654
		c-1.466,0-2.654-1.188-2.654-2.654s1.188-2.654,2.654-2.654C201.462,70.012,202.65,71.2,202.65,72.666"/>
	<path clip-path="url(#SVGID_4_)" fill="#58C3ED" d="M213.805,72.666c0,1.466-1.188,2.654-2.654,2.654
		c-1.466,0-2.654-1.188-2.654-2.654s1.188-2.654,2.654-2.654C212.617,70.012,213.805,71.2,213.805,72.666"/>
	<path clip-path="url(#SVGID_4_)" fill="#58C3ED" d="M169.188,83.982c0,1.466-1.188,2.654-2.654,2.654
		c-1.466,0-2.654-1.188-2.654-2.654s1.188-2.654,2.654-2.654C168,81.329,169.188,82.517,169.188,83.982"/>
	<path clip-path="url(#SVGID_4_)" fill="#58C3ED" d="M180.342,83.982c0,1.466-1.188,2.654-2.654,2.654
		c-1.466,0-2.654-1.188-2.654-2.654s1.188-2.654,2.654-2.654C179.154,81.329,180.342,82.517,180.342,83.982"/>
	<path clip-path="url(#SVGID_4_)" fill="#58C3ED" d="M191.497,83.982c0,1.466-1.188,2.654-2.654,2.654
		c-1.466,0-2.654-1.188-2.654-2.654s1.188-2.654,2.654-2.654C190.309,81.329,191.497,82.517,191.497,83.982"/>
	<path clip-path="url(#SVGID_4_)" fill="#58C3ED" d="M202.65,83.982c0,1.466-1.188,2.654-2.654,2.654
		c-1.466,0-2.654-1.188-2.654-2.654s1.188-2.654,2.654-2.654C201.462,81.329,202.65,82.517,202.65,83.982"/>
	<path clip-path="url(#SVGID_4_)" fill="#58C3ED" d="M213.805,83.982c0,1.466-1.188,2.654-2.654,2.654
		c-1.466,0-2.654-1.188-2.654-2.654s1.188-2.654,2.654-2.654C212.617,81.329,213.805,82.517,213.805,83.982"/>
	<path clip-path="url(#SVGID_4_)" fill="#58C3ED" d="M169.188,39.829c0,1.466-1.188,2.654-2.654,2.654
		c-1.466,0-2.654-1.188-2.654-2.654s1.188-2.654,2.654-2.654C168,37.175,169.188,38.363,169.188,39.829"/>
	<path clip-path="url(#SVGID_4_)" fill="#58C3ED" d="M180.342,39.829c0,1.466-1.188,2.654-2.654,2.654
		c-1.466,0-2.654-1.188-2.654-2.654s1.188-2.654,2.654-2.654C179.154,37.175,180.342,38.363,180.342,39.829"/>
	<path clip-path="url(#SVGID_4_)" fill="#58C3ED" d="M191.497,39.829c0,1.466-1.188,2.654-2.654,2.654
		c-1.466,0-2.654-1.188-2.654-2.654s1.188-2.654,2.654-2.654C190.309,37.175,191.497,38.363,191.497,39.829"/>
	<path clip-path="url(#SVGID_4_)" fill="#58C3ED" d="M202.65,39.829c0,1.466-1.188,2.654-2.654,2.654
		c-1.466,0-2.654-1.188-2.654-2.654s1.188-2.654,2.654-2.654C201.462,37.175,202.65,38.363,202.65,39.829"/>
	<path clip-path="url(#SVGID_4_)" fill="#58C3ED" d="M213.805,39.829c0,1.466-1.188,2.654-2.654,2.654
		c-1.466,0-2.654-1.188-2.654-2.654s1.188-2.654,2.654-2.654C212.617,37.175,213.805,38.363,213.805,39.829"/>
	<path clip-path="url(#SVGID_4_)" fill="#58C3ED" d="M169.188,51.146c0,1.466-1.188,2.654-2.654,2.654
		c-1.466,0-2.654-1.188-2.654-2.654s1.188-2.654,2.654-2.654C168,48.492,169.188,49.68,169.188,51.146"/>
	<path clip-path="url(#SVGID_4_)" fill="#58C3ED" d="M180.342,51.146c0,1.466-1.188,2.654-2.654,2.654
		c-1.466,0-2.654-1.188-2.654-2.654s1.188-2.654,2.654-2.654C179.154,48.492,180.342,49.68,180.342,51.146"/>
	<path clip-path="url(#SVGID_4_)" fill="#58C3ED" d="M191.497,51.146c0,1.466-1.188,2.654-2.654,2.654
		c-1.466,0-2.654-1.188-2.654-2.654s1.188-2.654,2.654-2.654C190.309,48.492,191.497,49.68,191.497,51.146"/>
	<path clip-path="url(#SVGID_4_)" fill="#58C3ED" d="M202.65,51.146c0,1.466-1.188,2.654-2.654,2.654
		c-1.466,0-2.654-1.188-2.654-2.654s1.188-2.654,2.654-2.654C201.462,48.492,202.65,49.68,202.65,51.146"/>
	<path clip-path="url(#SVGID_4_)" fill="#58C3ED" d="M213.805,51.146c0,1.466-1.188,2.654-2.654,2.654
		c-1.466,0-2.654-1.188-2.654-2.654s1.188-2.654,2.654-2.654C212.617,48.492,213.805,49.68,213.805,51.146"/>
	<path clip-path="url(#SVGID_4_)" fill="#58C3ED" d="M169.188,62.463c0,1.466-1.188,2.654-2.654,2.654
		c-1.466,0-2.654-1.188-2.654-2.654s1.188-2.654,2.654-2.654C168,59.809,169.188,60.997,169.188,62.463"/>
	<path clip-path="url(#SVGID_4_)" fill="#58C3ED" d="M180.342,62.463c0,1.466-1.188,2.654-2.654,2.654
		c-1.466,0-2.654-1.188-2.654-2.654s1.188-2.654,2.654-2.654C179.154,59.809,180.342,60.997,180.342,62.463"/>
	<path clip-path="url(#SVGID_4_)" fill="#58C3ED" d="M191.497,62.463c0,1.466-1.188,2.654-2.654,2.654
		c-1.466,0-2.654-1.188-2.654-2.654s1.188-2.654,2.654-2.654C190.309,59.809,191.497,60.997,191.497,62.463"/>
	<path clip-path="url(#SVGID_4_)" fill="#58C3ED" d="M202.65,62.463c0,1.466-1.188,2.654-2.654,2.654
		c-1.466,0-2.654-1.188-2.654-2.654s1.188-2.654,2.654-2.654C201.462,59.809,202.65,60.997,202.65,62.463"/>
	<path clip-path="url(#SVGID_4_)" fill="#58C3ED" d="M213.805,62.463c0,1.466-1.188,2.654-2.654,2.654
		c-1.466,0-2.654-1.188-2.654-2.654s1.188-2.654,2.654-2.654C212.617,59.809,213.805,60.997,213.805,62.463"/>
</g>
</svg>
