<?xml version="1.0" encoding="utf-8"?>
<!-- Generator: Adobe Illustrator 16.0.0, SVG Export Plug-In . SVG Version: 6.00 Build 0)  -->
<!DOCTYPE svg PUBLIC "-//W3C//DTD SVG 1.1//EN" "http://www.w3.org/Graphics/SVG/1.1/DTD/svg11.dtd">
<svg version="1.1" xmlns="http://www.w3.org/2000/svg" xmlns:xlink="http://www.w3.org/1999/xlink" x="0px" y="0px" width="750px"
	 height="500px" viewBox="0 0 750 500" enable-background="new 0 0 750 500" xml:space="preserve">
<g id="BACKGROUND" display="none">
	<g display="inline">
		<rect fill="#FFFFFF" width="750" height="500"/>
	</g>
</g>
<g id="OBJECTS">
	<ellipse fill="#E3E5FF" cx="375" cy="460.103" rx="341.103" ry="8.64"/>
	<g>
		<circle fill="#A7B0D1" cx="121.411" cy="175.583" r="21.575"/>
		<circle fill="#E3E5FF" cx="121.411" cy="175.583" r="19.876"/>
		<text transform="matrix(1 0 0 1 112.1465 186.6011)" fill="#A7B0D1" font-family="'SourceSansPro-Bold'" font-size="35.0912">$</text>
	</g>
	<g>
		<circle fill="#A7B0D1" cx="146.82" cy="137.779" r="18.502"/>
		<circle fill="#E3E5FF" cx="146.82" cy="137.779" r="17.045"/>
		<text transform="matrix(1 0 0 1 138.8765 147.228)" fill="#A7B0D1" font-family="'SourceSansPro-Bold'" font-size="30.0923">£</text>
	</g>
	<g>
		<circle fill="#A7B0D1" cx="85.046" cy="199.981" r="12.608"/>
		<circle fill="#E3E5FF" cx="85.046" cy="199.981" r="11.615"/>
		<text transform="matrix(1 0 0 1 79.6318 206.4204)" fill="#A7B0D1" font-family="'SourceSansPro-Bold'" font-size="20.506">¥</text>
	</g>
	<g>
		<circle fill="#A7B0D1" cx="92.057" cy="119.277" r="23.15"/>
		<circle fill="#E3E5FF" cx="92.057" cy="119.277" r="21.326"/>
		<text transform="matrix(1 0 0 1 82.1172 131.0991)" fill="#A7B0D1" font-family="'SourceSansPro-Bold'" font-size="37.652">€</text>
	</g>
	<g>
		<path fill="#686F9B" d="M205.982,225.411H64.35c-3.915,0-7.088,3.173-7.088,7.088v220.686c0,3.915,3.173,7.089,7.088,7.089
			h141.632c3.915,0,7.089-3.174,7.089-7.089V232.5C213.071,228.584,209.897,225.411,205.982,225.411z"/>
		<rect x="67.918" y="244.814" fill="#E3E5FF" width="134.496" height="41.56"/>
		<g>
			<rect x="68.75" y="296.661" fill="#A7B0D1" width="16.296" height="7.829"/>
			<rect x="92.058" y="296.661" fill="#A7B0D1" width="16.295" height="7.829"/>
			<rect x="115.365" y="296.661" fill="#A7B0D1" width="16.296" height="7.829"/>
			<rect x="138.672" y="296.661" fill="#A7B0D1" width="16.296" height="7.829"/>
			<rect x="161.98" y="296.661" fill="#A7B0D1" width="16.295" height="7.829"/>
			<rect x="185.287" y="296.661" fill="#A7B0D1" width="16.296" height="7.829"/>
		</g>
		<g>
			<path fill="#A7B0D1" d="M91.992,341.042H71.363c-1.529,0-2.769-1.24-2.769-2.77v-20.629c0-1.529,1.24-2.769,2.769-2.769h20.629
				c1.529,0,2.769,1.239,2.769,2.769v20.629C94.761,339.802,93.521,341.042,91.992,341.042z"/>
			<path fill="#A7B0D1" d="M127.651,341.042h-20.628c-1.529,0-2.77-1.24-2.77-2.77v-20.629c0-1.529,1.24-2.769,2.77-2.769h20.628
				c1.529,0,2.77,1.239,2.77,2.769v20.629C130.42,339.802,129.18,341.042,127.651,341.042z"/>
			<path fill="#A7B0D1" d="M163.311,341.042h-20.629c-1.529,0-2.769-1.24-2.769-2.77v-20.629c0-1.529,1.24-2.769,2.769-2.769h20.629
				c1.529,0,2.769,1.239,2.769,2.769v20.629C166.08,339.802,164.84,341.042,163.311,341.042z"/>
			<path fill="#A7B0D1" d="M198.97,341.042h-20.628c-1.529,0-2.769-1.24-2.769-2.77v-20.629c0-1.529,1.24-2.769,2.769-2.769h20.628
				c1.53,0,2.77,1.239,2.77,2.769v20.629C201.739,339.802,200.5,341.042,198.97,341.042z"/>
			<path fill="#A7B0D1" d="M91.992,375.964H71.363c-1.529,0-2.769-1.24-2.769-2.77v-20.629c0-1.529,1.24-2.769,2.769-2.769h20.629
				c1.529,0,2.769,1.239,2.769,2.769v20.629C94.761,374.724,93.521,375.964,91.992,375.964z"/>
			<path fill="#A7B0D1" d="M127.651,375.964h-20.628c-1.529,0-2.77-1.24-2.77-2.77v-20.629c0-1.529,1.24-2.769,2.77-2.769h20.628
				c1.529,0,2.77,1.239,2.77,2.769v20.629C130.42,374.724,129.18,375.964,127.651,375.964z"/>
			<path fill="#A7B0D1" d="M163.311,375.964h-20.629c-1.529,0-2.769-1.24-2.769-2.77v-20.629c0-1.529,1.24-2.769,2.769-2.769h20.629
				c1.529,0,2.769,1.239,2.769,2.769v20.629C166.08,374.724,164.84,375.964,163.311,375.964z"/>
			<path fill="#A7B0D1" d="M198.97,375.964h-20.628c-1.529,0-2.769-1.24-2.769-2.77v-20.629c0-1.529,1.24-2.769,2.769-2.769h20.628
				c1.53,0,2.77,1.239,2.77,2.769v20.629C201.739,374.724,200.5,375.964,198.97,375.964z"/>
			<path fill="#A7B0D1" d="M91.992,410.886H71.363c-1.529,0-2.769-1.24-2.769-2.77v-20.629c0-1.529,1.24-2.77,2.769-2.77h20.629
				c1.529,0,2.769,1.24,2.769,2.77v20.629C94.761,409.646,93.521,410.886,91.992,410.886z"/>
			<path fill="#A7B0D1" d="M127.651,410.886h-20.628c-1.529,0-2.77-1.24-2.77-2.77v-20.629c0-1.529,1.24-2.77,2.77-2.77h20.628
				c1.529,0,2.77,1.24,2.77,2.77v20.629C130.42,409.646,129.18,410.886,127.651,410.886z"/>
			<path fill="#A7B0D1" d="M163.311,410.886h-20.629c-1.529,0-2.769-1.24-2.769-2.77v-20.629c0-1.529,1.24-2.77,2.769-2.77h20.629
				c1.529,0,2.769,1.24,2.769,2.77v20.629C166.08,409.646,164.84,410.886,163.311,410.886z"/>
			<path fill="#A7B0D1" d="M198.97,410.886h-20.628c-1.529,0-2.769-1.24-2.769-2.77v-20.629c0-1.529,1.24-2.77,2.769-2.77h20.628
				c1.53,0,2.77,1.24,2.77,2.77v20.629C201.739,409.646,200.5,410.886,198.97,410.886z"/>
			<path fill="#A7B0D1" d="M91.992,445.807H71.363c-1.529,0-2.769-1.239-2.769-2.769v-20.629c0-1.529,1.24-2.77,2.769-2.77h20.629
				c1.529,0,2.769,1.24,2.769,2.77v20.629C94.761,444.567,93.521,445.807,91.992,445.807z"/>
			<path fill="#A7B0D1" d="M127.651,445.807h-20.628c-1.529,0-2.77-1.239-2.77-2.769v-20.629c0-1.529,1.24-2.77,2.77-2.77h20.628
				c1.529,0,2.77,1.24,2.77,2.77v20.629C130.42,444.567,129.18,445.807,127.651,445.807z"/>
			<path fill="#A7B0D1" d="M163.311,445.807h-20.629c-1.529,0-2.769-1.239-2.769-2.769v-20.629c0-1.529,1.24-2.77,2.769-2.77h20.629
				c1.529,0,2.769,1.24,2.769,2.77v20.629C166.08,444.567,164.84,445.807,163.311,445.807z"/>
			<path fill="#A7B0D1" d="M198.97,445.807h-20.628c-1.529,0-2.769-1.239-2.769-2.769v-20.629c0-1.529,1.24-2.77,2.769-2.77h20.628
				c1.53,0,2.77,1.24,2.77,2.77v20.629C201.739,444.567,200.5,445.807,198.97,445.807z"/>
		</g>
	</g>
	<g>
		<path fill="#D2F2FF" d="M502.1,88.042v273.827c0,2.273-1.843,4.116-4.116,4.116H180.956c-2.273,0-4.116-1.843-4.116-4.116V88.042
			c0-2.273,1.843-4.116,4.116-4.116h317.028C500.257,83.926,502.1,85.769,502.1,88.042z"/>
		<g>
			<g>
				<rect x="204.072" y="103.045" fill="#A7B0D1" width="1.849" height="243.822"/>
				<polygon fill="#686F9B" points="204.996,196.82 201.177,203.533 208.815,203.533 				"/>
				<rect x="200.222" y="211.583" fill="#252A40" width="9.548" height="13.595"/>
			</g>
			<g>
				<rect x="223.283" y="103.045" fill="#A7B0D1" width="1.849" height="243.822"/>
				<polygon fill="#686F9B" points="224.207,166.82 220.388,173.533 228.026,173.533 				"/>
				<rect x="219.433" y="181.583" fill="#252A40" width="9.548" height="33.595"/>
			</g>
			<g>
				<rect x="242.494" y="103.045" fill="#A7B0D1" width="1.849" height="243.822"/>
				<polygon fill="#686F9B" points="243.418,240.177 247.237,233.463 239.599,233.463 				"/>
				<rect x="238.644" y="201.82" fill="#CE364C" width="9.548" height="23.595"/>
			</g>
			<g>
				<rect x="261.705" y="103.045" fill="#A7B0D1" width="1.849" height="243.822"/>
				<polygon fill="#686F9B" points="262.629,176.82 258.81,183.533 266.448,183.533 				"/>
				<rect x="257.855" y="191.583" fill="#252A40" width="9.548" height="23.595"/>
			</g>
			<g>
				<rect x="280.916" y="103.045" fill="#A7B0D1" width="1.849" height="243.822"/>
				<polygon fill="#686F9B" points="281.84,241.331 285.659,234.618 278.021,234.618 				"/>
				<rect x="277.066" y="211.694" fill="#CE364C" width="9.548" height="14.875"/>
			</g>
			<g>
				<rect x="300.126" y="103.045" fill="#A7B0D1" width="1.849" height="243.822"/>
				<polygon fill="#686F9B" points="301.051,176.82 297.232,183.533 304.87,183.533 				"/>
				<rect x="296.277" y="191.583" fill="#252A40" width="9.548" height="23.595"/>
			</g>
			<g>
				<rect x="319.337" y="103.045" fill="#A7B0D1" width="1.849" height="243.822"/>
				<polygon fill="#686F9B" points="320.262,156.82 316.443,163.533 324.081,163.533 				"/>
				<rect x="315.488" y="171.583" fill="#252A40" width="9.547" height="15.237"/>
			</g>
			<g>
				<rect x="338.548" y="103.045" fill="#A7B0D1" width="1.849" height="243.822"/>
				<polygon fill="#686F9B" points="339.473,207.13 343.292,200.417 335.654,200.417 				"/>
				<rect x="334.699" y="182.82" fill="#CE364C" width="9.547" height="9.548"/>
			</g>
			<g>
				<rect x="357.759" y="103.045" fill="#A7B0D1" width="1.849" height="243.822"/>
				<polygon fill="#686F9B" points="358.684,160.82 354.865,167.533 362.503,167.533 				"/>
				<rect x="353.91" y="175.583" fill="#252A40" width="9.547" height="31.797"/>
			</g>
			<g>
				<rect x="376.971" y="103.045" fill="#A7B0D1" width="1.849" height="243.822"/>
				<polygon fill="#686F9B" points="377.895,217.38 381.714,210.666 374.076,210.666 				"/>
				<rect x="373.121" y="195.82" fill="#CE364C" width="9.548" height="6.797"/>
			</g>
			<g>
				<rect x="396.182" y="103.045" fill="#A7B0D1" width="1.849" height="243.822"/>
				<polygon fill="#686F9B" points="397.105,168.82 393.287,175.533 400.925,175.533 				"/>
				<rect x="392.332" y="183.583" fill="#252A40" width="9.548" height="9.548"/>
			</g>
			<g>
				<rect x="415.393" y="103.045" fill="#A7B0D1" width="1.849" height="243.822"/>
				<polygon fill="#686F9B" points="416.316,218.38 420.136,211.666 412.498,211.666 				"/>
				<rect x="411.543" y="186.82" fill="#CE364C" width="9.548" height="16.797"/>
			</g>
			<g>
				<rect x="434.604" y="103.045" fill="#A7B0D1" width="1.849" height="243.822"/>
				<polygon fill="#686F9B" points="435.527,156.82 431.709,163.533 439.347,163.533 				"/>
				<rect x="430.754" y="171.583" fill="#252A40" width="9.548" height="21.951"/>
			</g>
			<g>
				<rect x="453.814" y="103.045" fill="#A7B0D1" width="1.849" height="243.822"/>
				<polygon fill="#686F9B" points="454.738,146.82 450.92,153.533 458.558,153.533 				"/>
				<rect x="449.965" y="161.583" fill="#252A40" width="9.548" height="38.399"/>
			</g>
			<g>
				<rect x="473.025" y="103.045" fill="#A7B0D1" width="1.849" height="243.822"/>
				<polygon fill="#686F9B" points="473.949,126.82 470.131,133.533 477.769,133.533 				"/>
				<rect x="469.176" y="141.583" fill="#252A40" width="9.548" height="18.594"/>
			</g>
			<g>
				<circle fill="#686F9B" cx="204.996" cy="272.308" r="2.372"/>
				<circle fill="#686F9B" cx="224.207" cy="262.308" r="2.372"/>
				<circle fill="#686F9B" cx="243.418" cy="282.308" r="2.372"/>
				<circle fill="#686F9B" cx="262.629" cy="272.308" r="2.372"/>
				<circle fill="#686F9B" cx="281.84" cy="286.308" r="2.372"/>
				<circle fill="#686F9B" cx="301.051" cy="262.308" r="2.372"/>
				<circle fill="#686F9B" cx="320.262" cy="235.308" r="2.372"/>
				<circle fill="#686F9B" cx="339.473" cy="252.308" r="2.372"/>
				<circle fill="#686F9B" cx="358.684" cy="246.308" r="2.372"/>
				<circle fill="#686F9B" cx="377.895" cy="262.308" r="2.372"/>
				<circle fill="#686F9B" cx="397.106" cy="252.308" r="2.372"/>
				<circle fill="#686F9B" cx="416.317" cy="266.308" r="2.372"/>
				<circle fill="#686F9B" cx="435.528" cy="242.308" r="2.372"/>
				<circle fill="#686F9B" cx="454.739" cy="236.308" r="2.372"/>
				<circle fill="#686F9B" cx="473.95" cy="202.956" r="2.372"/>
				<polyline fill="none" stroke="#686F9B" stroke-miterlimit="10" points="204.996,272.308 224.207,262.308 243.418,282.308 
					262.629,272.308 281.84,286.308 301.051,262.308 320.262,235.308 339.473,252.308 358.684,246.308 377.895,262.308 
					397.105,252.308 416.316,266.308 435.527,242.308 454.738,236.308 473.949,202.956 				"/>
			</g>
		</g>
	</g>
	<g>
		<path fill="#CE364C" d="M655.801,370.01c0,0-2.679-6.047-6.401-0.812c-3.724,5.236,3.779,10.117,3.779,10.117
			s6.739-5.939,5.629-8.501S655.801,370.01,655.801,370.01z"/>
		<path fill="#CE364C" d="M681.462,422.326c0,0,6.438-1.518,1.979-6.142c-4.46-4.625-10.642,1.85-10.642,1.85s4.596,7.719,7.318,7.1
			S681.462,422.326,681.462,422.326z"/>
		<path fill="#CE364C" d="M672.415,383.847c-0.296-0.606-0.041-1.32,0.129-1.973c0.123-0.476,0.199-0.963,0.227-1.452
			c0.018-0.323,0.005-0.676-0.202-0.924c-0.297-0.355-0.852-0.335-1.295-0.199c-0.442,0.135-0.884,0.357-1.344,0.301
			c-0.405-0.05-0.772-0.333-0.924-0.711c-0.088-0.22-0.106-0.463-0.208-0.676c-0.31-0.644-1.269-0.71-1.862-0.313
			c-0.594,0.396-0.908,1.086-1.193,1.74c-0.633,1.449-1.278,2.967-1.188,4.545c0.062,1.063,0.454,2.076,0.624,3.126l0.287-0.354
			c0.817,0.169,1.634,0.339,2.451,0.508c0.309,0.064,0.623,0.129,0.937,0.096c0.575-0.06,1.06-0.432,1.565-0.709
			c0.556-0.304,1.173-0.509,1.662-0.911s0.825-1.095,0.568-1.673C672.584,384.12,672.485,383.991,672.415,383.847z"/>
		<path fill="#CE364C" d="M649.865,386.163c0.065-0.343,0.099-0.718,0.33-0.979c0.277-0.311,0.74-0.354,1.112-0.544
			c0.602-0.306,0.932-0.993,0.99-1.666c0.058-0.673-0.112-1.342-0.281-1.995c-0.034-0.133-0.075-0.276-0.186-0.356
			c-0.112-0.082-0.265-0.076-0.402-0.059c-0.811,0.106-1.575,0.526-2.1,1.153c-0.108,0.129-0.216,0.273-0.374,0.328
			c-0.335,0.114-0.652-0.23-0.766-0.565c-0.147-0.432-0.142-0.903-0.286-1.336s-0.529-0.85-0.981-0.791
			c-0.503,0.065-0.752,0.654-0.785,1.16c-0.033,0.505,0.038,1.051-0.222,1.486c-0.055,0.092-0.126,0.178-0.222,0.226
			c-0.339,0.172-0.684-0.19-1.016-0.374c-0.57-0.316-1.342-0.061-1.732,0.462s-0.45,1.235-0.309,1.872
			c0.141,0.637,0.461,1.218,0.776,1.788c0.592,1.07,1.185,2.141,1.776,3.21l-0.212,0.329
			C647.134,389.907,649.456,388.316,649.865,386.163z"/>
		<path fill="#CE364C" d="M636.052,397.619c-0.596-0.415-0.553-1.453-1.215-1.751c-0.29-0.131-0.63-0.067-0.929,0.04
			c-0.772,0.276-1.492,0.958-1.449,1.776c0.046,0.878,0.938,1.683,0.615,2.5c-0.126,0.32-0.413,0.542-0.65,0.791
			c-0.524,0.555-0.828,1.361-0.632,2.099c0.197,0.737,0.98,1.318,1.724,1.147c0.191-0.044,0.38-0.133,0.575-0.11
			c0.751,0.087,0.604,1.49,1.333,1.692c0.313,0.087,0.629-0.107,0.896-0.294c0.999-0.697,1.993-1.4,2.984-2.109l-0.183,0.11
			c0.37-0.318,0.423-0.864,0.433-1.353c0.019-0.887-0.013-1.774-0.094-2.658c-0.063-0.69-0.242-1.497-0.88-1.771
			C637.787,397.39,636.761,398.112,636.052,397.619z"/>
		<path fill="#CE364C" d="M659.488,405.757c-0.461-0.561-0.139-1.549-0.696-2.015c-0.243-0.204-0.588-0.235-0.904-0.213
			c-0.818,0.057-1.696,0.519-1.877,1.318c-0.192,0.857,0.448,1.873-0.083,2.573c-0.208,0.273-0.545,0.409-0.84,0.586
			c-0.655,0.392-1.166,1.086-1.177,1.849c-0.01,0.763,0.587,1.534,1.349,1.571c0.196,0.01,0.402-0.025,0.584,0.05
			c0.699,0.286,0.179,1.598,0.825,1.989c0.278,0.169,0.634,0.066,0.941-0.041c1.15-0.4,2.298-0.809,3.444-1.223l-0.206,0.057
			c0.442-0.206,0.641-0.718,0.782-1.185c0.258-0.849,0.468-1.712,0.629-2.584c0.126-0.683,0.172-1.508-0.367-1.942
			C661.221,406.006,660.037,406.423,659.488,405.757z"/>
		<path fill="#CE364C" d="M683.723,385.568c0.343-0.609,1.232-0.701,1.636-1.273c0.297-0.421,0.242-1.028-0.058-1.446
			c-0.3-0.419-0.803-0.66-1.313-0.731c-0.541-0.075-1.179-0.014-1.538-0.425c-0.185-0.211-0.244-0.499-0.313-0.771
			c-0.17-0.676-0.438-1.327-0.791-1.929c-0.089-0.151-0.194-0.31-0.356-0.378c-0.21-0.087-0.447-0.002-0.658,0.083
			c-1.035,0.419-2.137,0.891-2.735,1.833c-0.326,0.515-0.468,1.12-0.604,1.713c-0.157,0.68-0.313,1.358-0.47,2.037
			c-0.104,0.452-0.209,0.921-0.117,1.375l-0.69-0.448c-0.028,0.657,0.519,1.287,1.174,1.351c0.19,0.019,0.383-0.005,0.574,0.009
			c0.479,0.036,0.907,0.303,1.312,0.562c0.593,0.38,1.186,0.759,1.778,1.138c0.512,0.328,1.046,0.664,1.648,0.746
			c0.603,0.081,1.296-0.169,1.533-0.729C684.094,387.431,683.269,386.374,683.723,385.568z"/>
		<path fill="#CE364C" d="M683.293,407.267c-0.186-0.156-0.416-0.247-0.646-0.321c-0.39-0.123-0.797-0.203-1.155-0.399
			c-0.359-0.195-0.671-0.541-0.685-0.949c-0.017-0.506,0.407-1.052,0.122-1.471c-0.093-0.136-0.248-0.222-0.409-0.255
			c-0.449-0.095-0.886,0.174-1.267,0.43c-0.592,0.397-1.183,0.796-1.773,1.193c-0.241,0.162-0.492,0.337-0.614,0.601
			c-0.131,0.285-0.083,0.615-0.071,0.929c0.036,0.993-0.336,1.994-1.013,2.722l0.144,0.49c0.324-0.026,0.608,0.197,0.878,0.381
			c1.318,0.897,3.137,1,4.548,0.256c0.176-0.093,0.354-0.206,0.445-0.383c0.189-0.366-0.024-0.931,0.322-1.154
			c0.156-0.102,0.358-0.074,0.544-0.09c0.44-0.036,0.844-0.356,0.978-0.777C683.774,408.046,683.631,407.551,683.293,407.267z"/>
		<path fill="#CE364C" d="M672.819,399.94c-0.186-0.156-0.416-0.248-0.646-0.321c-0.39-0.123-0.798-0.204-1.156-0.399
			s-0.67-0.542-0.684-0.95c-0.018-0.506,0.407-1.052,0.122-1.47c-0.093-0.137-0.248-0.222-0.409-0.256
			c-0.449-0.094-0.887,0.174-1.268,0.431c-0.591,0.397-1.182,0.796-1.772,1.193c-0.241,0.162-0.493,0.337-0.614,0.6
			c-0.131,0.285-0.083,0.616-0.072,0.93c0.037,0.992-0.336,1.994-1.013,2.721l0.145,0.491c0.324-0.027,0.608,0.197,0.878,0.381
			c1.318,0.897,3.137,0.999,4.547,0.256c0.177-0.093,0.354-0.206,0.445-0.383c0.19-0.367-0.023-0.931,0.323-1.155
			c0.156-0.101,0.358-0.073,0.544-0.089c0.44-0.036,0.844-0.357,0.978-0.778C673.301,400.72,673.157,400.225,672.819,399.94z"/>
		<path fill="#CE364C" d="M639.397,394.399c0.049,0.236,0.173,0.451,0.31,0.652c0.229,0.338,0.5,0.653,0.66,1.028
			c0.161,0.376,0.192,0.841-0.05,1.17c-0.3,0.407-0.971,0.574-1.006,1.079c-0.012,0.164,0.058,0.327,0.163,0.454
			c0.294,0.352,0.804,0.411,1.262,0.446c0.711,0.053,1.421,0.106,2.132,0.159c0.289,0.021,0.595,0.04,0.854-0.092
			c0.279-0.143,0.446-0.432,0.631-0.686c0.586-0.803,1.498-1.358,2.479-1.511l0.19-0.475c-0.271-0.18-0.355-0.531-0.454-0.842
			c-0.48-1.521-1.846-2.727-3.414-3.016c-0.195-0.036-0.405-0.058-0.586,0.025c-0.376,0.171-0.558,0.746-0.969,0.707
			c-0.186-0.017-0.327-0.163-0.482-0.266c-0.368-0.244-0.884-0.242-1.25,0.006C639.502,393.489,639.308,393.967,639.397,394.399z"/>
		<g>
			<path fill="#686F9B" d="M660.84,436.236c-1.218-4.911-3.642-11.946-8.274-17.58c-1.489-1.812-3.252-3.266-5.117-4.807
				c-2.153-1.778-4.381-3.619-6.148-6.052c-1.47-2.021-2.397-4.154-3.295-6.219c-0.445-1.024-0.906-2.085-1.427-3.113
				c-0.873-1.725-2.506-3.378-4.086-4.975c-0.474-0.48-0.936-0.948-1.362-1.403l1.607-1.508c0.414,0.441,0.862,0.896,1.323,1.361
				c1.619,1.639,3.455,3.496,4.484,5.529c0.549,1.086,1.023,2.176,1.481,3.229c0.89,2.045,1.729,3.977,3.056,5.802
				c1.604,2.208,3.627,3.879,5.77,5.648c1.864,1.54,3.792,3.131,5.416,5.106c4.895,5.952,7.438,13.318,8.711,18.449L660.84,436.236z
				"/>
		</g>
		<g>
			<path fill="#686F9B" d="M657.412,432.699c-2.948-7.187-0.315-15.229,2.649-22.147l0.487-1.131
				c2.727-6.333,5.548-12.882,4.396-19.396c-0.118-0.668-0.277-1.332-0.436-1.995c-0.355-1.487-0.723-3.024-0.67-4.646
				c0.075-2.313,1.004-4.456,1.824-6.346l6.971-16.067l2.022,0.878l-6.972,16.066c-0.777,1.793-1.581,3.646-1.643,5.541
				c-0.044,1.325,0.274,2.653,0.61,4.061c0.168,0.706,0.337,1.413,0.463,2.124c1.266,7.164-1.687,14.021-4.543,20.65l-0.484,1.128
				c-2.785,6.498-5.276,14.01-2.637,20.443L657.412,432.699z"/>
		</g>
		<g>
			<path fill="#686F9B" d="M663.568,431.302l-2.046-0.818c1.161-2.906,2.63-5.699,4.366-8.303c0.433-0.647,0.913-1.32,1.619-1.824
				c0.573-0.409,1.204-0.635,1.76-0.836c0.199-0.07,0.398-0.142,0.593-0.223c1.517-0.625,2.75-1.849,3.386-3.358
				c0.462-1.099,0.619-2.335,0.785-3.644c0.201-1.582,0.409-3.218,1.187-4.735c0.821-1.604,2.155-2.807,3.331-3.868l13.625-12.293
				l1.476,1.638l-13.624,12.293c-1.086,0.979-2.209,1.992-2.847,3.236c-0.601,1.174-0.776,2.55-0.961,4.007
				c-0.178,1.398-0.361,2.844-0.94,4.221c-0.86,2.042-2.528,3.697-4.577,4.541c-0.225,0.094-0.456,0.177-0.687,0.26
				c-0.463,0.167-0.901,0.324-1.227,0.556c-0.402,0.287-0.733,0.758-1.064,1.254C666.07,425.88,664.673,428.537,663.568,431.302z"/>
		</g>
		<g>
			<path fill="#686F9B" d="M653.865,433.276c-1.129-5.628-2.297-11.448-1.803-17.367c0.034-0.422,0.077-0.85,0.12-1.28
				c0.246-2.468,0.5-5.02-0.709-6.882c-0.331-0.51-0.777-0.975-1.251-1.466c-0.165-0.172-0.33-0.343-0.492-0.518
				c-3.334-3.605-5.122-8.485-4.904-13.392c0.053-1.217,0.228-2.416,0.396-3.575c0.168-1.162,0.327-2.259,0.375-3.369
				c0.075-1.734-0.15-4.132-1.653-5.703l1.594-1.523c2.038,2.133,2.354,5.159,2.262,7.322c-0.053,1.222-0.228,2.425-0.397,3.59
				c-0.168,1.157-0.326,2.249-0.375,3.356c-0.191,4.321,1.384,8.621,4.321,11.798c0.151,0.163,0.307,0.324,0.462,0.485
				c0.524,0.545,1.066,1.108,1.512,1.794c1.63,2.512,1.323,5.587,1.053,8.301c-0.041,0.419-0.083,0.835-0.117,1.245
				c-0.467,5.607,0.669,11.271,1.768,16.75L653.865,433.276z"/>
		</g>
		<g>
			<path fill="#686F9B" d="M668.105,433.223c-6.724-11.863-7.767-24.84-2.79-34.713c2.251-4.466,5.646-8.189,8.929-11.791
				c0.829-0.909,1.658-1.817,2.468-2.737c3.448-3.918,7.498-9.188,8.202-15.234l2.188,0.255c-0.774,6.653-5.075,12.278-8.736,16.435
				c-0.818,0.93-1.655,1.849-2.493,2.769c-3.183,3.49-6.475,7.102-8.589,11.298c-4.645,9.212-3.621,21.412,2.739,32.634
				L668.105,433.223z"/>
		</g>
		<g>
			<path fill="#686F9B" d="M655.649,435.214c-1.777-9.383-3.793-20.018-1.915-30.198c0.191-1.045,0.425-2.083,0.658-3.119
				c0.418-1.86,0.812-3.616,0.985-5.426c0.623-6.489-1.638-12.62-4.029-19.11c-1.891-5.129-3.846-10.433-4.261-15.959l2.198-0.164
				c0.392,5.217,2.292,10.374,4.131,15.361c2.372,6.437,4.825,13.093,4.155,20.083c-0.188,1.946-0.615,3.854-1.029,5.697
				c-0.228,1.01-0.454,2.021-0.643,3.036c-1.802,9.775,0.173,20.195,1.914,29.389L655.649,435.214z"/>
		</g>
		<path fill="#F24052" d="M651.306,355.677c0,0-2.679-6.047-6.401-0.812c-3.724,5.236,3.78,10.117,3.78,10.117
			s6.738-5.939,5.628-8.501S651.306,355.677,651.306,355.677z"/>
		<path fill="#F24052" d="M678.163,361.322c-0.426-0.523-0.339-1.276-0.321-1.951c0.013-0.49-0.023-0.982-0.108-1.466
			c-0.056-0.318-0.148-0.659-0.406-0.854c-0.369-0.279-0.905-0.134-1.306,0.099c-0.401,0.232-0.78,0.549-1.241,0.599
			c-0.405,0.043-0.828-0.149-1.061-0.484c-0.136-0.193-0.209-0.427-0.356-0.61c-0.446-0.557-1.396-0.405-1.885,0.115
			c-0.488,0.521-0.638,1.265-0.768,1.967c-0.288,1.555-0.573,3.179-0.127,4.696c0.3,1.02,0.912,1.918,1.315,2.902l0.2-0.41
			c0.834-0.021,1.668-0.04,2.502-0.061c0.315-0.008,0.636-0.016,0.935-0.119c0.546-0.188,0.934-0.66,1.364-1.045
			c0.472-0.422,1.026-0.762,1.411-1.264c0.386-0.503,0.557-1.254,0.175-1.759C678.39,361.55,678.265,361.446,678.163,361.322z"/>
		<path fill="#F24052" d="M656.215,390.163c-0.432-0.077-0.708-0.484-0.984-0.824c-0.202-0.247-0.428-0.474-0.674-0.676
			c-0.162-0.134-0.353-0.262-0.562-0.249c-0.3,0.02-0.503,0.317-0.602,0.602s-0.152,0.601-0.358,0.819
			c-0.181,0.193-0.471,0.277-0.727,0.211c-0.148-0.038-0.283-0.121-0.434-0.149c-0.456-0.085-0.859,0.392-0.879,0.854
			c-0.021,0.463,0.22,0.893,0.453,1.293c0.517,0.888,1.063,1.809,1.926,2.366c0.58,0.376,1.261,0.56,1.876,0.873l-0.075-0.287
			c0.402-0.362,0.805-0.726,1.207-1.088c0.152-0.138,0.307-0.277,0.41-0.454c0.188-0.324,0.18-0.721,0.229-1.093
			c0.054-0.407,0.183-0.81,0.16-1.22c-0.023-0.41-0.257-0.853-0.658-0.939C656.422,390.18,656.316,390.182,656.215,390.163z"/>
		<path fill="#F24052" d="M667.753,416.252c-0.394-0.191-0.55-0.658-0.725-1.061c-0.127-0.292-0.283-0.571-0.465-0.833
			c-0.12-0.172-0.269-0.347-0.474-0.391c-0.294-0.063-0.569,0.169-0.741,0.416c-0.173,0.247-0.31,0.537-0.567,0.692
			c-0.227,0.137-0.527,0.14-0.757,0.006c-0.132-0.077-0.239-0.193-0.377-0.262c-0.416-0.205-0.933,0.145-1.077,0.585
			s-0.029,0.919,0.087,1.368c0.257,0.994,0.534,2.028,1.213,2.799c0.456,0.519,1.063,0.88,1.57,1.348l0.005-0.296
			c0.485-0.24,0.971-0.481,1.457-0.722c0.184-0.091,0.37-0.184,0.517-0.326c0.27-0.261,0.369-0.645,0.517-0.989
			c0.162-0.378,0.396-0.73,0.484-1.131c0.089-0.402-0.016-0.891-0.379-1.083C667.949,416.324,667.847,416.298,667.753,416.252z"/>
		<path fill="#F24052" d="M674.815,386.025c-0.394-0.191-0.55-0.658-0.725-1.061c-0.127-0.292-0.283-0.571-0.465-0.833
			c-0.12-0.172-0.269-0.347-0.474-0.391c-0.294-0.063-0.569,0.169-0.741,0.416c-0.173,0.247-0.31,0.537-0.567,0.692
			c-0.227,0.137-0.527,0.14-0.757,0.006c-0.132-0.077-0.239-0.194-0.377-0.262c-0.415-0.205-0.933,0.145-1.077,0.585
			s-0.029,0.919,0.087,1.368c0.257,0.994,0.534,2.028,1.213,2.799c0.457,0.519,1.063,0.879,1.57,1.348l0.005-0.296
			c0.486-0.24,0.972-0.481,1.457-0.722c0.184-0.091,0.37-0.185,0.518-0.326c0.27-0.261,0.368-0.645,0.516-0.989
			c0.162-0.378,0.396-0.73,0.484-1.132c0.09-0.401-0.016-0.89-0.379-1.082C675.012,386.098,674.909,386.071,674.815,386.025z"/>
		<path fill="#F24052" d="M667.62,376.166c-0.395-0.191-0.55-0.659-0.725-1.061c-0.127-0.292-0.283-0.571-0.466-0.833
			c-0.119-0.172-0.268-0.347-0.473-0.391c-0.294-0.063-0.569,0.169-0.742,0.416c-0.172,0.246-0.309,0.537-0.566,0.692
			c-0.227,0.137-0.528,0.139-0.757,0.006c-0.133-0.077-0.239-0.194-0.377-0.262c-0.416-0.205-0.933,0.145-1.077,0.585
			c-0.146,0.44-0.029,0.919,0.086,1.368c0.258,0.994,0.535,2.028,1.214,2.799c0.456,0.519,1.063,0.879,1.57,1.348l0.005-0.296
			c0.485-0.241,0.971-0.481,1.456-0.722c0.184-0.091,0.37-0.185,0.518-0.326c0.27-0.261,0.368-0.646,0.517-0.99
			c0.162-0.377,0.396-0.729,0.484-1.131s-0.017-0.89-0.38-1.082C667.815,376.238,667.714,376.211,667.62,376.166z"/>
		<path fill="#F24052" d="M644.623,375.771c-0.304-0.171-0.647-0.322-0.82-0.625c-0.207-0.362-0.1-0.815-0.16-1.228
			c-0.097-0.668-0.644-1.201-1.262-1.472c-0.619-0.27-1.308-0.322-1.98-0.372c-0.137-0.01-0.285-0.017-0.397,0.063
			c-0.113,0.08-0.156,0.226-0.184,0.362c-0.159,0.802-0.005,1.661,0.421,2.358c0.088,0.144,0.189,0.291,0.19,0.459
			c0.002,0.354-0.427,0.544-0.78,0.545c-0.456,0.001-0.9-0.155-1.356-0.157c-0.456-0.001-0.976,0.23-1.063,0.678
			c-0.1,0.497,0.379,0.921,0.848,1.114c0.468,0.194,1.008,0.3,1.337,0.686c0.069,0.081,0.128,0.177,0.144,0.283
			c0.054,0.375-0.399,0.586-0.68,0.842c-0.482,0.439-0.486,1.252-0.116,1.789c0.37,0.538,1.025,0.822,1.674,0.892
			c0.649,0.07,1.302-0.047,1.944-0.164c1.202-0.218,2.405-0.437,3.608-0.655l0.243,0.306
			C647.297,379.558,646.532,376.848,644.623,375.771z"/>
		<path fill="#F24052" d="M684.107,384.248c0.298-0.092,0.606-0.222,0.909-0.147c0.36,0.088,0.589,0.436,0.893,0.649
			c0.491,0.348,1.172,0.321,1.727,0.087c0.555-0.235,1.012-0.647,1.456-1.053c0.091-0.083,0.187-0.175,0.204-0.296
			c0.018-0.122-0.05-0.24-0.122-0.341c-0.421-0.596-1.071-1.023-1.785-1.176c-0.146-0.031-0.305-0.056-0.414-0.158
			c-0.229-0.216-0.09-0.61,0.127-0.84c0.279-0.296,0.654-0.487,0.935-0.781c0.28-0.295,0.449-0.772,0.215-1.104
			c-0.262-0.369-0.829-0.319-1.242-0.136c-0.413,0.185-0.813,0.469-1.265,0.445c-0.095-0.005-0.192-0.025-0.271-0.081
			c-0.276-0.195-0.135-0.618-0.128-0.957c0.012-0.582-0.512-1.083-1.087-1.174c-0.574-0.09-1.161,0.16-1.604,0.537
			s-0.769,0.871-1.087,1.358c-0.597,0.912-1.194,1.825-1.791,2.738l-0.348-0.03C680.016,383.654,682.239,384.822,684.107,384.248z"
			/>
		<path fill="#F24052" d="M653.105,421.149c-0.288-0.161-0.613-0.305-0.777-0.591c-0.195-0.343-0.094-0.771-0.15-1.161
			c-0.092-0.632-0.609-1.137-1.194-1.392c-0.585-0.256-1.236-0.306-1.873-0.353c-0.129-0.01-0.271-0.016-0.376,0.059
			c-0.107,0.076-0.148,0.214-0.174,0.343c-0.149,0.759-0.005,1.571,0.398,2.231c0.083,0.136,0.18,0.275,0.181,0.435
			c0.002,0.334-0.404,0.515-0.738,0.515c-0.432,0.002-0.853-0.146-1.284-0.148c-0.431-0.001-0.922,0.218-1.006,0.641
			c-0.094,0.471,0.359,0.871,0.802,1.055c0.443,0.184,0.954,0.284,1.266,0.648c0.065,0.077,0.121,0.167,0.136,0.268
			c0.051,0.354-0.378,0.555-0.644,0.796c-0.456,0.416-0.46,1.185-0.11,1.693c0.351,0.508,0.971,0.777,1.585,0.843
			c0.613,0.066,1.23-0.045,1.838-0.154c1.138-0.207,2.275-0.414,3.413-0.62l0.23,0.288
			C655.635,424.731,654.911,422.169,653.105,421.149z"/>
		<path fill="#F24052" d="M631.676,386.633c-0.479-0.546-0.188-1.544-0.759-1.992c-0.25-0.196-0.596-0.216-0.911-0.185
			c-0.816,0.083-1.68,0.572-1.834,1.378c-0.166,0.862,0.506,1.857-0.003,2.574c-0.199,0.28-0.531,0.427-0.821,0.612
			c-0.642,0.412-1.131,1.122-1.117,1.885s0.635,1.515,1.398,1.527c0.196,0.004,0.4-0.037,0.584,0.031
			c0.708,0.265,0.229,1.592,0.888,1.963c0.283,0.16,0.636,0.047,0.939-0.07c1.138-0.438,2.271-0.881,3.404-1.331l-0.204,0.063
			c0.436-0.22,0.618-0.737,0.745-1.209c0.23-0.856,0.413-1.726,0.547-2.603c0.104-0.686,0.124-1.512-0.429-1.93
			C633.415,386.827,632.245,387.282,631.676,386.633z"/>
		<path fill="#F24052" d="M664.263,398.562c-0.313-0.655,0.236-1.537-0.192-2.123c-0.188-0.257-0.514-0.37-0.827-0.425
			c-0.808-0.141-1.771,0.097-2.138,0.83c-0.394,0.785-0.016,1.926-0.699,2.478c-0.268,0.216-0.627,0.267-0.956,0.367
			c-0.729,0.223-1.393,0.774-1.586,1.513s0.201,1.63,0.933,1.849c0.188,0.057,0.396,0.072,0.554,0.188
			c0.61,0.447-0.21,1.595,0.323,2.131c0.229,0.23,0.601,0.216,0.924,0.186c1.213-0.112,2.426-0.232,3.637-0.359l-0.213,0.005
			c0.479-0.094,0.794-0.542,1.044-0.962c0.454-0.762,0.865-1.55,1.231-2.357c0.286-0.632,0.529-1.422,0.109-1.974
			C665.884,399.219,664.635,399.34,664.263,398.562z"/>
		<path fill="#F24052" d="M689.247,366.837c-0.305-0.631,0.128-1.413-0.11-2.071c-0.176-0.483-0.705-0.786-1.221-0.779
			c-0.514,0.007-1,0.282-1.35,0.659c-0.371,0.4-0.685,0.96-1.228,1.02c-0.278,0.031-0.549-0.085-0.812-0.185
			c-0.651-0.247-1.339-0.399-2.034-0.453c-0.176-0.014-0.365-0.018-0.515,0.077c-0.191,0.122-0.257,0.365-0.308,0.587
			c-0.248,1.089-0.491,2.263-0.059,3.293c0.235,0.561,0.651,1.023,1.06,1.475c0.468,0.517,0.936,1.033,1.403,1.55
			c0.311,0.344,0.636,0.697,1.061,0.882l-0.762,0.31c0.522,0.399,1.353,0.311,1.779-0.19c0.124-0.146,0.215-0.317,0.335-0.467
			c0.304-0.373,0.767-0.571,1.211-0.755c0.649-0.27,1.3-0.539,1.949-0.809c0.563-0.233,1.143-0.479,1.554-0.928
			c0.412-0.448,0.604-1.159,0.278-1.674C690.987,367.596,689.648,367.669,689.247,366.837z"/>
		<path fill="#F24052" d="M645.019,403.122c-0.39-0.535-0.248-1.396-0.594-1.974c-0.255-0.425-0.738-0.589-1.134-0.457
			c-0.396,0.132-0.703,0.516-0.881,0.966c-0.188,0.478-0.293,1.094-0.698,1.284c-0.207,0.098-0.445,0.051-0.672,0.019
			c-0.564-0.08-1.133-0.061-1.683,0.057c-0.14,0.03-0.287,0.072-0.379,0.199c-0.118,0.165-0.108,0.416-0.094,0.643
			c0.075,1.112,0.177,2.306,0.763,3.196c0.32,0.484,0.755,0.83,1.181,1.167c0.488,0.386,0.977,0.771,1.465,1.156
			c0.324,0.257,0.662,0.52,1.036,0.594l-0.513,0.485c0.502,0.259,1.121-0.029,1.327-0.617c0.061-0.171,0.089-0.359,0.146-0.532
			c0.142-0.435,0.451-0.738,0.749-1.024c0.436-0.419,0.871-0.837,1.308-1.256c0.377-0.362,0.765-0.74,0.973-1.273
			s0.181-1.268-0.196-1.686C646.549,403.433,645.533,403.829,645.019,403.122z"/>
		<path fill="#F24052" d="M678.128,407.578c-0.23-0.62,0.14-1.411-0.038-2.061c-0.129-0.479-0.551-0.767-0.968-0.746
			c-0.417,0.02-0.816,0.306-1.109,0.69c-0.311,0.409-0.578,0.975-1.019,1.048c-0.227,0.037-0.442-0.072-0.652-0.164
			c-0.521-0.229-1.074-0.365-1.636-0.401c-0.142-0.009-0.295-0.008-0.418,0.09c-0.158,0.127-0.218,0.371-0.264,0.593
			c-0.229,1.092-0.455,2.268-0.131,3.283c0.177,0.554,0.501,1.005,0.82,1.443c0.366,0.504,0.731,1.007,1.098,1.51
			c0.243,0.335,0.497,0.679,0.836,0.853l-0.624,0.328c0.413,0.385,1.087,0.275,1.444-0.235c0.104-0.148,0.183-0.321,0.283-0.474
			c0.255-0.379,0.635-0.588,0.999-0.783c0.533-0.285,1.065-0.569,1.599-0.854c0.461-0.246,0.937-0.506,1.281-0.964
			c0.344-0.457,0.517-1.171,0.268-1.676C679.518,408.291,678.432,408.398,678.128,407.578z"/>
		<path fill="#F24052" d="M697.884,391.918c-0.186-0.156-0.416-0.248-0.646-0.321c-0.39-0.123-0.798-0.204-1.156-0.399
			s-0.671-0.542-0.684-0.95c-0.018-0.506,0.407-1.052,0.122-1.47c-0.093-0.137-0.248-0.222-0.409-0.256
			c-0.449-0.095-0.887,0.174-1.268,0.431c-0.591,0.397-1.182,0.795-1.773,1.193c-0.24,0.162-0.492,0.337-0.613,0.6
			c-0.131,0.285-0.083,0.615-0.071,0.93c0.036,0.992-0.337,1.994-1.014,2.721l0.145,0.491c0.324-0.026,0.608,0.197,0.877,0.38
			c1.319,0.898,3.137,1,4.549,0.257c0.176-0.093,0.354-0.206,0.445-0.383c0.189-0.367-0.024-0.931,0.322-1.155
			c0.156-0.101,0.358-0.074,0.544-0.089c0.44-0.036,0.844-0.357,0.978-0.778C698.365,392.697,698.222,392.202,697.884,391.918z"/>
		<path fill="#F24052" d="M683.581,394.54c-0.24,0.031-0.464,0.138-0.674,0.258c-0.355,0.202-0.69,0.447-1.078,0.578
			c-0.387,0.131-0.853,0.126-1.162-0.141c-0.383-0.331-0.496-1.013-0.997-1.088c-0.163-0.023-0.331,0.032-0.465,0.128
			c-0.374,0.266-0.474,0.77-0.544,1.223c-0.108,0.705-0.217,1.409-0.325,2.113c-0.044,0.286-0.087,0.59,0.025,0.857
			c0.12,0.29,0.396,0.479,0.634,0.684c0.754,0.646,1.237,1.599,1.313,2.59l0.458,0.227c0.201-0.257,0.558-0.313,0.876-0.387
			c1.554-0.36,2.861-1.627,3.271-3.169c0.052-0.192,0.089-0.399,0.021-0.587c-0.142-0.388-0.7-0.613-0.63-1.021
			c0.031-0.183,0.188-0.313,0.303-0.46c0.272-0.348,0.31-0.862,0.092-1.246C684.48,394.716,684.02,394.484,683.581,394.54z"/>
		<g>
			<polygon fill="#686F9B" points="677.775,426.153 642.973,426.153 646.437,460.274 674.312,460.274 			"/>
			<polygon fill="#A7B0D1" points="679.01,426.153 641.738,426.153 642.345,431.737 678.403,431.737 			"/>
		</g>
	</g>
	<g>
		<path fill="#233C5B" d="M202.437,460.274l-1.549-0.724l-0.723,0.724h-5.908c-0.587-1.699-2.587-8.16-0.782-12.642
			c2.093-5.197,8.569-3.81,8.569-3.81s4.395,6.131,6.939,7.229c2.544,1.098,12.258,5.03,13.415,7.574
			c0.346,0.761-0.243,1.274-0.073,1.648H202.437z"/>
		<path fill="#233C5B" d="M143.438,460.274v-3.416c0-3.937,3.674-11.079,3.674-13.704c0-2.624,10.153,2.132,10.153,2.132
			s0.081,3.962,3.492,7.636c2.604,2.804,2.608,6.398,2.465,7.353H143.438z"/>
		<path fill="#252A40" d="M128.482,289.041c0,20.82,2.049,42.024,2.575,47.403s9.507,67.538,10.291,90.782
			c0.401,11.906,2.089,25.726,2.089,25.726s7.623,0,16.146-1.479l1.957-11.647l-3.011-7.314c0,0,3.218-6.051,0.584-10.752
			c-2.633-4.701-3.44-105.189-3.44-105.189l2.978-0.325l28.365,116.562l0.413,6.515c0,0,5.262,9.185,5.308,14.569l13.806-6.432
			l-2.633-7.633l0.711-4.427l-3.761-20.364c0,0-16.495-116.342-21.719-123.927L128.482,289.041z"/>
		<path fill="#FF8B66" d="M186.616,236.333c-15.032,0.652-51.959,3.768-62.952,11.272c-4.933,3.368,9.854,34.298,9.854,34.298
			l7.191-3.711l-4.57-23.558l39.607-6.664l12.288-11.647"/>
		<path fill="#C11F3E" d="M193.425,236.687c-20.559-4.466-47.116,3.846-47.116,3.846s8.507,4.202,3.452,12.146l10.303,1.696
			L193.425,236.687z"/>
		<path fill="#EF6E4B" d="M223.942,238.44c0,0,16.094,38.231,12.721,51.201c-3.562,13.697-9.92-1.889-15.026-6.209
			s-3.417-42.62-3.417-42.62L223.942,238.44z"/>
		<path fill="#EF6E4B" d="M224.341,234.725c0,5.605-1.081,10.555-4.579,8.19c-3.499-2.365-3.675-7.502,1.234-12.885
			C220.996,230.029,224.341,232.467,224.341,234.725z"/>
		<g>
			<path fill="#FF8B66" d="M222.779,210.638c-1.584-7.909-19.71-3.237-21.194,1.81c-1.483,5.047-3.117,21.497,8.23,25.268
				C221.688,241.661,224.218,217.822,222.779,210.638z"/>
			<path fill="#EF6E4B" d="M214.632,226.976c0,0,2.039,10.018-2.612,11.167C207.369,239.292,200.802,224.128,214.632,226.976z"/>
			<path fill="#FF8B66" d="M211.888,236.184c0,0-4.919,3.537-5.438,9.438c0,0-11.333,0.72-19.335-7.469
				c0,0,13.899-3.948,13.55-8.566l0.991-0.877C209.996,228.8,211.888,236.184,211.888,236.184z"/>
			<path fill="#FFB878" d="M224.406,203.848c0,0,0.153,1.24-0.951,1.24c0,0-1.047-2.342-6.242-4.408c0,0,0.098,1.217,0,1.917
				c0,0-8.225-2.187-14.287,0.634c-6.062,2.821-8.289,9.203-5.936,16.482c0,0.002,0.001,0.003,0.002,0.005
				c0.022,0.314,0.047,0.626,0.082,0.929c-0.285,4.061,0.863,7.698,3.59,8.94c9.199,4.188,13.966-2.611,13.966-2.611
				c-0.725-1.767,0.533-6.628,2.29-6.188s1.459,1.938,1.459,1.938c2.259-3.949,3.117-6.947,3.421-8.966
				c0.481,0.469,1.042,1.177,1.341,2.131C223.143,215.89,228.528,212.389,224.406,203.848z"/>
		</g>
		<path fill="#C11F3E" d="M212.081,242.122c0,0-4.672-8.261-12.857-9.71c-8.185-1.449-11.188,6.029-11.188,6.029L212.081,242.122z"
			/>
		<path fill="#FF8B66" d="M223.353,236.296c0,0,0.589-1.08,0.589-2.455s-1.823-3.759-1.823-3.759s-1.233-0.634-0.91,2.491
			c0.159,1.539-1.882,3.961-2.078,6.738c-0.197,2.777,1.865,5.214,3.142,3.603C223.549,241.304,223.353,236.296,223.353,236.296z"/>
		<path fill="#CE364C" d="M221.073,246.705c-14.718-14.798-42.693-13.579-51.206-6.008c-7.377,6.561-45.877,30.403-42.296,59.721
			c0,0,26.037-8.266,55.683,5.756c1.795,0.85,0.487-9.183,0.487-9.183S231.275,256.963,221.073,246.705z"/>
		<path fill="#EF6E4B" d="M239.958,280.049c0,0-0.018,0-0.047,0c0.106,0.13,0.207,0.271,0.295,0.413L239.958,280.049z"/>
		<path fill="#FF8B66" d="M221.947,251.953c-5.21-6.247-9.203-1.141-9.85,8.526c-0.646,9.668,17.404,45.068,24.565,31.813
			C239.501,287.04,231.164,263.003,221.947,251.953z"/>
		<path fill="#C11F3E" d="M216.431,243.43c0,0,8.195,2.539,17.234,27.711c0,0-2.814,13.985-13.438,13.82
			c0,0-9.076-12.213-11.513-16.475S208.135,248.274,216.431,243.43z"/>
	</g>
	<g>
		<path fill="#8BBDDB" d="M582.194,241.65c0,0-10.639,5.024-11.514,6.001c-0.874,0.977-14.522,14.724-14.522,14.724l-2.868,13.945
			l13.264-1.041L582.194,241.65z"/>
		<path fill="#528DAA" d="M551.288,320.737c4.963-5.256,46.384-1.643,50.9,3.107s-6.677-62.686-6.677-62.686
			s-20.413-1.88-21.557,3.457C567.955,292.621,551.288,320.737,551.288,320.737z"/>
		<path fill="#528DAA" d="M587.664,239.093c0,0,7.674-3.393,14.524-0.862l1.184,9.753c0,0-16.295,5.942-21.564,4.193
			S575.124,246.258,587.664,239.093z"/>
		<path fill="#EF6E4B" d="M531.543,460.214c1.872-1.513,6.676-7.992,7.664-11.249c1.396-4.601,3.049-10.925,4.736-17.815h7.193
			c-2.358,7.516-3.869,13.804-4.545,16.637c0.022,0.475,0.132,0.871,0.266,1.328c0.202,0.691,0.602,11.16,0.602,11.16H531.35
			c0.063-0.02,0.113-0.033,0.145-0.041C531.523,460.224,531.532,460.222,531.543,460.214z"/>
		<path fill="#FF8B66" d="M585.544,431.149h8.505c-1.589,8.76-2.832,16.199-2.832,16.199v12.926h-9.267
			c0.892-3.869,3.469-15.466,3.469-20.355C585.419,437.047,585.466,434.111,585.544,431.149z"/>
		<path fill="#252A40" d="M541.944,439.092c5.054-19.448,11.311-48.891,12.123-53.768c0.525-3.151,0.995-13.153,2.235-25.432
			c0.324-14.002,1.938-46.015,9.802-64.187l18.514,0.433c-0.75,14.43,13.242,30.004-3.794,46.694
			c-2.219,6.233-9.571,27.368-10.638,36.677c-1.259,10.983-2.999,18.203-8.688,32.801c-4.337,11.13-8.9,28.088-8.9,28.088
			C550.369,441.893,541.944,439.092,541.944,439.092z"/>
		<path fill="#333951" d="M604.692,359.021c-3.382,17.092-1.74,34.659-3.886,48.542c-0.921,5.956-6.368,34.653-6.368,34.653
			c-6.439,1.149-10.601-1.131-10.588-1.225c1.847-14.158,3.089-57.021,2.566-68.59c-0.221-4.876-2.649-36.389-5.302-37.921
			c-10.859-6.277-15.011-38.774-15.011-38.774l27.71,1.289c0,0,16.142,13.411,11.903,37.286c0,0,0.017,0.245,0.039,0.674
			C606.433,346.193,605.861,353.112,604.692,359.021z"/>
		<path fill="#1A4850" d="M548.271,460.274c0,0,0.71-9.582-1.162-12.084c0,0-2.071,3.289-4.905,3.289
			c-1.844,0-2.588-4.243-4.166-3.289c-1.384,0.837-2.314,3.23-6.033,5.682c-3.718,2.451-6.738,1.755-6.971,6.402H548.271z"/>
		<path fill="#1A4850" d="M592.541,450.282c0,0-0.116-3.183-4.531-2.812s-4.099,3.573-4.099,3.573s-0.665-0.516-1.246,0
			s-0.09,4.932-1.207,5.86c-1.117,0.93-0.769,3.37-0.769,3.37h12.897c0,0,0.696-3.138-0.581-4.299
			C591.728,454.813,594.98,450.631,592.541,450.282z"/>
		<path fill="#FFB878" d="M602.184,297.519c0,0-15.301,7.648-30.729,5.935c-7.862-0.874-6.872-5.935-6.872-5.935
			c2.772-10.037,4.603-16.534,4.603-16.534c-12.779-21.82,9.551-37.1,9.551-37.1s0.159-0.06,0.46-0.16
			c2.93-0.98,19.18-5.95,29.79,0.84c0.699,0.44,1.37,0.94,2.01,1.49c11.43,9.8-12.76,40.09-12.76,40.09
			C599.158,288.416,600.625,292.287,602.184,297.519z"/>
		<g>
			<path fill="#CE364C" d="M597.097,208.836c0,0,2.077-4.776,7.615-4.02c5.539,0.756,7.715,7.59,6.132,15.151
				c-1.582,7.561,0.297,10.867-0.593,14.011c-0.891,3.144-3.165,3.242-3.165,3.242s3.461-0.973,2.473-6.964
				c0,0-0.09,6.767-5.337,6.964c0,0,3.655-3.264,1.578-8.11c-2.077-4.846-0.89-8.233-0.89-8.233s-1.188,3.589-0.198,7.691
				c0.989,4.102,0,5.882,0,5.882s0.297-3.556-0.89-5.882c-1.188-2.326-2.834-9.112-2.109-14.669
				C602.438,208.342,597.097,208.836,597.097,208.836z"/>
			<path fill="#CE364C" d="M576.559,210.577c-5.447,0.815-3.705,12.765,3.917,17.937S585.451,209.248,576.559,210.577z"/>
			<path fill="#FF8B66" d="M594.852,206.161c0,0-17.128-2.56-18.374,9.401c-1.246,11.961,3.831,23.448,11.28,21.304
				C598.239,233.851,608.543,210.348,594.852,206.161z"/>
			
				<ellipse transform="matrix(0.9611 -0.2762 0.2762 0.9611 -39.0021 171.1197)" fill="#DB614D" cx="588.015" cy="224.027" rx="1.577" ry="1.261"/>
			<g>
				<path fill="#CE364C" d="M587.042,216.832c-0.105,0.012-0.214-0.024-0.291-0.108c-0.858-0.933-2.141-0.58-2.153-0.576
					c-0.182,0.053-0.37-0.053-0.422-0.233c-0.052-0.181,0.053-0.37,0.233-0.422c0.068-0.02,1.703-0.471,2.844,0.77
					c0.128,0.139,0.118,0.354-0.02,0.482C587.178,216.794,587.11,216.824,587.042,216.832z"/>
			</g>
			<g>
				<path fill="#CE364C" d="M579.283,216.42c-0.069,0.008-0.142-0.006-0.207-0.042c-1.095-0.623-2.182,0.079-2.228,0.108
					c-0.157,0.104-0.368,0.061-0.472-0.096s-0.063-0.367,0.094-0.472c0.06-0.041,1.478-0.968,2.943-0.134
					c0.163,0.093,0.221,0.301,0.127,0.465C579.485,216.348,579.388,216.407,579.283,216.42z"/>
			</g>
			<path fill="#CE364C" d="M589.444,213.15c0,0,4.533,4.062,5.425,10.219c0,0,2.126-3.804,4.056-1.166
				c1.929,2.639-3.01,7.863-3.01,7.863s9.244-1.1,8.229-13.127C603.717,211.873,596.439,208.462,589.444,213.15z"/>
			<path fill="#EF6E4B" d="M595.264,227.547c-0.651,3.561-4.386,10.189-9.716,9.425c0,0,2.146,4.759,0.371,6.944
				c0,0-1.533,4.246,3.603,3.906c6.423-0.426,9.034-6.137,9.034-6.137c-3.825-5.629-1.386-13.838-1.386-13.838
				C595.968,228.985,595.264,227.547,595.264,227.547z"/>
			<g>
				<path fill="#DB614D" d="M580.254,226.81l0.181-0.728c-0.134-0.034-1.292-0.362-1.048-1.48c0.074-0.339,0.219-0.572,0.43-0.691
					c0.371-0.212,0.865-0.049,0.87-0.047l0.243-0.709c-0.032-0.011-0.81-0.273-1.477,0.101c-0.407,0.228-0.676,0.627-0.799,1.187
					C578.33,225.924,579.559,226.639,580.254,226.81z"/>
			</g>
			
				<ellipse transform="matrix(0.994 -0.1095 0.1095 0.994 -20.7006 65.4849)" fill="#233C5B" cx="585.796" cy="221.191" rx="0.849" ry="1.341"/>
			<path fill="#233C5B" d="M587.045,220.833c0,0-0.681-1.607-1.281-1.542c-0.601,0.066-1.396,1.356-1.396,1.356l-1.229-0.601
				l1.122,0.227c0,0,0.681-1.435,1.552-1.321C586.683,219.065,587.045,220.833,587.045,220.833z"/>
			
				<ellipse transform="matrix(0.994 -0.1098 0.1098 0.994 -20.8028 64.8992)" fill="#233C5B" cx="578.876" cy="221.337" rx="0.849" ry="1.341"/>
			<path fill="#233C5B" d="M580.125,220.978c0,0-0.681-1.606-1.281-1.541s-1.396,1.356-1.396,1.356l-1.229-0.602l1.122,0.227
				c0,0,0.681-1.435,1.552-1.321S580.125,220.978,580.125,220.978z"/>
			<path fill="#CE364C" d="M593.16,205.133c0,0-3.261-4.923-12.246-1.589c-4.877,1.81-8.555,7.929-7.486,12.999l2.79,1.754
				c0-2.604,5.014-7.772,10.827-6.527c0,0,0.829,8.725,7.824,11.599c0,0,2.513-6.735,8.007-3.302
				C602.876,220.067,605.484,205.253,593.16,205.133z"/>
			<g>
				<path fill="#233C5B" d="M580.289,229.611c-0.039-0.006-0.076-0.021-0.11-0.044c-0.112-0.08-0.138-0.236-0.058-0.349
					c0.608-0.854,3.204,0.04,3.989,0.334c0.129,0.048,0.194,0.193,0.146,0.322s-0.191,0.195-0.321,0.146
					c-1.438-0.541-3.147-0.874-3.407-0.512C580.471,229.587,580.378,229.623,580.289,229.611z"/>
			</g>
		</g>
		<path fill="#EF6E4B" d="M608.989,244.563c-0.35,0.19-0.71,0.39-1.09,0.58c-0.75,0.39-1.58,0.79-2.47,1.21
			c-0.45,0.21-0.91,0.42-1.391,0.64c-0.489,0.22-0.979,0.44-1.47,0.66c-14.68,6.47-22.74,6.521-22.97,6.521
			c0,0-2.46-2.381-2.46-6.101v-0.09c0-0.13,0.01-0.26,0.02-0.39c0.04-0.4,0.12-0.78,0.25-1.15c0.17-0.49,0.41-0.97,0.72-1.43
			c0.29-0.45,0.65-0.88,1.07-1.29c2.87-0.96,18.51-5.75,29.12,0.44C608.55,244.282,608.77,244.422,608.989,244.563z"/>
		<path fill="#FF8B66" d="M608.989,244.563c-0.35,0.19-0.71,0.39-1.09,0.58c-0.76,0.4-1.58,0.8-2.47,1.21
			c-0.45,0.21-0.91,0.42-1.391,0.64c-0.489,0.22-0.979,0.44-1.47,0.66c-14.68,6.47-22.74,6.521-22.97,6.521
			c0,0-2.46-2.381-2.46-6.101v-0.09c0-0.13,0.01-0.26,0.02-0.39c0.04-0.4,0.12-0.78,0.25-1.15c0.17-0.49,0.41-0.97,0.72-1.43
			c1.28,0.6,3.891,1.78,4.75,1.98l0.561,2.16l3-1.94c0,0,10.57,0.3,21.88-3.05C608.55,244.282,608.77,244.422,608.989,244.563z"/>
		<path fill="#A8D8EF" d="M602.188,241.051c0,0-10.232,7.087-16.233,21.19c-6,14.104,10.75,73.161,10.75,73.161
			s10.75-2.808,19-8.058l-12.25-41.5c0,0,13.25-27.5,13.5-32C616.955,253.845,614.672,244.008,602.188,241.051z"/>
		<path fill="#8BBDDB" d="M606.427,241.936c0,0,1.552,4.918,0.415,15.288c0,0-2.637-1.963-7.637-1.671
			c0,0-12.411,14.107-12.58,35.45c0,0-5.291-20.419-1.48-30.789c3.811-10.37,17.044-21.983,17.044-21.983L606.427,241.936z"/>
		<path fill="#A8D8EF" d="M581.231,242.73c0,0-11.026,15.917-11.276,21.391s0,23.18,0,23.18l-18.5,38.044
			c0,0-3.65-8.486,14.175-37.118c0,0-2.175-18.366-1.175-24.124S570.455,246.992,581.231,242.73z"/>
		<path fill="#8BBDDB" d="M569.955,287.301c0,0-0.174-22.754,3.476-31.98c3.649-9.226,12.882-15.434,12.882-15.434
			s-11.908,3.563-16.982,14.833c0,0,1.25-0.375,2.5-0.25C571.83,254.47,566.33,259.758,569.955,287.301z"/>
		<path fill="#FF8B66" d="M567.445,292.461l-6.639-0.514c0,0-7.022,1.385-7.715,1.286s-8.703-4.871-12.165-5.007
			c-3.461-0.136-1.78-0.926-1.78-0.926s19.188,0.196,21.956,0.196c2.77,0,8.266,0.729,8.266,0.729L567.445,292.461z"/>
		<path fill="#8BBDDB" d="M614.637,248.881c-4.023-3.717-14.315,38.419-14.315,38.419h-34.797c0,0-2.92,5.86-0.982,8.405
			c0,0,37.956,7.417,41.885,6.032C610.355,300.354,625.389,258.815,614.637,248.881z"/>
		<path fill="#EF6E4B" d="M581.09,233.082c-0.424-0.338-3.694,0.097-4.962,0.226s-11.452,8.007-11.452,8.007
			c-0.828,1.582,3.87,5.604,3.87,5.604l3.003-2.991c0,0,1.756-0.15,4.014-0.838c0,0,0.095,0.829,0.421,0.807
			c0.443-0.029,2.189-0.979,2.617-1.233c0.489-0.29,0.361-1.785,0.361-1.785c0.922-0.748,1.628-0.902,0.742-2.721
			c0,0,0.888-1.029,0.851-1.343c-0.049-0.423-2.647-1.568-2.647-1.568l2.323-0.622c0,0,0.199,1.618,1.046,1.428
			C581.428,236.019,581.408,233.336,581.09,233.082z"/>
		<path fill="#8BBDDB" d="M570.681,244.796c0,0-1.446-3.958-4.914-5.155c0,0-21.228,25.306-21.386,29.805
			c-0.157,4.499,5.521,6.929,8.905,5.354S570.681,244.796,570.681,244.796z"/>
		<g>
			<path fill="#A5A7AA" d="M589.249,284.3h-47.158v1.972c0,0.704,0.571,1.275,1.275,1.275h44.606c0.705,0,1.276-0.571,1.276-1.275
				V284.3z"/>
			<path fill="#6D6E70" d="M570.622,284.3h-47.158v1.972c0,0.704,0.571,1.275,1.276,1.275h44.606c0.704,0,1.275-0.571,1.275-1.275
				V284.3z"/>
			<path fill="#919396" d="M568.325,285.924h-44.347c-0.799,0-1.66-0.611-1.926-1.364l-10.208-28.978
				c-0.266-0.753,0.166-1.363,0.965-1.363h44.347c0.798,0,1.66,0.61,1.926,1.363l10.208,28.978
				C569.556,285.313,569.124,285.924,568.325,285.924z"/>
		</g>
	</g>
	<path opacity="0.2" fill="#252A40" d="M502.1,321.306v44.68h-112.86v-40.421c0-2.352,1.907-4.259,4.26-4.259H502.1z"/>
	<g>
		<path fill="#D2F2FF" d="M539.879,426.117H406.172c-1.404,0-2.542-1.138-2.542-2.542v-89.843c0-1.403,1.138-2.542,2.542-2.542
			h133.707c1.403,0,2.541,1.139,2.541,2.542v89.843C542.42,424.979,541.282,426.117,539.879,426.117z"/>
		<g>
			<g>
				<g>
					<rect x="417.159" y="411.609" fill="#FFFFFF" width="112.369" height="2.044"/>
				</g>
				<g>
					<rect x="417.159" y="401.395" fill="#FFFFFF" width="112.369" height="2.043"/>
				</g>
				<g>
					<rect x="417.159" y="391.179" fill="#FFFFFF" width="112.369" height="2.043"/>
				</g>
				<g>
					<rect x="417.159" y="380.964" fill="#FFFFFF" width="112.369" height="2.043"/>
				</g>
				<g>
					<rect x="417.159" y="370.748" fill="#FFFFFF" width="112.369" height="2.043"/>
				</g>
				<g>
					<rect x="417.159" y="360.533" fill="#FFFFFF" width="112.369" height="2.043"/>
				</g>
				<g>
					<rect x="417.159" y="350.317" fill="#FFFFFF" width="112.369" height="2.043"/>
				</g>
			</g>
			<g>
				<path fill="#007CFF" d="M416.877,413.657v-20.432l8.063-8.062c2.317-2.317,6.075-2.317,8.393,0l0,0
					c2.23,2.229,5.814,2.326,8.161,0.221l0,0c5.33-4.784,13.249-5.276,19.131-1.189l2.455,1.705
					c7.872,5.47,18.571,4.305,25.081-2.732l5.556-6.005c3.521-3.805,9.382-4.243,13.429-1.006v0.001
					c3.729,2.982,9.057,2.873,12.66-0.26l9.441-8.211v45.97H416.877z"/>
				<path fill="#CE364C" d="M416.877,413.657v-20.432l8.063-8.062c2.317-2.317,6.075-2.317,8.393,0l0,0
					c2.23,2.229,5.814,2.326,8.161,0.221l0,0c5.33-4.784,13.249-5.276,19.131-1.189l2.455,1.705
					c7.872,5.47,18.571,4.305,25.081-2.732l5.556-6.005c3.521-3.805,9.382-4.243,13.429-1.006v0.001
					c3.729,2.982,9.057,2.873,12.66-0.26l9.441-8.211v45.97H416.877z"/>
				<path fill="#686F9B" d="M416.877,413.657l20.438-19.349c2.61-2.528,6.81-2.343,9.186,0.406l0,0
					c2.35,2.718,6.488,2.936,9.109,0.479l9.608-9.004c4.266-3.997,10.795-4.327,15.442-0.781l0,0
					c4.739,3.617,11.417,3.193,15.662-0.992l0.482-0.477c2.441-2.406,6.355-2.431,8.826-0.055l0,0
					c2.722,2.618,6.964,2.809,9.91,0.445l13.704-10.627v39.953H416.877z"/>
			</g>
		</g>
	</g>
	<path opacity="0.2" fill="#252A40" d="M502.1,83.926v87.66h-15.01c-2.48,0-4.49-2.01-4.49-4.49v-83.17H502.1z"/>
	<g>
		<path fill="#D2F2FF" d="M644.804,156.402H493.768c-1.403,0-2.541-1.138-2.541-2.542V57.892c0-1.404,1.138-2.542,2.541-2.542
			h151.036c1.403,0,2.542,1.138,2.542,2.542v95.969C647.346,155.264,646.207,156.402,644.804,156.402z"/>
		<g>
			<g>
				<circle fill="#A7B0D1" cx="539.595" cy="105.876" r="31.901"/>
				<path fill="#686F9B" d="M539.595,105.876l-0.299-31.899c-6.934,0.065-13.66,2.389-19.155,6.617
					c-13.869,10.672-16.5,30.867-5.828,44.737c10.673,13.87,30.867,16.5,44.737,5.828c10.726-8.253,15.085-22.474,10.826-35.32
					L539.595,105.876z"/>
				<path fill="#FFFFFF" d="M539.595,105.876l0.906-31.888c-7.344-0.208-14.538,2.126-20.36,6.606
					c-13.869,10.672-16.5,30.867-5.828,44.737c10.673,13.87,30.867,16.5,44.737,5.828c5.34-4.109,9.243-9.806,11.146-16.269
					L539.595,105.876z"/>
			</g>
			<g>
				<path fill="#686F9B" d="M597.948,91.186h-7.52c-0.744,0-1.348-0.604-1.348-1.348v-7.519c0-0.745,0.604-1.349,1.348-1.349h7.52
					c0.744,0,1.348,0.604,1.348,1.349v7.519C599.296,90.582,598.692,91.186,597.948,91.186z"/>
				<path fill="#A7B0D1" d="M597.948,110.984h-7.52c-0.744,0-1.348-0.604-1.348-1.349v-7.519c0-0.744,0.604-1.348,1.348-1.348h7.52
					c0.744,0,1.348,0.604,1.348,1.348v7.519C599.296,110.38,598.692,110.984,597.948,110.984z"/>
				<path fill="#FFFFFF" d="M597.948,130.782h-7.52c-0.744,0-1.348-0.604-1.348-1.348v-7.519c0-0.745,0.604-1.348,1.348-1.348h7.52
					c0.744,0,1.348,0.604,1.348,1.348v7.519C599.296,130.179,598.692,130.782,597.948,130.782z"/>
				<rect x="605.757" y="85.153" fill="#A7B0D1" width="20.572" height="1.849"/>
				<rect x="605.757" y="104.952" fill="#A7B0D1" width="20.572" height="1.849"/>
				<rect x="605.757" y="124.75" fill="#A7B0D1" width="20.572" height="1.849"/>
			</g>
		</g>
	</g>
	<g>
		<g>
			<rect x="242.93" y="452.22" fill="#A7B0D1" width="45.44" height="8.055"/>
			<rect x="242.93" y="452.22" fill="#686F9B" width="6.939" height="8.055"/>
			<rect x="251.291" y="452.22" fill="#686F9B" width="3.474" height="8.055"/>
			<rect x="257.167" y="452.22" fill="#686F9B" width="1.737" height="8.055"/>
			<rect x="263.044" y="452.22" fill="#686F9B" width="0.864" height="8.055"/>
			<rect x="269.83" y="452.22" fill="#686F9B" width="0.432" height="8.055"/>
			<polygon fill="#686F9B" points="242.93,458.961 242.93,460.274 288.37,460.274 			"/>
		</g>
		<g>
			<rect x="240.324" y="444.065" fill="#A7B0D1" width="45.44" height="8.055"/>
			<rect x="240.324" y="444.065" fill="#686F9B" width="6.939" height="8.055"/>
			<rect x="248.685" y="444.065" fill="#686F9B" width="3.474" height="8.055"/>
			<rect x="254.562" y="444.065" fill="#686F9B" width="1.737" height="8.055"/>
			<rect x="260.439" y="444.065" fill="#686F9B" width="0.864" height="8.055"/>
			<rect x="267.225" y="444.065" fill="#686F9B" width="0.432" height="8.055"/>
			<polygon fill="#686F9B" points="240.324,450.807 240.324,452.12 285.765,452.12 			"/>
		</g>
		<g>
			<rect x="248.356" y="435.911" fill="#A7B0D1" width="45.44" height="8.056"/>
			<rect x="248.356" y="435.911" fill="#686F9B" width="6.939" height="8.056"/>
			<rect x="256.717" y="435.911" fill="#686F9B" width="3.474" height="8.056"/>
			<rect x="262.594" y="435.911" fill="#686F9B" width="1.737" height="8.056"/>
			<rect x="268.471" y="435.911" fill="#686F9B" width="0.864" height="8.056"/>
			<rect x="275.256" y="435.911" fill="#686F9B" width="0.432" height="8.056"/>
			<polygon fill="#686F9B" points="248.356,442.652 248.356,443.967 293.796,443.967 			"/>
		</g>
		<g>
			<rect x="244.505" y="427.758" fill="#A7B0D1" width="45.44" height="8.055"/>
			<rect x="244.505" y="427.758" fill="#686F9B" width="6.939" height="8.055"/>
			<rect x="252.866" y="427.758" fill="#686F9B" width="3.474" height="8.055"/>
			<rect x="258.743" y="427.758" fill="#686F9B" width="1.737" height="8.055"/>
			<rect x="264.62" y="427.758" fill="#686F9B" width="0.864" height="8.055"/>
			<rect x="271.405" y="427.758" fill="#686F9B" width="0.432" height="8.055"/>
			<polygon fill="#686F9B" points="244.505,434.499 244.505,435.813 289.945,435.813 			"/>
		</g>
		<g>
			<rect x="244.505" y="411.45" fill="#A7B0D1" width="45.44" height="8.055"/>
			<rect x="244.505" y="411.45" fill="#686F9B" width="6.939" height="8.055"/>
			<rect x="252.866" y="411.45" fill="#686F9B" width="3.474" height="8.055"/>
			<rect x="258.743" y="411.45" fill="#686F9B" width="1.737" height="8.055"/>
			<rect x="264.62" y="411.45" fill="#686F9B" width="0.864" height="8.055"/>
			<rect x="271.405" y="411.45" fill="#686F9B" width="0.432" height="8.055"/>
			<polygon fill="#686F9B" points="244.505,418.191 244.505,419.505 289.945,419.505 			"/>
		</g>
		<g>
			<rect x="240.324" y="403.296" fill="#A7B0D1" width="45.44" height="8.055"/>
			<rect x="240.324" y="403.296" fill="#686F9B" width="6.939" height="8.055"/>
			<rect x="248.685" y="403.296" fill="#686F9B" width="3.474" height="8.055"/>
			<rect x="254.562" y="403.296" fill="#686F9B" width="1.737" height="8.055"/>
			<rect x="260.439" y="403.296" fill="#686F9B" width="0.864" height="8.055"/>
			<rect x="267.225" y="403.296" fill="#686F9B" width="0.432" height="8.055"/>
			<polygon fill="#686F9B" points="240.324,410.037 240.324,411.351 285.765,411.351 			"/>
		</g>
		<g>
			<rect x="244.505" y="395.142" fill="#A7B0D1" width="45.44" height="8.056"/>
			<rect x="244.505" y="395.142" fill="#686F9B" width="6.939" height="8.056"/>
			<rect x="252.866" y="395.142" fill="#686F9B" width="3.474" height="8.056"/>
			<rect x="258.743" y="395.142" fill="#686F9B" width="1.737" height="8.056"/>
			<rect x="264.62" y="395.142" fill="#686F9B" width="0.864" height="8.056"/>
			<rect x="271.405" y="395.142" fill="#686F9B" width="0.432" height="8.056"/>
			<polygon fill="#686F9B" points="244.505,401.883 244.505,403.197 289.945,403.197 			"/>
		</g>
		<g>
			<rect x="241.188" y="386.988" fill="#A7B0D1" width="45.44" height="8.055"/>
			<rect x="241.188" y="386.988" fill="#686F9B" width="6.938" height="8.055"/>
			<rect x="249.549" y="386.988" fill="#686F9B" width="3.474" height="8.055"/>
			<rect x="255.426" y="386.988" fill="#686F9B" width="1.737" height="8.055"/>
			<rect x="261.303" y="386.988" fill="#686F9B" width="0.864" height="8.055"/>
			<rect x="268.089" y="386.988" fill="#686F9B" width="0.432" height="8.055"/>
			<polygon fill="#686F9B" points="241.188,393.729 241.188,395.043 286.628,395.043 			"/>
		</g>
		<g>
			<rect x="242.93" y="419.604" fill="#A7B0D1" width="45.44" height="8.055"/>
			<rect x="242.93" y="419.604" fill="#686F9B" width="6.939" height="8.055"/>
			<rect x="251.291" y="419.604" fill="#686F9B" width="3.474" height="8.055"/>
			<rect x="257.167" y="419.604" fill="#686F9B" width="1.737" height="8.055"/>
			<rect x="263.044" y="419.604" fill="#686F9B" width="0.864" height="8.055"/>
			<rect x="269.83" y="419.604" fill="#686F9B" width="0.432" height="8.055"/>
			<polygon fill="#686F9B" points="242.93,426.345 242.93,427.658 288.37,427.658 			"/>
		</g>
	</g>
	<g>
		<g>
			<rect x="283.664" y="452.22" fill="#A7B0D1" width="45.44" height="8.055"/>
			<rect x="283.664" y="452.22" fill="#686F9B" width="6.939" height="8.055"/>
			<rect x="292.025" y="452.22" fill="#686F9B" width="3.474" height="8.055"/>
			<rect x="297.902" y="452.22" fill="#686F9B" width="1.737" height="8.055"/>
			<rect x="303.779" y="452.22" fill="#686F9B" width="0.864" height="8.055"/>
			<rect x="310.564" y="452.22" fill="#686F9B" width="0.432" height="8.055"/>
			<polygon fill="#686F9B" points="283.664,458.961 283.664,460.274 329.104,460.274 			"/>
		</g>
		<g>
			<rect x="281.059" y="444.065" fill="#A7B0D1" width="45.44" height="8.055"/>
			<rect x="281.059" y="444.065" fill="#686F9B" width="6.939" height="8.055"/>
			<rect x="289.419" y="444.065" fill="#686F9B" width="3.474" height="8.055"/>
			<rect x="295.296" y="444.065" fill="#686F9B" width="1.737" height="8.055"/>
			<rect x="301.173" y="444.065" fill="#686F9B" width="0.864" height="8.055"/>
			<rect x="307.959" y="444.065" fill="#686F9B" width="0.432" height="8.055"/>
			<polygon fill="#686F9B" points="281.059,450.807 281.059,452.12 326.499,452.12 			"/>
		</g>
		<g>
			<rect x="281.891" y="435.911" fill="#A7B0D1" width="45.44" height="8.056"/>
			<rect x="281.891" y="435.911" fill="#686F9B" width="6.939" height="8.056"/>
			<rect x="290.251" y="435.911" fill="#686F9B" width="3.474" height="8.056"/>
			<rect x="296.128" y="435.911" fill="#686F9B" width="1.737" height="8.056"/>
			<rect x="302.005" y="435.911" fill="#686F9B" width="0.864" height="8.056"/>
			<rect x="308.791" y="435.911" fill="#686F9B" width="0.432" height="8.056"/>
			<polygon fill="#686F9B" points="281.891,442.652 281.891,443.967 327.331,443.967 			"/>
		</g>
		<g>
			<rect x="278.04" y="427.758" fill="#A7B0D1" width="45.44" height="8.055"/>
			<rect x="278.04" y="427.758" fill="#686F9B" width="6.938" height="8.055"/>
			<rect x="286.4" y="427.758" fill="#686F9B" width="3.474" height="8.055"/>
			<rect x="292.277" y="427.758" fill="#686F9B" width="1.737" height="8.055"/>
			<rect x="298.154" y="427.758" fill="#686F9B" width="0.864" height="8.055"/>
			<rect x="304.94" y="427.758" fill="#686F9B" width="0.432" height="8.055"/>
			<polygon fill="#686F9B" points="278.04,434.499 278.04,435.813 323.479,435.813 			"/>
		</g>
		<g>
			<rect x="285.239" y="411.45" fill="#A7B0D1" width="45.44" height="8.055"/>
			<rect x="285.239" y="411.45" fill="#686F9B" width="6.939" height="8.055"/>
			<rect x="293.6" y="411.45" fill="#686F9B" width="3.474" height="8.055"/>
			<rect x="299.477" y="411.45" fill="#686F9B" width="1.737" height="8.055"/>
			<rect x="305.354" y="411.45" fill="#686F9B" width="0.864" height="8.055"/>
			<rect x="312.14" y="411.45" fill="#686F9B" width="0.432" height="8.055"/>
			<polygon fill="#686F9B" points="285.239,418.191 285.239,419.505 330.679,419.505 			"/>
		</g>
		<g>
			<rect x="283.664" y="419.604" fill="#A7B0D1" width="45.44" height="8.055"/>
			<rect x="283.664" y="419.604" fill="#686F9B" width="6.939" height="8.055"/>
			<rect x="292.025" y="419.604" fill="#686F9B" width="3.474" height="8.055"/>
			<rect x="297.902" y="419.604" fill="#686F9B" width="1.737" height="8.055"/>
			<rect x="303.779" y="419.604" fill="#686F9B" width="0.864" height="8.055"/>
			<rect x="310.564" y="419.604" fill="#686F9B" width="0.432" height="8.055"/>
			<polygon fill="#686F9B" points="283.664,426.345 283.664,427.658 329.104,427.658 			"/>
		</g>
	</g>
	<g>
		<ellipse fill="#A7B0D1" cx="527.004" cy="197.761" rx="33.394" ry="29.363"/>
		<text transform="matrix(1 0 0 1 506.6016 203.7939)" fill="#FFFFFF" font-family="'SourceSansPro-Regular'" font-size="19.3109">BUY?</text>
		<path fill="#A7B0D1" d="M535.026,216.79c0,0,7.542,11.944,18.504,13.25c0,0-5.7-1.853-10.214-17.769L535.026,216.79z"/>
	</g>
	<g>
		<ellipse fill="#A7B0D1" cx="643.367" cy="173.05" rx="33.394" ry="29.364"/>
		<text transform="matrix(1 0 0 1 620.0371 179.0825)" fill="#FFFFFF" font-family="'SourceSansPro-Regular'" font-size="19.3109">SELL?</text>
		<path fill="#A7B0D1" d="M635.346,192.078c0,0-7.542,11.945-18.504,13.25c0,0,5.7-1.854,10.213-17.769L635.346,192.078z"/>
	</g>
</g>
</svg>
